<?xml version="1.0" encoding="utf-8" standalone="no"?>
<!DOCTYPE svg PUBLIC "-//W3C//DTD SVG 1.1//EN" "http://www.w3.org/Graphics/SVG/1.1/DTD/svg11.dtd">
<svg width="3000px" height="3000px" version="1.1" xmlns="http://www.w3.org/2000/svg" xmlns:xlink="http://www.w3.org/1999/xlink">
<g id="bg">
<rect x="0" y="0" width="3000px" height="3000px" style="fill:rgb(255,255,255);"/>
</g>
<g id="ideograms">
<path d="M1500.000,425.000 A1075.000,1075.000 40.000 0,1 1560.335,426.694 L1563.141,376.773 A1125.000,1125.000 0.000 0,0 1500.000,375.000 Z" style="stroke-linecap:round;fill:rgb(251,106,74);" />
<text x="1534.1" y="285.5" font-size="18.2px" font-family="CMUBright-Roman" style="text-anchor:middle;fill:rgb(0,0,0);" transform="rotate(361.6,1534.1,285.5)" >AH10.1</text>
<path d="M1600.665,429.724 A1075.000,1075.000 40.000 0,1 1660.576,437.060 L1668.044,387.621 A1125.000,1125.000 0.000 0,0 1605.347,379.943 Z" style="stroke-linecap:round;fill:rgb(251,106,74);" />
<text x="1647.7" y="294.0" font-size="18.2px" font-family="CMUBright-Roman" style="text-anchor:middle;fill:rgb(0,0,0);" transform="rotate(367.0,1647.7,294.0)" >AH10.2</text>
<path d="M1700.445,443.853 A1075.000,1075.000 40.000 0,1 1759.405,456.768 L1771.471,408.245 A1125.000,1125.000 0.000 0,0 1709.768,394.730 Z" style="stroke-linecap:round;fill:rgb(251,106,74);" />
<text x="1760.0" y="313.1" font-size="18.2px" font-family="CMUBright-Roman" style="text-anchor:middle;fill:rgb(0,0,0);" transform="rotate(372.4,1760.0,313.1)" >AH10.3</text>
<path d="M1798.463,467.263 A1075.000,1075.000 40.000 0,1 1855.955,485.643 L1872.511,438.463 A1125.000,1125.000 0.000 0,0 1812.345,419.229 Z" style="stroke-linecap:round;fill:rgb(251,106,74);" />
<text x="1870.0" y="342.7" font-size="18.2px" font-family="CMUBright-Roman" style="text-anchor:middle;fill:rgb(0,0,0);" transform="rotate(377.7,1870.0,342.7)" >AH10.4</text>
<path d="M1893.859,499.750 A1075.000,1075.000 40.000 0,1 1949.377,523.432 L1970.279,478.010 A1125.000,1125.000 0.000 0,0 1912.178,453.227 Z" style="stroke-linecap:round;fill:rgb(251,106,74);" />
<text x="1976.7" y="382.4" font-size="18.2px" font-family="CMUBright-Roman" style="text-anchor:middle;fill:rgb(0,0,0);" transform="rotate(383.1,1976.7,382.4)" >AH10.5</text>
<path d="M1985.793,541.026 A1075.000,1075.000 40.000 0,1 2038.850,569.803 L2063.913,526.538 A1125.000,1125.000 0.000 0,0 2008.388,496.423 Z" style="stroke-linecap:round;fill:rgb(251,106,74);" />
<text x="2079.3" y="432.0" font-size="18.2px" font-family="CMUBright-Roman" style="text-anchor:middle;fill:rgb(0,0,0);" transform="rotate(388.5,2079.3,432.0)" >AH10.11</text>
<path d="M2073.458,590.731 A1075.000,1075.000 40.000 0,1 2123.587,624.349 L2152.591,583.621 A1125.000,1125.000 0.000 0,0 2100.130,548.439 Z" style="stroke-linecap:round;fill:rgb(251,106,74);" />
<text x="2176.7" y="490.9" font-size="18.2px" font-family="CMUBright-Roman" style="text-anchor:middle;fill:rgb(0,0,0);" transform="rotate(393.8,2176.7,490.9)" >AH10.12</text>
<path d="M2156.084,648.425 A1075.000,1075.000 40.000 0,1 2202.844,686.591 L2235.535,648.758 A1125.000,1125.000 0.000 0,0 2186.599,608.817 Z" style="stroke-linecap:round;fill:rgb(251,106,74);" />
<text x="2268.3" y="558.7" font-size="18.2px" font-family="CMUBright-Roman" style="text-anchor:middle;fill:rgb(0,0,0);" transform="rotate(399.2,2268.3,558.7)" >AH12.1</text>
<path d="M2232.943,713.604 A1075.000,1075.000 40.000 0,1 2275.925,755.980 L2312.015,721.375 A1125.000,1125.000 0.000 0,0 2267.034,677.027 Z" style="stroke-linecap:round;fill:rgb(251,106,74);" />
<text x="2353.0" y="634.8" font-size="18.2px" font-family="CMUBright-Roman" style="text-anchor:middle;fill:rgb(0,0,0);" transform="rotate(404.6,2353.0,634.8)" >AH12.2</text>
<path d="M2303.362,785.693 A1075.000,1075.000 40.000 0,1 2342.187,831.908 L2381.358,800.834 A1125.000,1125.000 0.000 0,0 2340.728,752.470 Z" style="stroke-linecap:round;fill:rgb(251,106,74);" />
<text x="2430.3" y="718.5" font-size="18.2px" font-family="CMUBright-Roman" style="text-anchor:middle;fill:rgb(0,0,0);" transform="rotate(410.0,2430.3,718.5)" >AH12.3</text>
<path d="M2366.721,864.060 A1075.000,1075.000 40.000 0,1 2401.047,913.707 L2442.956,886.438 A1125.000,1125.000 0.000 0,0 2407.034,834.481 Z" style="stroke-linecap:round;fill:rgb(251,106,74);" />
<text x="2499.4" y="809.0" font-size="18.2px" font-family="CMUBright-Roman" style="text-anchor:middle;fill:rgb(0,0,0);" transform="rotate(415.3,2499.4,809.0)" >AH12.4</text>
<path d="M2422.463,948.015 A1075.000,1075.000 40.000 0,1 2451.989,1000.659 L2496.268,977.434 A1125.000,1125.000 0.000 0,0 2465.368,922.342 Z" style="stroke-linecap:round;fill:rgb(251,106,74);" />
<text x="2559.7" y="905.6" font-size="18.2px" font-family="CMUBright-Roman" style="text-anchor:middle;fill:rgb(0,0,0);" transform="rotate(420.7,2559.7,905.6)" >AH12.5</text>
<path d="M2470.098,1036.821 A1075.000,1075.000 40.000 0,1 2494.565,1091.999 L2540.824,1073.022 A1125.000,1125.000 0.000 0,0 2515.219,1015.278 Z" style="stroke-linecap:round;fill:rgb(251,106,74);" />
<text x="2610.7" y="1007.5" font-size="18.2px" font-family="CMUBright-Roman" style="text-anchor:middle;fill:rgb(0,0,0);" transform="rotate(426.1,2610.7,1007.5)" >AH12.6</text>
<path d="M2509.208,1129.698 A1075.000,1075.000 40.000 0,1 2528.401,1186.924 L2576.234,1172.363 A1125.000,1125.000 0.000 0,0 2556.148,1112.475 Z" style="stroke-linecap:round;fill:rgb(116,196,118);" />
<text x="2651.9" y="1113.7" font-size="18.2px" font-family="CMUBright-Roman" style="text-anchor:middle;fill:rgb(0,0,0);" transform="rotate(431.5,2651.9,1113.7)" >CF10.1</text>
<path d="M2539.450,1225.829 A1075.000,1075.000 40.000 0,1 2553.199,1284.601 L2602.185,1274.582 A1125.000,1125.000 0.000 0,0 2587.796,1213.077 Z" style="stroke-linecap:round;fill:rgb(116,196,118);" />
<text x="2683.1" y="1223.2" font-size="18.2px" font-family="CMUBright-Roman" style="text-anchor:middle;fill:rgb(0,0,0);" transform="rotate(436.8,2683.1,1223.2)" >CF10.4</text>
<path d="M2560.556,1324.369 A1075.000,1075.000 40.000 0,1 2568.742,1384.170 L2618.450,1378.783 A1125.000,1125.000 0.000 0,0 2609.884,1316.200 Z" style="stroke-linecap:round;fill:rgb(116,196,118);" />
<text x="2703.8" y="1335.2" font-size="18.2px" font-family="CMUBright-Roman" style="text-anchor:middle;fill:rgb(0,0,0);" transform="rotate(442.2,2703.8,1335.2)" >CF10.5</text>
<path d="M2572.342,1424.453 A1075.000,1075.000 40.000 0,1 2574.892,1484.758 L2624.887,1484.049 A1125.000,1125.000 0.000 0,0 2622.219,1420.939 Z" style="stroke-linecap:round;fill:rgb(255,244,80);" />
<text x="2713.9" y="1448.7" font-size="18.2px" font-family="CMUBright-Roman" style="text-anchor:middle;fill:rgb(0,0,0);" transform="rotate(447.6,2713.9,1448.7)" >JFF12.3</text>
<path d="M2574.705,1525.201 A1075.000,1075.000 40.000 0,1 2571.596,1585.479 L2621.438,1589.455 A1125.000,1125.000 0.000 0,0 2624.691,1526.373 Z" style="stroke-linecap:round;fill:rgb(255,244,80);" />
<text x="2727.4" y="1563.3" font-size="18.2px" font-family="CMUBright-Roman" style="text-anchor:middle;fill:rgb(0,0,0);" transform="rotate(-87.0,2727.4,1563.3)" >JFF12.4</text>
<path d="M2567.622,1625.727 A1075.000,1075.000 40.000 0,1 2558.883,1685.450 L2608.133,1694.075 A1125.000,1125.000 0.000 0,0 2617.279,1631.575 Z" style="stroke-linecap:round;fill:rgb(255,244,80);" />
<text x="2716.0" y="1677.9" font-size="18.2px" font-family="CMUBright-Roman" style="text-anchor:middle;fill:rgb(0,0,0);" transform="rotate(-81.7,2716.0,1677.9)" >JFF12.13</text>
<path d="M2551.158,1725.148 A1075.000,1075.000 40.000 0,1 2536.865,1783.790 L2585.091,1796.990 A1125.000,1125.000 0.000 0,0 2600.049,1735.620 Z" style="stroke-linecap:round;fill:rgb(255,244,80);" />
<text x="2694.0" y="1791.0" font-size="18.2px" font-family="CMUBright-Roman" style="text-anchor:middle;fill:rgb(0,0,0);" transform="rotate(-76.3,2694.0,1791.0)" >JFF12.18</text>
<path d="M2525.456,1822.591 A1075.000,1075.000 40.000 0,1 2505.734,1879.637 L2552.512,1897.294 A1125.000,1125.000 0.000 0,0 2573.152,1837.595 Z" style="stroke-linecap:round;fill:rgb(255,244,80);" />
<text x="2661.5" y="1901.6" font-size="18.2px" font-family="CMUBright-Roman" style="text-anchor:middle;fill:rgb(0,0,0);" transform="rotate(-70.9,2661.5,1901.6)" >JFF12.19</text>
<path d="M2490.742,1917.199 A1075.000,1075.000 40.000 0,1 2465.765,1972.147 L2510.684,1994.107 A1125.000,1125.000 0.000 0,0 2536.823,1936.603 Z" style="stroke-linecap:round;fill:rgb(255,244,80);" />
<text x="2618.8" y="2008.6" font-size="18.2px" font-family="CMUBright-Roman" style="text-anchor:middle;fill:rgb(0,0,0);" transform="rotate(-65.6,2618.8,2008.6)" >JFF12.25</text>
<path d="M2447.322,2008.140 A1075.000,1075.000 40.000 0,1 2417.309,2060.508 L2459.974,2086.578 A1125.000,1125.000 0.000 0,0 2491.383,2031.775 Z" style="stroke-linecap:round;fill:rgb(255,244,80);" />
<text x="2566.3" y="2111.1" font-size="18.2px" font-family="CMUBright-Roman" style="text-anchor:middle;fill:rgb(0,0,0);" transform="rotate(-60.2,2566.3,2111.1)" >JFF12.28</text>
<path d="M2395.576,2094.616 A1075.000,1075.000 40.000 0,1 2360.791,2143.943 L2400.828,2173.894 A1125.000,1125.000 0.000 0,0 2437.231,2122.273 Z" style="stroke-linecap:round;fill:rgb(255,244,80);" />
<text x="2504.4" y="2208.3" font-size="18.2px" font-family="CMUBright-Roman" style="text-anchor:middle;fill:rgb(0,0,0);" transform="rotate(-54.8,2504.4,2208.3)" >JFF12.29</text>
<path d="M2335.960,2175.866 A1075.000,1075.000 40.000 0,1 2296.709,2221.720 L2333.766,2255.288 A1125.000,1125.000 0.000 0,0 2374.842,2207.302 Z" style="stroke-linecap:round;fill:rgb(255,244,80);" />
<text x="2433.6" y="2299.2" font-size="18.2px" font-family="CMUBright-Roman" style="text-anchor:middle;fill:rgb(0,0,0);" transform="rotate(-49.4,2433.6,2299.2)" >JFF12.31</text>
<path d="M2268.998,2251.177 A1075.000,1075.000 40.000 0,1 2225.626,2293.153 L2259.376,2330.044 A1125.000,1125.000 0.000 0,0 2304.765,2286.116 Z" style="stroke-linecap:round;fill:rgb(255,244,80);" />
<text x="2354.7" y="2383.1" font-size="18.2px" font-family="CMUBright-Roman" style="text-anchor:middle;fill:rgb(0,0,0);" transform="rotate(-44.1,2354.7,2383.1)" >JFF12.32</text>
<path d="M2195.278,2319.887 A1075.000,1075.000 40.000 0,1 2148.165,2357.617 L2178.312,2397.506 A1125.000,1125.000 0.000 0,0 2227.616,2358.021 Z" style="stroke-linecap:round;fill:rgb(255,244,80);" />
<text x="2268.3" y="2459.3" font-size="18.2px" font-family="CMUBright-Roman" style="text-anchor:middle;fill:rgb(0,0,0);" transform="rotate(-38.7,2268.3,2459.3)" >JFF12.36</text>
<path d="M2115.447,2381.391 A1075.000,1075.000 40.000 0,1 2065.009,2414.544 L2091.288,2457.081 A1125.000,1125.000 0.000 0,0 2144.073,2422.386 Z" style="stroke-linecap:round;fill:rgb(255,244,80);" />
<text x="2175.0" y="2527.0" font-size="18.2px" font-family="CMUBright-Roman" style="text-anchor:middle;fill:rgb(0,0,0);" transform="rotate(-33.3,2175.0,2527.0)" >JFF12.39</text>
<path d="M2030.208,2435.149 A1075.000,1075.000 40.000 0,1 1976.887,2463.433 L1999.067,2508.244 A1125.000,1125.000 0.000 0,0 2054.869,2478.645 Z" style="stroke-linecap:round;fill:rgb(255,244,80);" />
<text x="2075.9" y="2585.7" font-size="18.2px" font-family="CMUBright-Roman" style="text-anchor:middle;fill:rgb(0,0,0);" transform="rotate(-27.9,2075.9,2585.7)" >JFF12.43</text>
<path d="M1940.310,2480.690 A1075.000,1075.000 40.000 0,1 1884.574,2503.857 L1902.461,2550.548 A1125.000,1125.000 0.000 0,0 1960.789,2526.303 Z" style="stroke-linecap:round;fill:rgb(255,244,80);" />
<text x="1971.7" y="2634.9" font-size="18.2px" font-family="CMUBright-Roman" style="text-anchor:middle;fill:rgb(0,0,0);" transform="rotate(-22.6,1971.7,2634.9)" >JFF12.45</text>
<path d="M1846.542,2517.612 A1075.000,1075.000 40.000 0,1 1788.881,2535.458 L1802.318,2583.618 A1125.000,1125.000 0.000 0,0 1862.660,2564.943 Z" style="stroke-linecap:round;fill:rgb(255,244,80);" />
<text x="1863.4" y="2674.1" font-size="18.2px" font-family="CMUBright-Roman" style="text-anchor:middle;fill:rgb(0,0,0);" transform="rotate(-17.2,1863.4,2674.1)" >JFF12.46</text>
<path d="M1749.728,2545.591 A1075.000,1075.000 40.000 0,1 1690.650,2557.959 L1699.518,2607.167 A1125.000,1125.000 0.000 0,0 1761.344,2594.223 Z" style="stroke-linecap:round;fill:rgb(255,244,80);" />
<text x="1751.8" y="2702.9" font-size="18.2px" font-family="CMUBright-Roman" style="text-anchor:middle;fill:rgb(0,0,0);" transform="rotate(-11.8,1751.8,2702.9)" >JFF12.50</text>
<path d="M1650.720,2564.382 A1075.000,1075.000 40.000 0,1 1590.744,2571.163 L1594.964,2620.985 A1125.000,1125.000 0.000 0,0 1657.730,2613.888 Z" style="stroke-linecap:round;fill:rgb(255,244,80);" />
<text x="1638.1" y="2721.2" font-size="18.2px" font-family="CMUBright-Roman" style="text-anchor:middle;fill:rgb(0,0,0);" transform="rotate(-6.5,1638.1,2721.2)" >JFF12.52</text>
<path d="M1550.388,2573.818 A1075.000,1075.000 40.000 0,1 1490.040,2574.954 L1489.576,2624.952 A1125.000,1125.000 0.000 0,0 1552.731,2623.764 Z" style="stroke-linecap:round;fill:rgb(0,0,0);" />
<text x="1523.1" y="2729.8" font-size="18.2px" font-family="CMUBright-Roman" style="text-anchor:middle;fill:rgb(0,0,0);" transform="rotate(-1.1,1523.1,2729.8)" >SS10.1</text>
<path d="M1449.612,2573.818 A1075.000,1075.000 40.000 0,1 1389.423,2569.298 L1384.280,2619.033 A1125.000,1125.000 0.000 0,0 1447.269,2623.764 Z" style="stroke-linecap:round;fill:rgb(0,0,0);" />
<text x="1407.9" y="2726.5" font-size="18.2px" font-family="CMUBright-Roman" style="text-anchor:middle;fill:rgb(0,0,0);" transform="rotate(4.3,1407.9,2726.5)" >SS10.2</text>
<path d="M1349.280,2564.382 A1075.000,1075.000 40.000 0,1 1289.778,2554.245 L1280.001,2603.279 A1125.000,1125.000 0.000 0,0 1342.270,2613.888 Z" style="stroke-linecap:round;fill:rgb(0,0,0);" />
<text x="1293.4" y="2712.5" font-size="18.2px" font-family="CMUBright-Roman" style="text-anchor:middle;fill:rgb(0,0,0);" transform="rotate(9.7,1293.4,2712.5)" >SS10.3</text>
<path d="M1250.272,2545.591 A1075.000,1075.000 40.000 0,1 1191.981,2529.927 L1177.655,2577.830 A1125.000,1125.000 0.000 0,0 1238.656,2594.223 Z" style="stroke-linecap:round;fill:rgb(0,0,0);" />
<text x="1180.8" y="2687.9" font-size="18.2px" font-family="CMUBright-Roman" style="text-anchor:middle;fill:rgb(0,0,0);" transform="rotate(15.0,1180.8,2687.9)" >SS10.4</text>
<path d="M1153.458,2517.612 A1075.000,1075.000 40.000 0,1 1096.891,2496.558 L1078.141,2542.910 A1125.000,1125.000 0.000 0,0 1137.340,2564.943 Z" style="stroke-linecap:round;fill:rgb(0,0,0);" />
<text x="1071.0" y="2652.7" font-size="18.2px" font-family="CMUBright-Roman" style="text-anchor:middle;fill:rgb(0,0,0);" transform="rotate(20.4,1071.0,2652.7)" >SS10.5</text>
<path d="M1059.690,2480.690 A1075.000,1075.000 40.000 0,1 1005.343,2454.431 L982.335,2498.823 A1125.000,1125.000 0.000 0,0 1039.211,2526.303 Z" style="stroke-linecap:round;fill:rgb(0,0,0);" />
<text x="964.9" y="2607.5" font-size="18.2px" font-family="CMUBright-Roman" style="text-anchor:middle;fill:rgb(0,0,0);" transform="rotate(25.8,964.9,2607.5)" >SS10.6</text>
<path d="M969.792,2435.149 A1075.000,1075.000 40.000 0,1 918.142,2403.917 L891.079,2445.960 A1125.000,1125.000 0.000 0,0 945.131,2478.645 Z" style="stroke-linecap:round;fill:rgb(0,0,0);" />
<text x="863.5" y="2552.5" font-size="18.2px" font-family="CMUBright-Roman" style="text-anchor:middle;fill:rgb(0,0,0);" transform="rotate(31.2,863.5,2552.5)" >SS10.7</text>
<path d="M884.553,2381.391 A1075.000,1075.000 40.000 0,1 836.054,2345.459 L805.173,2384.783 A1125.000,1125.000 0.000 0,0 855.927,2422.386 Z" style="stroke-linecap:round;fill:rgb(0,0,0);" />
<text x="767.8" y="2488.3" font-size="18.2px" font-family="CMUBright-Roman" style="text-anchor:middle;fill:rgb(0,0,0);" transform="rotate(36.5,767.8,2488.3)" >SS10.8</text>
<path d="M804.722,2319.887 A1075.000,1075.000 40.000 0,1 759.802,2279.571 L725.374,2315.831 A1125.000,1125.000 0.000 0,0 772.384,2358.021 Z" style="stroke-linecap:round;fill:rgb(0,0,0);" />
<text x="678.5" y="2415.4" font-size="18.2px" font-family="CMUBright-Roman" style="text-anchor:middle;fill:rgb(0,0,0);" transform="rotate(41.9,678.5,2415.4)" >SS11.1</text>
<path d="M731.002,2251.177 A1075.000,1075.000 40.000 0,1 690.054,2206.833 L652.382,2239.709 A1125.000,1125.000 0.000 0,0 695.235,2286.116 Z" style="stroke-linecap:round;fill:rgb(0,0,0);" />
<text x="596.3" y="2334.4" font-size="18.2px" font-family="CMUBright-Roman" style="text-anchor:middle;fill:rgb(0,0,0);" transform="rotate(47.3,596.3,2334.4)" >SS11.3</text>
<path d="M664.040,2175.866 A1075.000,1075.000 40.000 0,1 627.424,2127.882 L586.839,2157.086 A1125.000,1125.000 0.000 0,0 625.158,2207.302 Z" style="stroke-linecap:round;fill:rgb(0,0,0);" />
<text x="522.2" y="2246.2" font-size="18.2px" font-family="CMUBright-Roman" style="text-anchor:middle;fill:rgb(0,0,0);" transform="rotate(52.7,522.2,2246.2)" >SS11.4</text>
<path d="M604.424,2094.616 A1075.000,1075.000 40.000 0,1 572.462,2043.414 L529.321,2068.689 A1125.000,1125.000 0.000 0,0 562.769,2122.273 Z" style="stroke-linecap:round;fill:rgb(0,0,0);" />
<text x="456.6" y="2151.3" font-size="18.2px" font-family="CMUBright-Roman" style="text-anchor:middle;fill:rgb(0,0,0);" transform="rotate(58.0,456.6,2151.3)" >SS11.5</text>
<path d="M552.678,2008.140 A1075.000,1075.000 40.000 0,1 525.652,1954.170 L480.333,1975.294 A1125.000,1125.000 0.000 0,0 508.617,2031.775 Z" style="stroke-linecap:round;fill:rgb(0,0,0);" />
<text x="400.2" y="2050.7" font-size="18.2px" font-family="CMUBright-Roman" style="text-anchor:middle;fill:rgb(0,0,0);" transform="rotate(63.4,400.2,2050.7)" >SS11.6</text>
<path d="M509.258,1917.199 A1075.000,1075.000 40.000 0,1 487.404,1860.935 L440.306,1877.723 A1125.000,1125.000 0.000 0,0 463.177,1936.603 Z" style="stroke-linecap:round;fill:rgb(0,0,0);" />
<text x="353.5" y="1945.3" font-size="18.2px" font-family="CMUBright-Roman" style="text-anchor:middle;fill:rgb(0,0,0);" transform="rotate(68.8,353.5,1945.3)" >SS11.7</text>
<path d="M474.544,1822.591 A1075.000,1075.000 40.000 0,1 458.055,1764.528 L409.592,1776.832 A1125.000,1125.000 0.000 0,0 426.848,1837.595 Z" style="stroke-linecap:round;fill:rgb(0,0,0);" />
<text x="316.8" y="1836.0" font-size="18.2px" font-family="CMUBright-Roman" style="text-anchor:middle;fill:rgb(0,0,0);" transform="rotate(74.1,316.8,1836.0)" >SS11.8</text>
<path d="M448.842,1725.148 A1075.000,1075.000 40.000 0,1 437.862,1665.797 L388.461,1673.508 A1125.000,1125.000 0.000 0,0 399.951,1735.620 Z" style="stroke-linecap:round;fill:rgb(0,0,0);" />
<text x="290.5" y="1723.7" font-size="18.2px" font-family="CMUBright-Roman" style="text-anchor:middle;fill:rgb(0,0,0);" transform="rotate(79.5,290.5,1723.7)" >SS11.9</text>
<path d="M432.378,1625.727 A1075.000,1075.000 40.000 0,1 427.004,1565.608 L377.097,1568.659 A1125.000,1125.000 0.000 0,0 382.721,1631.575 Z" style="stroke-linecap:round;fill:rgb(0,0,0);" />
<text x="274.9" y="1609.5" font-size="18.2px" font-family="CMUBright-Roman" style="text-anchor:middle;fill:rgb(0,0,0);" transform="rotate(84.9,274.9,1609.5)" >SS11.10</text>
<path d="M425.295,1525.201 A1075.000,1075.000 40.000 0,1 425.575,1464.843 L375.602,1463.207 A1125.000,1125.000 0.000 0,0 375.309,1526.373 Z" style="stroke-linecap:round;fill:rgb(0,0,0);" />
<text x="285.0" y="1494.4" font-size="18.2px" font-family="CMUBright-Roman" style="text-anchor:middle;fill:rgb(0,0,0);" transform="rotate(-89.7,285.0,1494.4)" >SS11.11</text>
<path d="M427.658,1424.453 A1075.000,1075.000 40.000 0,1 433.588,1364.386 L383.988,1358.079 A1125.000,1125.000 0.000 0,0 377.781,1420.939 Z" style="stroke-linecap:round;fill:rgb(0,0,0);" />
<text x="290.9" y="1380.6" font-size="18.2px" font-family="CMUBright-Roman" style="text-anchor:middle;fill:rgb(0,0,0);" transform="rotate(-84.4,290.9,1380.6)" >SS11.12</text>
<path d="M439.444,1324.369 A1075.000,1075.000 40.000 0,1 450.973,1265.122 L402.181,1254.197 A1125.000,1125.000 0.000 0,0 390.116,1316.200 Z" style="stroke-linecap:round;fill:rgb(0,0,0);" />
<text x="307.4" y="1267.9" font-size="18.2px" font-family="CMUBright-Roman" style="text-anchor:middle;fill:rgb(0,0,0);" transform="rotate(-79.0,307.4,1267.9)" >SS11.14</text>
<path d="M460.550,1225.829 A1075.000,1075.000 40.000 0,1 477.577,1167.922 L430.022,1152.476 A1125.000,1125.000 0.000 0,0 412.204,1213.077 Z" style="stroke-linecap:round;fill:rgb(0,0,0);" />
<text x="334.3" y="1157.3" font-size="18.2px" font-family="CMUBright-Roman" style="text-anchor:middle;fill:rgb(0,0,0);" transform="rotate(-73.6,334.3,1157.3)" >SS11.15</text>
<path d="M490.792,1129.698 A1075.000,1075.000 40.000 0,1 513.166,1073.640 L467.267,1053.809 A1125.000,1125.000 0.000 0,0 443.852,1112.475 Z" style="stroke-linecap:round;fill:rgb(0,0,0);" />
<text x="371.6" y="1049.6" font-size="18.2px" font-family="CMUBright-Roman" style="text-anchor:middle;fill:rgb(0,0,0);" transform="rotate(-68.2,371.6,1049.6)" >SS11.16</text>
<path d="M529.902,1036.821 A1075.000,1075.000 40.000 0,1 557.427,983.104 L513.586,959.063 A1125.000,1125.000 0.000 0,0 484.781,1015.278 Z" style="stroke-linecap:round;fill:rgb(0,0,0);" />
<text x="418.7" y="945.9" font-size="18.2px" font-family="CMUBright-Roman" style="text-anchor:middle;fill:rgb(0,0,0);" transform="rotate(-62.9,418.7,945.9)" >SS11.17</text>
<path d="M577.537,948.015 A1075.000,1075.000 40.000 0,1 609.972,897.112 L568.575,869.070 A1125.000,1125.000 0.000 0,0 534.632,922.342 Z" style="stroke-linecap:round;fill:rgb(0,0,0);" />
<text x="475.3" y="847.1" font-size="18.2px" font-family="CMUBright-Roman" style="text-anchor:middle;fill:rgb(0,0,0);" transform="rotate(-57.5,475.3,847.1)" >SS11.18</text>
<path d="M633.279,864.060 A1075.000,1075.000 40.000 0,1 670.338,816.417 L631.749,784.623 A1125.000,1125.000 0.000 0,0 592.966,834.481 Z" style="stroke-linecap:round;fill:rgb(0,0,0);" />
<text x="541.0" y="754.0" font-size="18.2px" font-family="CMUBright-Roman" style="text-anchor:middle;fill:rgb(0,0,0);" transform="rotate(-52.1,541.0,754.0)" >SS11.19</text>
<path d="M696.638,785.693 A1075.000,1075.000 40.000 0,1 737.995,741.730 L702.553,706.462 A1125.000,1125.000 0.000 0,0 659.272,752.470 Z" style="stroke-linecap:round;fill:rgb(0,0,0);" />
<text x="615.0" y="667.5" font-size="18.2px" font-family="CMUBright-Roman" style="text-anchor:middle;fill:rgb(0,0,0);" transform="rotate(-46.7,615.0,667.5)" >SS11.20</text>
<path d="M767.057,713.604 A1075.000,1075.000 40.000 0,1 812.349,673.707 L780.365,635.274 A1125.000,1125.000 0.000 0,0 732.966,677.027 Z" style="stroke-linecap:round;fill:rgb(0,0,0);" />
<text x="696.9" y="588.3" font-size="18.2px" font-family="CMUBright-Roman" style="text-anchor:middle;fill:rgb(0,0,0);" transform="rotate(-41.4,696.9,588.3)" >SS11.21</text>
<path d="M843.916,648.425 A1075.000,1075.000 40.000 0,1 892.746,612.945 L864.501,571.686 A1125.000,1125.000 0.000 0,0 813.401,608.817 Z" style="stroke-linecap:round;fill:rgb(107,174,214);" />
<text x="785.8" y="517.1" font-size="18.2px" font-family="CMUBright-Roman" style="text-anchor:middle;fill:rgb(0,0,0);" transform="rotate(-36.0,785.8,517.1)" >TB11.1</text>
<path d="M926.542,590.731 A1075.000,1075.000 40.000 0,1 978.479,559.978 L954.222,516.256 A1125.000,1125.000 0.000 0,0 899.870,548.439 Z" style="stroke-linecap:round;fill:rgb(107,174,214);" />
<text x="881.0" y="454.5" font-size="18.2px" font-family="CMUBright-Roman" style="text-anchor:middle;fill:rgb(0,0,0);" transform="rotate(-30.6,881.0,454.5)" >TB11.2</text>
<path d="M1014.207,541.026 A1075.000,1075.000 40.000 0,1 1068.796,515.273 L1048.740,469.471 A1125.000,1125.000 0.000 0,0 991.612,496.423 Z" style="stroke-linecap:round;fill:rgb(107,174,214);" />
<text x="981.6" y="401.1" font-size="18.2px" font-family="CMUBright-Roman" style="text-anchor:middle;fill:rgb(0,0,0);" transform="rotate(-25.3,981.6,401.1)" >TB11.3</text>
<path d="M1106.141,499.750 A1075.000,1075.000 40.000 0,1 1162.902,479.221 L1147.223,431.743 A1125.000,1125.000 0.000 0,0 1087.822,453.227 Z" style="stroke-linecap:round;fill:rgb(107,174,214);" />
<text x="1086.8" y="357.4" font-size="18.2px" font-family="CMUBright-Roman" style="text-anchor:middle;fill:rgb(0,0,0);" transform="rotate(-19.9,1086.8,357.4)" >TB11.6</text>
<path d="M1201.537,467.263 A1075.000,1075.000 40.000 0,1 1259.970,452.140 L1248.806,403.402 A1125.000,1125.000 0.000 0,0 1187.655,419.229 Z" style="stroke-linecap:round;fill:rgb(107,174,214);" />
<text x="1195.6" y="323.8" font-size="18.2px" font-family="CMUBright-Roman" style="text-anchor:middle;fill:rgb(0,0,0);" transform="rotate(-14.5,1195.6,323.8)" >TB12.1</text>
<path d="M1299.555,443.853 A1075.000,1075.000 40.000 0,1 1359.148,434.267 L1352.597,384.699 A1125.000,1125.000 0.000 0,0 1290.232,394.730 Z" style="stroke-linecap:round;fill:rgb(107,174,214);" />
<text x="1307.1" y="300.4" font-size="18.2px" font-family="CMUBright-Roman" style="text-anchor:middle;fill:rgb(0,0,0);" transform="rotate(-9.1,1307.1,300.4)" >TB12.2</text>
<path d="M1399.335,429.724 A1075.000,1075.000 40.000 0,1 1459.564,425.761 L1457.683,375.796 A1125.000,1125.000 0.000 0,0 1394.653,379.943 Z" style="stroke-linecap:round;fill:rgb(107,174,214);" />
<text x="1420.2" y="287.6" font-size="18.2px" font-family="CMUBright-Roman" style="text-anchor:middle;fill:rgb(0,0,0);" transform="rotate(-3.8,1420.2,287.6)" >TB12.3</text>
</g>
<g id="track_0">
<path d="M 1500.100,435.750 A 1064.250,1064.250 0.00 0,1 1559.7,437.4 L 1559.7,437.4 1556.7,511.2 1555.8,581.0 1557.1,646.8 1560.1,709.2 1564.7,768.2 1570.7,824.1 1578.1,877.3 1586.5,927.8 1596.0,976.0 1606.3,1022.1 1617.4,1066.2 1629.2,1108.6 1641.6,1149.5 1654.6,1189.0 1668.1,1227.4 1682.2,1264.8 1696.8,1301.3 1711.9,1337.2 1727.6,1372.6 1743.9,1407.6 1760.9,1442.4 1778.7,1477.1 1797.3,1511.7 1816.9,1546.5 1837.6,1581.6 1859.5,1617.0 1882.8,1652.7 1907.7,1689.0 1934.4,1725.9 1963.0,1763.4 1993.8,1801.6 2027.1,1840.6 2063.1,1880.4 2102.1,1921.0 2144.3,1962.5 2190.1,2004.9 2239.8,2048.2 2293.7,2092.4 2352.2,2137.5  A 1064.250,1064.250 0.00 0,0 2386.6,2088.8 L 2386.6,2088.8 2325.6,2047.0 2269.3,2005.9 2217.3,1965.4 2169.2,1925.7 2124.7,1886.6 2083.5,1848.3 2045.4,1810.6 2010.0,1773.5 1977.0,1737.1 1946.3,1701.2 1917.6,1665.9 1890.8,1631.1 1865.5,1596.6 1841.6,1562.5 1819.0,1528.7 1797.5,1495.1 1777.0,1461.5 1757.3,1427.9 1738.4,1394.1 1720.1,1360.0 1702.5,1325.6 1685.3,1290.6 1668.7,1254.9 1652.6,1218.4 1636.9,1180.8 1621.7,1142.1 1607.0,1102.0 1592.9,1060.3 1579.3,1016.9 1566.5,971.5 1554.3,923.9 1543.1,873.9 1532.8,821.2 1523.6,765.7 1515.7,707.0 1509.2,645.0 1504.3,579.3 1501.2,509.6 1500.1,435.8  Z" style="stroke-width: 2.0;  stroke: rgb(82,82,82); fill: rgb(204,255,255); opacity: 0.333;" />
<path d="M 1500.100,435.750 A 1064.250,1064.250 0.00 0,1 1559.7,437.4 L 1559.7,437.4 1554.5,511.1 1547.6,580.3 1539.1,645.4 1529.3,706.7 1518.2,764.4 1506.1,818.8 1493.0,870.2 1479.0,918.8 1464.2,964.9 1448.8,1008.7 1432.8,1050.4 1416.2,1090.2 1399.1,1128.3 1381.4,1165.0 1363.3,1200.3 1344.6,1234.5 1325.4,1267.7 1305.6,1300.1 1285.2,1331.8 1264.1,1362.9 1242.3,1393.6 1219.5,1424.0 1195.8,1454.2 1171.0,1484.2 1144.9,1514.2 1117.4,1544.1 1088.3,1574.2 1057.5,1604.4 1024.8,1634.7 989.8,1665.3 952.5,1696.1 912.5,1727.1 869.7,1758.3 823.6,1789.8 774.1,1821.5 720.9,1853.4 663.6,1885.4 601.9,1917.5 535.4,1949.6  A 1064.250,1064.250 0.00 0,0 562.1,2003.0 L 562.1,2003.0 626.7,1967.2 686.5,1931.6 741.9,1896.5 793.3,1861.7 840.9,1827.3 885.1,1793.2 926.2,1759.6 964.3,1726.4 999.9,1693.6 1033.1,1661.1 1064.1,1629.0 1093.1,1597.1 1120.5,1565.5 1146.2,1534.0 1170.6,1502.7 1193.7,1471.3 1215.7,1439.9 1236.7,1408.3 1256.8,1376.4 1276.1,1344.1 1294.7,1311.3 1312.7,1277.9 1330.0,1243.6 1346.7,1208.4 1362.8,1172.1 1378.4,1134.6 1393.4,1095.5 1407.7,1054.8 1421.4,1012.3 1434.3,967.8 1446.5,920.9 1457.7,871.6 1467.9,819.5 1477.0,764.5 1484.8,706.3 1491.2,644.5 1496.0,579.1 1499.0,509.6 1500.1,435.8  Z" style="stroke-width: 2.0;  stroke: rgb(82,82,82); fill: rgb(255,204,0); opacity: 0.333;" />
<path d="M 1500.100,435.750 A 1064.250,1064.250 0.00 0,1 1559.7,437.4 L 1559.7,437.4 1555.0,510.6 1549.4,578.6 1542.9,641.6 1535.7,699.8 1527.7,753.7 1519.0,803.3 1509.7,849.0 1499.6,891.0 1488.9,929.5 1477.5,964.7 1465.4,996.7 1452.7,1025.8 1439.3,1052.0 1425.2,1075.6 1410.3,1096.6 1394.6,1115.2 1378.1,1131.4 1360.7,1145.4 1342.3,1157.1 1323.0,1166.7 1302.5,1174.2 1280.8,1179.6 1257.9,1182.9 1233.7,1184.1 1207.9,1183.1 1180.6,1180.1 1151.6,1174.8 1120.8,1167.3 1088.0,1157.5 1053.1,1145.2 1016.0,1130.4 976.5,1112.9 934.5,1092.7 889.7,1069.5 842.1,1043.2 791.4,1013.6 737.4,980.5 680.0,943.8 618.9,903.1  A 1064.250,1064.250 0.00 0,0 586.8,953.4 L 586.8,953.4 650.1,990.6 709.5,1024.1 765.2,1054.0 817.5,1080.7 866.6,1104.3 912.5,1125.0 955.7,1142.9 996.1,1158.1 1033.9,1170.8 1069.4,1181.1 1102.7,1189.1 1133.9,1194.9 1163.2,1198.5 1190.6,1200.0 1216.4,1199.5 1240.5,1196.9 1263.2,1192.3 1284.5,1185.8 1304.6,1177.2 1323.4,1166.5 1341.0,1153.7 1357.6,1138.8 1373.2,1121.7 1387.8,1102.3 1401.5,1080.5 1414.3,1056.1 1426.2,1029.2 1437.3,999.4 1447.5,966.8 1456.9,931.0 1465.5,892.0 1473.2,849.5 1480.0,803.3 1485.9,753.3 1490.8,699.1 1494.8,640.5 1497.7,577.3 1499.5,509.1 1500.1,435.8  Z" style="stroke-width: 2.0;  stroke: rgb(82,82,82); fill: rgb(153,0,204); opacity: 0.333;" />
<path d="M 1599.757,440.436 A 1064.250,1064.250 0.00 0,1 1659.0,447.7 L 1659.0,447.7 1648.8,520.5 1641.0,588.8 1635.3,652.8 1631.6,712.8 1629.8,769.0 1629.7,821.7 1631.2,871.1 1634.3,917.4 1638.8,960.9 1644.7,1001.7 1651.9,1040.2 1660.4,1076.3 1670.1,1110.3 1681.1,1142.5 1693.2,1172.8 1706.6,1201.6 1721.2,1228.8 1737.1,1254.6 1754.3,1279.2 1772.9,1302.6 1792.9,1325.0 1814.4,1346.3 1837.6,1366.7 1862.6,1386.3 1889.3,1405.0 1918.1,1423.0 1949.1,1440.2 1982.4,1456.7 2018.1,1472.4 2056.6,1487.5 2097.9,1501.8 2142.3,1515.3 2190.1,1528.0 2241.4,1539.9 2296.5,1551.0 2355.8,1561.0 2419.4,1570.0 2487.6,1577.9 2560.9,1584.6  A 1064.250,1064.250 0.00 0,0 2564.0,1525.0 L 2564.0,1525.0 2490.5,1522.5 2421.8,1518.4 2357.8,1513.0 2298.1,1506.2 2242.4,1498.3 2190.5,1489.3 2142.2,1479.3 2097.0,1468.3 2055.0,1456.3 2015.8,1443.4 1979.2,1429.7 1945.0,1415.1 1913.2,1399.7 1883.4,1383.3 1855.6,1366.1 1829.6,1348.0 1805.3,1328.9 1782.6,1308.8 1761.4,1287.6 1741.5,1265.3 1723.0,1241.7 1705.7,1216.8 1689.6,1190.4 1674.6,1162.5 1660.8,1132.9 1648.0,1101.4 1636.4,1068.0 1625.9,1032.4 1616.6,994.4 1608.4,954.0 1601.5,910.8 1595.8,864.7 1591.5,815.5 1588.6,762.9 1587.3,706.6 1587.6,646.6 1589.7,582.3 1593.7,513.7 1599.8,440.4  Z" style="stroke-width: 2.0;  stroke: rgb(82,82,82); fill: rgb(255,204,204); opacity: 0.333;" />
</g>
<defs>
<pattern id="checker" width="10" height="10" patternTransform="rotate(45 0 0)" patternUnits="userSpaceOnUse"><line x1="0" y1="0" x2="10" y2="0" style="stroke:black;stroke-width:2" /><line x1="0" y1="0" x2="0" y2="10" style="stroke:black;stroke-width:2" /></pattern>
<pattern id="hline" width="10" height="10" patternTransform="rotate(0 0 0)" patternUnits="userSpaceOnUse"><line x1="0" y1="0" x2="10" y2="0" style="stroke:black;stroke-width:5" /></pattern>
<pattern id="vline" width="10" height="10" patternTransform="rotate(0 0 0)" patternUnits="userSpaceOnUse"><line x1="0" y1="0" x2="0" y2="10" style="stroke:black;stroke-width:5" /></pattern>
<pattern id="hline-sparse" width="10" height="10" patternTransform="rotate(0 0 0)" patternUnits="userSpaceOnUse"><line x1="0" y1="0" x2="10" y2="0" style="stroke:black;stroke-width:2" /></pattern>
<pattern id="vline-sparse" width="10" height="10" patternTransform="rotate(0 0 0)" patternUnits="userSpaceOnUse"><line x1="0" y1="0" x2="0" y2="10" style="stroke:black;stroke-width:2" /></pattern>
<pattern id="checker" width="10" height="10" patternTransform="rotate(45 0 0)" patternUnits="userSpaceOnUse"><line x1="0" y1="0" x2="10" y2="0" style="stroke:black;stroke-width:5" /><line x1="0" y1="0" x2="0" y2="10" style="stroke:black;stroke-width:4" /></pattern>
</defs>
</svg>
