<?xml version="1.0" encoding="utf-8" standalone="no"?>
<!DOCTYPE svg PUBLIC "-//W3C//DTD SVG 1.1//EN" "http://www.w3.org/Graphics/SVG/1.1/DTD/svg11.dtd">
<svg width="3000px" height="3000px" version="1.1" xmlns="http://www.w3.org/2000/svg" xmlns:xlink="http://www.w3.org/1999/xlink">
<g id="bg">
<rect x="0" y="0" width="3000px" height="3000px" style="fill:rgb(255,255,255);"/>
</g>
<g id="ideograms">
<path d="M1500.000,425.000 A1075.000,1075.000 40.000 0,1 1560.335,426.694 L1563.141,376.773 A1125.000,1125.000 0.000 0,0 1500.000,375.000 Z" style="stroke-linecap:round;fill:rgb(251,106,74);" />
<text x="1534.1" y="285.5" font-size="18.2px" font-family="CMUBright-Roman" style="text-anchor:middle;fill:rgb(0,0,0);" transform="rotate(361.6,1534.1,285.5)" >AH10.1</text>
<path d="M1600.665,429.724 A1075.000,1075.000 40.000 0,1 1660.576,437.060 L1668.044,387.621 A1125.000,1125.000 0.000 0,0 1605.347,379.943 Z" style="stroke-linecap:round;fill:rgb(251,106,74);" />
<text x="1647.7" y="294.0" font-size="18.2px" font-family="CMUBright-Roman" style="text-anchor:middle;fill:rgb(0,0,0);" transform="rotate(367.0,1647.7,294.0)" >AH10.2</text>
<path d="M1700.445,443.853 A1075.000,1075.000 40.000 0,1 1759.405,456.768 L1771.471,408.245 A1125.000,1125.000 0.000 0,0 1709.768,394.730 Z" style="stroke-linecap:round;fill:rgb(251,106,74);" />
<text x="1760.0" y="313.1" font-size="18.2px" font-family="CMUBright-Roman" style="text-anchor:middle;fill:rgb(0,0,0);" transform="rotate(372.4,1760.0,313.1)" >AH10.3</text>
<path d="M1798.463,467.263 A1075.000,1075.000 40.000 0,1 1855.955,485.643 L1872.511,438.463 A1125.000,1125.000 0.000 0,0 1812.345,419.229 Z" style="stroke-linecap:round;fill:rgb(251,106,74);" />
<text x="1870.0" y="342.7" font-size="18.2px" font-family="CMUBright-Roman" style="text-anchor:middle;fill:rgb(0,0,0);" transform="rotate(377.7,1870.0,342.7)" >AH10.4</text>
<path d="M1893.859,499.750 A1075.000,1075.000 40.000 0,1 1949.377,523.432 L1970.279,478.010 A1125.000,1125.000 0.000 0,0 1912.178,453.227 Z" style="stroke-linecap:round;fill:rgb(251,106,74);" />
<text x="1976.7" y="382.4" font-size="18.2px" font-family="CMUBright-Roman" style="text-anchor:middle;fill:rgb(0,0,0);" transform="rotate(383.1,1976.7,382.4)" >AH10.5</text>
<path d="M1985.793,541.026 A1075.000,1075.000 40.000 0,1 2038.850,569.803 L2063.913,526.538 A1125.000,1125.000 0.000 0,0 2008.388,496.423 Z" style="stroke-linecap:round;fill:rgb(251,106,74);" />
<text x="2079.3" y="432.0" font-size="18.2px" font-family="CMUBright-Roman" style="text-anchor:middle;fill:rgb(0,0,0);" transform="rotate(388.5,2079.3,432.0)" >AH10.11</text>
<path d="M2073.458,590.731 A1075.000,1075.000 40.000 0,1 2123.587,624.349 L2152.591,583.621 A1125.000,1125.000 0.000 0,0 2100.130,548.439 Z" style="stroke-linecap:round;fill:rgb(251,106,74);" />
<text x="2176.7" y="490.9" font-size="18.2px" font-family="CMUBright-Roman" style="text-anchor:middle;fill:rgb(0,0,0);" transform="rotate(393.8,2176.7,490.9)" >AH10.12</text>
<path d="M2156.084,648.425 A1075.000,1075.000 40.000 0,1 2202.844,686.591 L2235.535,648.758 A1125.000,1125.000 0.000 0,0 2186.599,608.817 Z" style="stroke-linecap:round;fill:rgb(251,106,74);" />
<text x="2268.3" y="558.7" font-size="18.2px" font-family="CMUBright-Roman" style="text-anchor:middle;fill:rgb(0,0,0);" transform="rotate(399.2,2268.3,558.7)" >AH12.1</text>
<path d="M2232.943,713.604 A1075.000,1075.000 40.000 0,1 2275.925,755.980 L2312.015,721.375 A1125.000,1125.000 0.000 0,0 2267.034,677.027 Z" style="stroke-linecap:round;fill:rgb(251,106,74);" />
<text x="2353.0" y="634.8" font-size="18.2px" font-family="CMUBright-Roman" style="text-anchor:middle;fill:rgb(0,0,0);" transform="rotate(404.6,2353.0,634.8)" >AH12.2</text>
<path d="M2303.362,785.693 A1075.000,1075.000 40.000 0,1 2342.187,831.908 L2381.358,800.834 A1125.000,1125.000 0.000 0,0 2340.728,752.470 Z" style="stroke-linecap:round;fill:rgb(251,106,74);" />
<text x="2430.3" y="718.5" font-size="18.2px" font-family="CMUBright-Roman" style="text-anchor:middle;fill:rgb(0,0,0);" transform="rotate(410.0,2430.3,718.5)" >AH12.3</text>
<path d="M2366.721,864.060 A1075.000,1075.000 40.000 0,1 2401.047,913.707 L2442.956,886.438 A1125.000,1125.000 0.000 0,0 2407.034,834.481 Z" style="stroke-linecap:round;fill:rgb(251,106,74);" />
<text x="2499.4" y="809.0" font-size="18.2px" font-family="CMUBright-Roman" style="text-anchor:middle;fill:rgb(0,0,0);" transform="rotate(415.3,2499.4,809.0)" >AH12.4</text>
<path d="M2422.463,948.015 A1075.000,1075.000 40.000 0,1 2451.989,1000.659 L2496.268,977.434 A1125.000,1125.000 0.000 0,0 2465.368,922.342 Z" style="stroke-linecap:round;fill:rgb(251,106,74);" />
<text x="2559.7" y="905.6" font-size="18.2px" font-family="CMUBright-Roman" style="text-anchor:middle;fill:rgb(0,0,0);" transform="rotate(420.7,2559.7,905.6)" >AH12.5</text>
<path d="M2470.098,1036.821 A1075.000,1075.000 40.000 0,1 2494.565,1091.999 L2540.824,1073.022 A1125.000,1125.000 0.000 0,0 2515.219,1015.278 Z" style="stroke-linecap:round;fill:rgb(251,106,74);" />
<text x="2610.7" y="1007.5" font-size="18.2px" font-family="CMUBright-Roman" style="text-anchor:middle;fill:rgb(0,0,0);" transform="rotate(426.1,2610.7,1007.5)" >AH12.6</text>
<path d="M2509.208,1129.698 A1075.000,1075.000 40.000 0,1 2528.401,1186.924 L2576.234,1172.363 A1125.000,1125.000 0.000 0,0 2556.148,1112.475 Z" style="stroke-linecap:round;fill:rgb(116,196,118);" />
<text x="2651.9" y="1113.7" font-size="18.2px" font-family="CMUBright-Roman" style="text-anchor:middle;fill:rgb(0,0,0);" transform="rotate(431.5,2651.9,1113.7)" >CF10.1</text>
<path d="M2539.450,1225.829 A1075.000,1075.000 40.000 0,1 2553.199,1284.601 L2602.185,1274.582 A1125.000,1125.000 0.000 0,0 2587.796,1213.077 Z" style="stroke-linecap:round;fill:rgb(116,196,118);" />
<text x="2683.1" y="1223.2" font-size="18.2px" font-family="CMUBright-Roman" style="text-anchor:middle;fill:rgb(0,0,0);" transform="rotate(436.8,2683.1,1223.2)" >CF10.4</text>
<path d="M2560.556,1324.369 A1075.000,1075.000 40.000 0,1 2568.742,1384.170 L2618.450,1378.783 A1125.000,1125.000 0.000 0,0 2609.884,1316.200 Z" style="stroke-linecap:round;fill:rgb(116,196,118);" />
<text x="2703.8" y="1335.2" font-size="18.2px" font-family="CMUBright-Roman" style="text-anchor:middle;fill:rgb(0,0,0);" transform="rotate(442.2,2703.8,1335.2)" >CF10.5</text>
<path d="M2572.342,1424.453 A1075.000,1075.000 40.000 0,1 2574.892,1484.758 L2624.887,1484.049 A1125.000,1125.000 0.000 0,0 2622.219,1420.939 Z" style="stroke-linecap:round;fill:rgb(255,244,80);" />
<text x="2713.9" y="1448.7" font-size="18.2px" font-family="CMUBright-Roman" style="text-anchor:middle;fill:rgb(0,0,0);" transform="rotate(447.6,2713.9,1448.7)" >JFF12.3</text>
<path d="M2574.705,1525.201 A1075.000,1075.000 40.000 0,1 2571.596,1585.479 L2621.438,1589.455 A1125.000,1125.000 0.000 0,0 2624.691,1526.373 Z" style="stroke-linecap:round;fill:rgb(255,244,80);" />
<text x="2727.4" y="1563.3" font-size="18.2px" font-family="CMUBright-Roman" style="text-anchor:middle;fill:rgb(0,0,0);" transform="rotate(-87.0,2727.4,1563.3)" >JFF12.4</text>
<path d="M2567.622,1625.727 A1075.000,1075.000 40.000 0,1 2558.883,1685.450 L2608.133,1694.075 A1125.000,1125.000 0.000 0,0 2617.279,1631.575 Z" style="stroke-linecap:round;fill:rgb(255,244,80);" />
<text x="2716.0" y="1677.9" font-size="18.2px" font-family="CMUBright-Roman" style="text-anchor:middle;fill:rgb(0,0,0);" transform="rotate(-81.7,2716.0,1677.9)" >JFF12.13</text>
<path d="M2551.158,1725.148 A1075.000,1075.000 40.000 0,1 2536.865,1783.790 L2585.091,1796.990 A1125.000,1125.000 0.000 0,0 2600.049,1735.620 Z" style="stroke-linecap:round;fill:rgb(255,244,80);" />
<text x="2694.0" y="1791.0" font-size="18.2px" font-family="CMUBright-Roman" style="text-anchor:middle;fill:rgb(0,0,0);" transform="rotate(-76.3,2694.0,1791.0)" >JFF12.18</text>
<path d="M2525.456,1822.591 A1075.000,1075.000 40.000 0,1 2505.734,1879.637 L2552.512,1897.294 A1125.000,1125.000 0.000 0,0 2573.152,1837.595 Z" style="stroke-linecap:round;fill:rgb(255,244,80);" />
<text x="2661.5" y="1901.6" font-size="18.2px" font-family="CMUBright-Roman" style="text-anchor:middle;fill:rgb(0,0,0);" transform="rotate(-70.9,2661.5,1901.6)" >JFF12.19</text>
<path d="M2490.742,1917.199 A1075.000,1075.000 40.000 0,1 2465.765,1972.147 L2510.684,1994.107 A1125.000,1125.000 0.000 0,0 2536.823,1936.603 Z" style="stroke-linecap:round;fill:rgb(255,244,80);" />
<text x="2618.8" y="2008.6" font-size="18.2px" font-family="CMUBright-Roman" style="text-anchor:middle;fill:rgb(0,0,0);" transform="rotate(-65.6,2618.8,2008.6)" >JFF12.25</text>
<path d="M2447.322,2008.140 A1075.000,1075.000 40.000 0,1 2417.309,2060.508 L2459.974,2086.578 A1125.000,1125.000 0.000 0,0 2491.383,2031.775 Z" style="stroke-linecap:round;fill:rgb(255,244,80);" />
<text x="2566.3" y="2111.1" font-size="18.2px" font-family="CMUBright-Roman" style="text-anchor:middle;fill:rgb(0,0,0);" transform="rotate(-60.2,2566.3,2111.1)" >JFF12.28</text>
<path d="M2395.576,2094.616 A1075.000,1075.000 40.000 0,1 2360.791,2143.943 L2400.828,2173.894 A1125.000,1125.000 0.000 0,0 2437.231,2122.273 Z" style="stroke-linecap:round;fill:rgb(255,244,80);" />
<text x="2504.4" y="2208.3" font-size="18.2px" font-family="CMUBright-Roman" style="text-anchor:middle;fill:rgb(0,0,0);" transform="rotate(-54.8,2504.4,2208.3)" >JFF12.29</text>
<path d="M2335.960,2175.866 A1075.000,1075.000 40.000 0,1 2296.709,2221.720 L2333.766,2255.288 A1125.000,1125.000 0.000 0,0 2374.842,2207.302 Z" style="stroke-linecap:round;fill:rgb(255,244,80);" />
<text x="2433.6" y="2299.2" font-size="18.2px" font-family="CMUBright-Roman" style="text-anchor:middle;fill:rgb(0,0,0);" transform="rotate(-49.4,2433.6,2299.2)" >JFF12.31</text>
<path d="M2268.998,2251.177 A1075.000,1075.000 40.000 0,1 2225.626,2293.153 L2259.376,2330.044 A1125.000,1125.000 0.000 0,0 2304.765,2286.116 Z" style="stroke-linecap:round;fill:rgb(255,244,80);" />
<text x="2354.7" y="2383.1" font-size="18.2px" font-family="CMUBright-Roman" style="text-anchor:middle;fill:rgb(0,0,0);" transform="rotate(-44.1,2354.7,2383.1)" >JFF12.32</text>
<path d="M2195.278,2319.887 A1075.000,1075.000 40.000 0,1 2148.165,2357.617 L2178.312,2397.506 A1125.000,1125.000 0.000 0,0 2227.616,2358.021 Z" style="stroke-linecap:round;fill:rgb(255,244,80);" />
<text x="2268.3" y="2459.3" font-size="18.2px" font-family="CMUBright-Roman" style="text-anchor:middle;fill:rgb(0,0,0);" transform="rotate(-38.7,2268.3,2459.3)" >JFF12.36</text>
<path d="M2115.447,2381.391 A1075.000,1075.000 40.000 0,1 2065.009,2414.544 L2091.288,2457.081 A1125.000,1125.000 0.000 0,0 2144.073,2422.386 Z" style="stroke-linecap:round;fill:rgb(255,244,80);" />
<text x="2175.0" y="2527.0" font-size="18.2px" font-family="CMUBright-Roman" style="text-anchor:middle;fill:rgb(0,0,0);" transform="rotate(-33.3,2175.0,2527.0)" >JFF12.39</text>
<path d="M2030.208,2435.149 A1075.000,1075.000 40.000 0,1 1976.887,2463.433 L1999.067,2508.244 A1125.000,1125.000 0.000 0,0 2054.869,2478.645 Z" style="stroke-linecap:round;fill:rgb(255,244,80);" />
<text x="2075.9" y="2585.7" font-size="18.2px" font-family="CMUBright-Roman" style="text-anchor:middle;fill:rgb(0,0,0);" transform="rotate(-27.9,2075.9,2585.7)" >JFF12.43</text>
<path d="M1940.310,2480.690 A1075.000,1075.000 40.000 0,1 1884.574,2503.857 L1902.461,2550.548 A1125.000,1125.000 0.000 0,0 1960.789,2526.303 Z" style="stroke-linecap:round;fill:rgb(255,244,80);" />
<text x="1971.7" y="2634.9" font-size="18.2px" font-family="CMUBright-Roman" style="text-anchor:middle;fill:rgb(0,0,0);" transform="rotate(-22.6,1971.7,2634.9)" >JFF12.45</text>
<path d="M1846.542,2517.612 A1075.000,1075.000 40.000 0,1 1788.881,2535.458 L1802.318,2583.618 A1125.000,1125.000 0.000 0,0 1862.660,2564.943 Z" style="stroke-linecap:round;fill:rgb(255,244,80);" />
<text x="1863.4" y="2674.1" font-size="18.2px" font-family="CMUBright-Roman" style="text-anchor:middle;fill:rgb(0,0,0);" transform="rotate(-17.2,1863.4,2674.1)" >JFF12.46</text>
<path d="M1749.728,2545.591 A1075.000,1075.000 40.000 0,1 1690.650,2557.959 L1699.518,2607.167 A1125.000,1125.000 0.000 0,0 1761.344,2594.223 Z" style="stroke-linecap:round;fill:rgb(255,244,80);" />
<text x="1751.8" y="2702.9" font-size="18.2px" font-family="CMUBright-Roman" style="text-anchor:middle;fill:rgb(0,0,0);" transform="rotate(-11.8,1751.8,2702.9)" >JFF12.50</text>
<path d="M1650.720,2564.382 A1075.000,1075.000 40.000 0,1 1590.744,2571.163 L1594.964,2620.985 A1125.000,1125.000 0.000 0,0 1657.730,2613.888 Z" style="stroke-linecap:round;fill:rgb(255,244,80);" />
<text x="1638.1" y="2721.2" font-size="18.2px" font-family="CMUBright-Roman" style="text-anchor:middle;fill:rgb(0,0,0);" transform="rotate(-6.5,1638.1,2721.2)" >JFF12.52</text>
<path d="M1550.388,2573.818 A1075.000,1075.000 40.000 0,1 1490.040,2574.954 L1489.576,2624.952 A1125.000,1125.000 0.000 0,0 1552.731,2623.764 Z" style="stroke-linecap:round;fill:rgb(0,0,0);" />
<text x="1523.1" y="2729.8" font-size="18.2px" font-family="CMUBright-Roman" style="text-anchor:middle;fill:rgb(0,0,0);" transform="rotate(-1.1,1523.1,2729.8)" >SS10.1</text>
<path d="M1449.612,2573.818 A1075.000,1075.000 40.000 0,1 1389.423,2569.298 L1384.280,2619.033 A1125.000,1125.000 0.000 0,0 1447.269,2623.764 Z" style="stroke-linecap:round;fill:rgb(0,0,0);" />
<text x="1407.9" y="2726.5" font-size="18.2px" font-family="CMUBright-Roman" style="text-anchor:middle;fill:rgb(0,0,0);" transform="rotate(4.3,1407.9,2726.5)" >SS10.2</text>
<path d="M1349.280,2564.382 A1075.000,1075.000 40.000 0,1 1289.778,2554.245 L1280.001,2603.279 A1125.000,1125.000 0.000 0,0 1342.270,2613.888 Z" style="stroke-linecap:round;fill:rgb(0,0,0);" />
<text x="1293.4" y="2712.5" font-size="18.2px" font-family="CMUBright-Roman" style="text-anchor:middle;fill:rgb(0,0,0);" transform="rotate(9.7,1293.4,2712.5)" >SS10.3</text>
<path d="M1250.272,2545.591 A1075.000,1075.000 40.000 0,1 1191.981,2529.927 L1177.655,2577.830 A1125.000,1125.000 0.000 0,0 1238.656,2594.223 Z" style="stroke-linecap:round;fill:rgb(0,0,0);" />
<text x="1180.8" y="2687.9" font-size="18.2px" font-family="CMUBright-Roman" style="text-anchor:middle;fill:rgb(0,0,0);" transform="rotate(15.0,1180.8,2687.9)" >SS10.4</text>
<path d="M1153.458,2517.612 A1075.000,1075.000 40.000 0,1 1096.891,2496.558 L1078.141,2542.910 A1125.000,1125.000 0.000 0,0 1137.340,2564.943 Z" style="stroke-linecap:round;fill:rgb(0,0,0);" />
<text x="1071.0" y="2652.7" font-size="18.2px" font-family="CMUBright-Roman" style="text-anchor:middle;fill:rgb(0,0,0);" transform="rotate(20.4,1071.0,2652.7)" >SS10.5</text>
<path d="M1059.690,2480.690 A1075.000,1075.000 40.000 0,1 1005.343,2454.431 L982.335,2498.823 A1125.000,1125.000 0.000 0,0 1039.211,2526.303 Z" style="stroke-linecap:round;fill:rgb(0,0,0);" />
<text x="964.9" y="2607.5" font-size="18.2px" font-family="CMUBright-Roman" style="text-anchor:middle;fill:rgb(0,0,0);" transform="rotate(25.8,964.9,2607.5)" >SS10.6</text>
<path d="M969.792,2435.149 A1075.000,1075.000 40.000 0,1 918.142,2403.917 L891.079,2445.960 A1125.000,1125.000 0.000 0,0 945.131,2478.645 Z" style="stroke-linecap:round;fill:rgb(0,0,0);" />
<text x="863.5" y="2552.5" font-size="18.2px" font-family="CMUBright-Roman" style="text-anchor:middle;fill:rgb(0,0,0);" transform="rotate(31.2,863.5,2552.5)" >SS10.7</text>
<path d="M884.553,2381.391 A1075.000,1075.000 40.000 0,1 836.054,2345.459 L805.173,2384.783 A1125.000,1125.000 0.000 0,0 855.927,2422.386 Z" style="stroke-linecap:round;fill:rgb(0,0,0);" />
<text x="767.8" y="2488.3" font-size="18.2px" font-family="CMUBright-Roman" style="text-anchor:middle;fill:rgb(0,0,0);" transform="rotate(36.5,767.8,2488.3)" >SS10.8</text>
<path d="M804.722,2319.887 A1075.000,1075.000 40.000 0,1 759.802,2279.571 L725.374,2315.831 A1125.000,1125.000 0.000 0,0 772.384,2358.021 Z" style="stroke-linecap:round;fill:rgb(0,0,0);" />
<text x="678.5" y="2415.4" font-size="18.2px" font-family="CMUBright-Roman" style="text-anchor:middle;fill:rgb(0,0,0);" transform="rotate(41.9,678.5,2415.4)" >SS11.1</text>
<path d="M731.002,2251.177 A1075.000,1075.000 40.000 0,1 690.054,2206.833 L652.382,2239.709 A1125.000,1125.000 0.000 0,0 695.235,2286.116 Z" style="stroke-linecap:round;fill:rgb(0,0,0);" />
<text x="596.3" y="2334.4" font-size="18.2px" font-family="CMUBright-Roman" style="text-anchor:middle;fill:rgb(0,0,0);" transform="rotate(47.3,596.3,2334.4)" >SS11.3</text>
<path d="M664.040,2175.866 A1075.000,1075.000 40.000 0,1 627.424,2127.882 L586.839,2157.086 A1125.000,1125.000 0.000 0,0 625.158,2207.302 Z" style="stroke-linecap:round;fill:rgb(0,0,0);" />
<text x="522.2" y="2246.2" font-size="18.2px" font-family="CMUBright-Roman" style="text-anchor:middle;fill:rgb(0,0,0);" transform="rotate(52.7,522.2,2246.2)" >SS11.4</text>
<path d="M604.424,2094.616 A1075.000,1075.000 40.000 0,1 572.462,2043.414 L529.321,2068.689 A1125.000,1125.000 0.000 0,0 562.769,2122.273 Z" style="stroke-linecap:round;fill:rgb(0,0,0);" />
<text x="456.6" y="2151.3" font-size="18.2px" font-family="CMUBright-Roman" style="text-anchor:middle;fill:rgb(0,0,0);" transform="rotate(58.0,456.6,2151.3)" >SS11.5</text>
<path d="M552.678,2008.140 A1075.000,1075.000 40.000 0,1 525.652,1954.170 L480.333,1975.294 A1125.000,1125.000 0.000 0,0 508.617,2031.775 Z" style="stroke-linecap:round;fill:rgb(0,0,0);" />
<text x="400.2" y="2050.7" font-size="18.2px" font-family="CMUBright-Roman" style="text-anchor:middle;fill:rgb(0,0,0);" transform="rotate(63.4,400.2,2050.7)" >SS11.6</text>
<path d="M509.258,1917.199 A1075.000,1075.000 40.000 0,1 487.404,1860.935 L440.306,1877.723 A1125.000,1125.000 0.000 0,0 463.177,1936.603 Z" style="stroke-linecap:round;fill:rgb(0,0,0);" />
<text x="353.5" y="1945.3" font-size="18.2px" font-family="CMUBright-Roman" style="text-anchor:middle;fill:rgb(0,0,0);" transform="rotate(68.8,353.5,1945.3)" >SS11.7</text>
<path d="M474.544,1822.591 A1075.000,1075.000 40.000 0,1 458.055,1764.528 L409.592,1776.832 A1125.000,1125.000 0.000 0,0 426.848,1837.595 Z" style="stroke-linecap:round;fill:rgb(0,0,0);" />
<text x="316.8" y="1836.0" font-size="18.2px" font-family="CMUBright-Roman" style="text-anchor:middle;fill:rgb(0,0,0);" transform="rotate(74.1,316.8,1836.0)" >SS11.8</text>
<path d="M448.842,1725.148 A1075.000,1075.000 40.000 0,1 437.862,1665.797 L388.461,1673.508 A1125.000,1125.000 0.000 0,0 399.951,1735.620 Z" style="stroke-linecap:round;fill:rgb(0,0,0);" />
<text x="290.5" y="1723.7" font-size="18.2px" font-family="CMUBright-Roman" style="text-anchor:middle;fill:rgb(0,0,0);" transform="rotate(79.5,290.5,1723.7)" >SS11.9</text>
<path d="M432.378,1625.727 A1075.000,1075.000 40.000 0,1 427.004,1565.608 L377.097,1568.659 A1125.000,1125.000 0.000 0,0 382.721,1631.575 Z" style="stroke-linecap:round;fill:rgb(0,0,0);" />
<text x="274.9" y="1609.5" font-size="18.2px" font-family="CMUBright-Roman" style="text-anchor:middle;fill:rgb(0,0,0);" transform="rotate(84.9,274.9,1609.5)" >SS11.10</text>
<path d="M425.295,1525.201 A1075.000,1075.000 40.000 0,1 425.575,1464.843 L375.602,1463.207 A1125.000,1125.000 0.000 0,0 375.309,1526.373 Z" style="stroke-linecap:round;fill:rgb(0,0,0);" />
<text x="285.0" y="1494.4" font-size="18.2px" font-family="CMUBright-Roman" style="text-anchor:middle;fill:rgb(0,0,0);" transform="rotate(-89.7,285.0,1494.4)" >SS11.11</text>
<path d="M427.658,1424.453 A1075.000,1075.000 40.000 0,1 433.588,1364.386 L383.988,1358.079 A1125.000,1125.000 0.000 0,0 377.781,1420.939 Z" style="stroke-linecap:round;fill:rgb(0,0,0);" />
<text x="290.9" y="1380.6" font-size="18.2px" font-family="CMUBright-Roman" style="text-anchor:middle;fill:rgb(0,0,0);" transform="rotate(-84.4,290.9,1380.6)" >SS11.12</text>
<path d="M439.444,1324.369 A1075.000,1075.000 40.000 0,1 450.973,1265.122 L402.181,1254.197 A1125.000,1125.000 0.000 0,0 390.116,1316.200 Z" style="stroke-linecap:round;fill:rgb(0,0,0);" />
<text x="307.4" y="1267.9" font-size="18.2px" font-family="CMUBright-Roman" style="text-anchor:middle;fill:rgb(0,0,0);" transform="rotate(-79.0,307.4,1267.9)" >SS11.14</text>
<path d="M460.550,1225.829 A1075.000,1075.000 40.000 0,1 477.577,1167.922 L430.022,1152.476 A1125.000,1125.000 0.000 0,0 412.204,1213.077 Z" style="stroke-linecap:round;fill:rgb(0,0,0);" />
<text x="334.3" y="1157.3" font-size="18.2px" font-family="CMUBright-Roman" style="text-anchor:middle;fill:rgb(0,0,0);" transform="rotate(-73.6,334.3,1157.3)" >SS11.15</text>
<path d="M490.792,1129.698 A1075.000,1075.000 40.000 0,1 513.166,1073.640 L467.267,1053.809 A1125.000,1125.000 0.000 0,0 443.852,1112.475 Z" style="stroke-linecap:round;fill:rgb(0,0,0);" />
<text x="371.6" y="1049.6" font-size="18.2px" font-family="CMUBright-Roman" style="text-anchor:middle;fill:rgb(0,0,0);" transform="rotate(-68.2,371.6,1049.6)" >SS11.16</text>
<path d="M529.902,1036.821 A1075.000,1075.000 40.000 0,1 557.427,983.104 L513.586,959.063 A1125.000,1125.000 0.000 0,0 484.781,1015.278 Z" style="stroke-linecap:round;fill:rgb(0,0,0);" />
<text x="418.7" y="945.9" font-size="18.2px" font-family="CMUBright-Roman" style="text-anchor:middle;fill:rgb(0,0,0);" transform="rotate(-62.9,418.7,945.9)" >SS11.17</text>
<path d="M577.537,948.015 A1075.000,1075.000 40.000 0,1 609.972,897.112 L568.575,869.070 A1125.000,1125.000 0.000 0,0 534.632,922.342 Z" style="stroke-linecap:round;fill:rgb(0,0,0);" />
<text x="475.3" y="847.1" font-size="18.2px" font-family="CMUBright-Roman" style="text-anchor:middle;fill:rgb(0,0,0);" transform="rotate(-57.5,475.3,847.1)" >SS11.18</text>
<path d="M633.279,864.060 A1075.000,1075.000 40.000 0,1 670.338,816.417 L631.749,784.623 A1125.000,1125.000 0.000 0,0 592.966,834.481 Z" style="stroke-linecap:round;fill:rgb(0,0,0);" />
<text x="541.0" y="754.0" font-size="18.2px" font-family="CMUBright-Roman" style="text-anchor:middle;fill:rgb(0,0,0);" transform="rotate(-52.1,541.0,754.0)" >SS11.19</text>
<path d="M696.638,785.693 A1075.000,1075.000 40.000 0,1 737.995,741.730 L702.553,706.462 A1125.000,1125.000 0.000 0,0 659.272,752.470 Z" style="stroke-linecap:round;fill:rgb(0,0,0);" />
<text x="615.0" y="667.5" font-size="18.2px" font-family="CMUBright-Roman" style="text-anchor:middle;fill:rgb(0,0,0);" transform="rotate(-46.7,615.0,667.5)" >SS11.20</text>
<path d="M767.057,713.604 A1075.000,1075.000 40.000 0,1 812.349,673.707 L780.365,635.274 A1125.000,1125.000 0.000 0,0 732.966,677.027 Z" style="stroke-linecap:round;fill:rgb(0,0,0);" />
<text x="696.9" y="588.3" font-size="18.2px" font-family="CMUBright-Roman" style="text-anchor:middle;fill:rgb(0,0,0);" transform="rotate(-41.4,696.9,588.3)" >SS11.21</text>
<path d="M843.916,648.425 A1075.000,1075.000 40.000 0,1 892.746,612.945 L864.501,571.686 A1125.000,1125.000 0.000 0,0 813.401,608.817 Z" style="stroke-linecap:round;fill:rgb(107,174,214);" />
<text x="785.8" y="517.1" font-size="18.2px" font-family="CMUBright-Roman" style="text-anchor:middle;fill:rgb(0,0,0);" transform="rotate(-36.0,785.8,517.1)" >TB11.1</text>
<path d="M926.542,590.731 A1075.000,1075.000 40.000 0,1 978.479,559.978 L954.222,516.256 A1125.000,1125.000 0.000 0,0 899.870,548.439 Z" style="stroke-linecap:round;fill:rgb(107,174,214);" />
<text x="881.0" y="454.5" font-size="18.2px" font-family="CMUBright-Roman" style="text-anchor:middle;fill:rgb(0,0,0);" transform="rotate(-30.6,881.0,454.5)" >TB11.2</text>
<path d="M1014.207,541.026 A1075.000,1075.000 40.000 0,1 1068.796,515.273 L1048.740,469.471 A1125.000,1125.000 0.000 0,0 991.612,496.423 Z" style="stroke-linecap:round;fill:rgb(107,174,214);" />
<text x="981.6" y="401.1" font-size="18.2px" font-family="CMUBright-Roman" style="text-anchor:middle;fill:rgb(0,0,0);" transform="rotate(-25.3,981.6,401.1)" >TB11.3</text>
<path d="M1106.141,499.750 A1075.000,1075.000 40.000 0,1 1162.902,479.221 L1147.223,431.743 A1125.000,1125.000 0.000 0,0 1087.822,453.227 Z" style="stroke-linecap:round;fill:rgb(107,174,214);" />
<text x="1086.8" y="357.4" font-size="18.2px" font-family="CMUBright-Roman" style="text-anchor:middle;fill:rgb(0,0,0);" transform="rotate(-19.9,1086.8,357.4)" >TB11.6</text>
<path d="M1201.537,467.263 A1075.000,1075.000 40.000 0,1 1259.970,452.140 L1248.806,403.402 A1125.000,1125.000 0.000 0,0 1187.655,419.229 Z" style="stroke-linecap:round;fill:rgb(107,174,214);" />
<text x="1195.6" y="323.8" font-size="18.2px" font-family="CMUBright-Roman" style="text-anchor:middle;fill:rgb(0,0,0);" transform="rotate(-14.5,1195.6,323.8)" >TB12.1</text>
<path d="M1299.555,443.853 A1075.000,1075.000 40.000 0,1 1359.148,434.267 L1352.597,384.699 A1125.000,1125.000 0.000 0,0 1290.232,394.730 Z" style="stroke-linecap:round;fill:rgb(107,174,214);" />
<text x="1307.1" y="300.4" font-size="18.2px" font-family="CMUBright-Roman" style="text-anchor:middle;fill:rgb(0,0,0);" transform="rotate(-9.1,1307.1,300.4)" >TB12.2</text>
<path d="M1399.335,429.724 A1075.000,1075.000 40.000 0,1 1459.564,425.761 L1457.683,375.796 A1125.000,1125.000 0.000 0,0 1394.653,379.943 Z" style="stroke-linecap:round;fill:rgb(107,174,214);" />
<text x="1420.2" y="287.6" font-size="18.2px" font-family="CMUBright-Roman" style="text-anchor:middle;fill:rgb(0,0,0);" transform="rotate(-3.8,1420.2,287.6)" >TB12.3</text>
</g>
<g id="track_0">
<path d="M 2561.626,1425.308 A 1064.250,1064.250 0.00 0,1 2564.1,1484.9 L 2564.1,1484.9 2490.9,1485.9 2423.3,1486.7 2360.9,1487.3 2303.6,1487.7 2251.0,1488.0 2203.0,1488.1 2159.3,1488.0 2119.7,1487.8 2084.1,1487.4 2052.2,1486.9 2023.9,1486.3 1999.1,1485.5 1977.7,1484.5 1959.5,1483.4 1944.5,1482.2 1932.5,1480.8 1923.6,1479.3 1917.6,1477.6 1914.5,1475.7 1914.4,1473.6 1917.2,1471.4 1922.9,1469.0 1931.6,1466.3 1943.3,1463.5 1958.1,1460.4 1976.0,1457.2 1997.2,1453.6 2021.7,1449.8 2049.7,1445.7 2081.2,1441.3 2116.6,1436.6 2155.8,1431.6 2199.2,1426.2 2246.9,1420.4 2299.1,1414.3 2356.1,1407.7 2418.1,1400.7 2485.3,1393.3 2558.1,1385.3  A 1064.250,1064.250 0.00 0,0 2550.0,1326.2 L 2550.0,1326.2 2477.8,1338.2 2411.0,1349.4 2349.6,1359.9 2293.1,1369.7 2241.3,1378.7 2194.0,1387.1 2151.0,1394.9 2112.1,1402.2 2077.0,1408.8 2045.8,1415.0 2018.1,1420.6 1993.8,1425.8 1972.9,1430.5 1955.2,1434.8 1940.6,1438.7 1929.1,1442.2 1920.5,1445.3 1915.0,1448.1 1912.3,1450.5 1912.5,1452.5 1915.7,1454.2 1921.7,1455.6 1930.8,1456.6 1942.8,1457.3 1957.9,1457.7 1976.1,1457.8 1997.5,1457.5 2022.3,1456.9 2050.6,1456.0 2082.4,1454.7 2118.0,1453.1 2157.6,1451.1 2201.2,1448.7 2249.2,1445.9 2301.7,1442.7 2358.9,1439.1 2421.1,1435.0 2488.6,1430.4 2561.6,1425.3  Z" style="stroke-width: 2.0;  stroke: rgb(82,82,82); fill: rgb(116,196,118); opacity: 0.333;" />
<path d="M 2561.626,1425.308 A 1064.250,1064.250 0.00 0,1 2564.1,1484.9 L 2564.1,1484.9 2490.2,1484.9 2420.4,1482.7 2354.3,1478.6 2291.9,1472.9 2232.7,1465.7 2176.5,1457.3 2123.1,1447.7 2072.3,1437.1 2023.8,1425.7 1977.4,1413.6 1932.9,1400.9 1890.1,1387.6 1848.8,1373.8 1808.7,1359.7 1769.8,1345.1 1731.7,1330.2 1694.5,1314.9 1657.8,1299.2 1621.6,1283.2 1585.6,1266.6 1549.8,1249.6 1514.1,1231.9 1478.2,1213.5 1442.2,1194.4 1405.8,1174.2 1369.0,1153.0 1331.6,1130.6 1293.7,1106.7 1255.0,1081.2 1215.7,1053.8 1175.5,1024.4 1134.4,992.7 1092.4,958.4 1049.4,921.2 1005.5,881.0 960.5,837.2 914.4,789.7 867.4,738.1 819.2,682.0  A 1064.250,1064.250 0.00 0,0 774.5,721.4 L 774.5,721.4 825.7,774.7 875.6,823.6 924.2,868.5 971.6,909.6 1017.7,947.4 1062.7,982.1 1106.5,1014.0 1149.3,1043.3 1191.1,1070.5 1232.0,1095.6 1272.0,1118.9 1311.2,1140.6 1349.7,1160.9 1387.7,1180.0 1425.1,1198.1 1462.2,1215.2 1499.0,1231.5 1535.7,1247.2 1572.4,1262.2 1609.2,1276.7 1646.3,1290.7 1683.8,1304.3 1721.8,1317.5 1760.6,1330.2 1800.4,1342.6 1841.1,1354.5 1883.2,1365.9 1926.7,1376.7 1971.8,1387.0 2018.8,1396.5 2067.9,1405.1 2119.2,1412.8 2173.1,1419.4 2229.6,1424.7 2289.1,1428.6 2351.8,1430.8 2418.0,1431.1 2487.8,1429.4 2561.6,1425.3  Z" style="stroke-width: 2.0;  stroke: rgb(82,82,82); fill: rgb(255,204,204); opacity: 0.333;" />
</g>
<defs>
<pattern id="vline" width="10" height="10" patternTransform="rotate(0 0 0)" patternUnits="userSpaceOnUse"><line x1="0" y1="0" x2="0" y2="10" style="stroke:black;stroke-width:5" /></pattern>
<pattern id="vline-sparse" width="10" height="10" patternTransform="rotate(0 0 0)" patternUnits="userSpaceOnUse"><line x1="0" y1="0" x2="0" y2="10" style="stroke:black;stroke-width:2" /></pattern>
<pattern id="hline-sparse" width="10" height="10" patternTransform="rotate(0 0 0)" patternUnits="userSpaceOnUse"><line x1="0" y1="0" x2="10" y2="0" style="stroke:black;stroke-width:2" /></pattern>
<pattern id="checker" width="10" height="10" patternTransform="rotate(45 0 0)" patternUnits="userSpaceOnUse"><line x1="0" y1="0" x2="10" y2="0" style="stroke:black;stroke-width:5" /><line x1="0" y1="0" x2="0" y2="10" style="stroke:black;stroke-width:4" /></pattern>
<pattern id="hline" width="10" height="10" patternTransform="rotate(0 0 0)" patternUnits="userSpaceOnUse"><line x1="0" y1="0" x2="10" y2="0" style="stroke:black;stroke-width:5" /></pattern>
<pattern id="checker" width="10" height="10" patternTransform="rotate(45 0 0)" patternUnits="userSpaceOnUse"><line x1="0" y1="0" x2="10" y2="0" style="stroke:black;stroke-width:2" /><line x1="0" y1="0" x2="0" y2="10" style="stroke:black;stroke-width:2" /></pattern>
</defs>
</svg>
