<?xml version="1.0" encoding="utf-8" standalone="no"?>
<!DOCTYPE svg PUBLIC "-//W3C//DTD SVG 1.1//EN" "http://www.w3.org/Graphics/SVG/1.1/DTD/svg11.dtd">
<svg width="3000px" height="3000px" version="1.1" xmlns="http://www.w3.org/2000/svg" xmlns:xlink="http://www.w3.org/1999/xlink">
<g id="bg">
<rect x="0" y="0" width="3000px" height="3000px" style="fill:rgb(255,255,255);"/>
</g>
<g id="ideograms">
<path d="M1500.000,425.000 A1075.000,1075.000 40.000 0,1 1560.335,426.694 L1563.141,376.773 A1125.000,1125.000 0.000 0,0 1500.000,375.000 Z" style="stroke-linecap:round;fill:rgb(251,106,74);" />
<text x="1534.1" y="285.5" font-size="18.2px" font-family="CMUBright-Roman" style="text-anchor:middle;fill:rgb(0,0,0);" transform="rotate(361.6,1534.1,285.5)" >AH10.1</text>
<path d="M1600.665,429.724 A1075.000,1075.000 40.000 0,1 1660.576,437.060 L1668.044,387.621 A1125.000,1125.000 0.000 0,0 1605.347,379.943 Z" style="stroke-linecap:round;fill:rgb(251,106,74);" />
<text x="1647.7" y="294.0" font-size="18.2px" font-family="CMUBright-Roman" style="text-anchor:middle;fill:rgb(0,0,0);" transform="rotate(367.0,1647.7,294.0)" >AH10.2</text>
<path d="M1700.445,443.853 A1075.000,1075.000 40.000 0,1 1759.405,456.768 L1771.471,408.245 A1125.000,1125.000 0.000 0,0 1709.768,394.730 Z" style="stroke-linecap:round;fill:rgb(251,106,74);" />
<text x="1760.0" y="313.1" font-size="18.2px" font-family="CMUBright-Roman" style="text-anchor:middle;fill:rgb(0,0,0);" transform="rotate(372.4,1760.0,313.1)" >AH10.3</text>
<path d="M1798.463,467.263 A1075.000,1075.000 40.000 0,1 1855.955,485.643 L1872.511,438.463 A1125.000,1125.000 0.000 0,0 1812.345,419.229 Z" style="stroke-linecap:round;fill:rgb(251,106,74);" />
<text x="1870.0" y="342.7" font-size="18.2px" font-family="CMUBright-Roman" style="text-anchor:middle;fill:rgb(0,0,0);" transform="rotate(377.7,1870.0,342.7)" >AH10.4</text>
<path d="M1893.859,499.750 A1075.000,1075.000 40.000 0,1 1949.377,523.432 L1970.279,478.010 A1125.000,1125.000 0.000 0,0 1912.178,453.227 Z" style="stroke-linecap:round;fill:rgb(251,106,74);" />
<text x="1976.7" y="382.4" font-size="18.2px" font-family="CMUBright-Roman" style="text-anchor:middle;fill:rgb(0,0,0);" transform="rotate(383.1,1976.7,382.4)" >AH10.5</text>
<path d="M1985.793,541.026 A1075.000,1075.000 40.000 0,1 2038.850,569.803 L2063.913,526.538 A1125.000,1125.000 0.000 0,0 2008.388,496.423 Z" style="stroke-linecap:round;fill:rgb(251,106,74);" />
<text x="2079.3" y="432.0" font-size="18.2px" font-family="CMUBright-Roman" style="text-anchor:middle;fill:rgb(0,0,0);" transform="rotate(388.5,2079.3,432.0)" >AH10.11</text>
<path d="M2073.458,590.731 A1075.000,1075.000 40.000 0,1 2123.587,624.349 L2152.591,583.621 A1125.000,1125.000 0.000 0,0 2100.130,548.439 Z" style="stroke-linecap:round;fill:rgb(251,106,74);" />
<text x="2176.7" y="490.9" font-size="18.2px" font-family="CMUBright-Roman" style="text-anchor:middle;fill:rgb(0,0,0);" transform="rotate(393.8,2176.7,490.9)" >AH10.12</text>
<path d="M2156.084,648.425 A1075.000,1075.000 40.000 0,1 2202.844,686.591 L2235.535,648.758 A1125.000,1125.000 0.000 0,0 2186.599,608.817 Z" style="stroke-linecap:round;fill:rgb(251,106,74);" />
<text x="2268.3" y="558.7" font-size="18.2px" font-family="CMUBright-Roman" style="text-anchor:middle;fill:rgb(0,0,0);" transform="rotate(399.2,2268.3,558.7)" >AH12.1</text>
<path d="M2232.943,713.604 A1075.000,1075.000 40.000 0,1 2275.925,755.980 L2312.015,721.375 A1125.000,1125.000 0.000 0,0 2267.034,677.027 Z" style="stroke-linecap:round;fill:rgb(251,106,74);" />
<text x="2353.0" y="634.8" font-size="18.2px" font-family="CMUBright-Roman" style="text-anchor:middle;fill:rgb(0,0,0);" transform="rotate(404.6,2353.0,634.8)" >AH12.2</text>
<path d="M2303.362,785.693 A1075.000,1075.000 40.000 0,1 2342.187,831.908 L2381.358,800.834 A1125.000,1125.000 0.000 0,0 2340.728,752.470 Z" style="stroke-linecap:round;fill:rgb(251,106,74);" />
<text x="2430.3" y="718.5" font-size="18.2px" font-family="CMUBright-Roman" style="text-anchor:middle;fill:rgb(0,0,0);" transform="rotate(410.0,2430.3,718.5)" >AH12.3</text>
<path d="M2366.721,864.060 A1075.000,1075.000 40.000 0,1 2401.047,913.707 L2442.956,886.438 A1125.000,1125.000 0.000 0,0 2407.034,834.481 Z" style="stroke-linecap:round;fill:rgb(251,106,74);" />
<text x="2499.4" y="809.0" font-size="18.2px" font-family="CMUBright-Roman" style="text-anchor:middle;fill:rgb(0,0,0);" transform="rotate(415.3,2499.4,809.0)" >AH12.4</text>
<path d="M2422.463,948.015 A1075.000,1075.000 40.000 0,1 2451.989,1000.659 L2496.268,977.434 A1125.000,1125.000 0.000 0,0 2465.368,922.342 Z" style="stroke-linecap:round;fill:rgb(251,106,74);" />
<text x="2559.7" y="905.6" font-size="18.2px" font-family="CMUBright-Roman" style="text-anchor:middle;fill:rgb(0,0,0);" transform="rotate(420.7,2559.7,905.6)" >AH12.5</text>
<path d="M2470.098,1036.821 A1075.000,1075.000 40.000 0,1 2494.565,1091.999 L2540.824,1073.022 A1125.000,1125.000 0.000 0,0 2515.219,1015.278 Z" style="stroke-linecap:round;fill:rgb(251,106,74);" />
<text x="2610.7" y="1007.5" font-size="18.2px" font-family="CMUBright-Roman" style="text-anchor:middle;fill:rgb(0,0,0);" transform="rotate(426.1,2610.7,1007.5)" >AH12.6</text>
<path d="M2509.208,1129.698 A1075.000,1075.000 40.000 0,1 2528.401,1186.924 L2576.234,1172.363 A1125.000,1125.000 0.000 0,0 2556.148,1112.475 Z" style="stroke-linecap:round;fill:rgb(255,244,80);" />
<text x="2651.9" y="1113.7" font-size="18.2px" font-family="CMUBright-Roman" style="text-anchor:middle;fill:rgb(0,0,0);" transform="rotate(431.5,2651.9,1113.7)" >CF10.1</text>
<path d="M2539.450,1225.829 A1075.000,1075.000 40.000 0,1 2553.199,1284.601 L2602.185,1274.582 A1125.000,1125.000 0.000 0,0 2587.796,1213.077 Z" style="stroke-linecap:round;fill:rgb(255,244,80);" />
<text x="2683.1" y="1223.2" font-size="18.2px" font-family="CMUBright-Roman" style="text-anchor:middle;fill:rgb(0,0,0);" transform="rotate(436.8,2683.1,1223.2)" >CF10.4</text>
<path d="M2560.556,1324.369 A1075.000,1075.000 40.000 0,1 2568.742,1384.170 L2618.450,1378.783 A1125.000,1125.000 0.000 0,0 2609.884,1316.200 Z" style="stroke-linecap:round;fill:rgb(255,244,80);" />
<text x="2703.8" y="1335.2" font-size="18.2px" font-family="CMUBright-Roman" style="text-anchor:middle;fill:rgb(0,0,0);" transform="rotate(442.2,2703.8,1335.2)" >CF10.5</text>
<path d="M2572.342,1424.453 A1075.000,1075.000 40.000 0,1 2574.892,1484.758 L2624.887,1484.049 A1125.000,1125.000 0.000 0,0 2622.219,1420.939 Z" style="stroke-linecap:round;fill:rgb(0,0,0);" />
<text x="2713.9" y="1448.7" font-size="18.2px" font-family="CMUBright-Roman" style="text-anchor:middle;fill:rgb(0,0,0);" transform="rotate(447.6,2713.9,1448.7)" >JFF12.3</text>
<path d="M2574.705,1525.201 A1075.000,1075.000 40.000 0,1 2571.596,1585.479 L2621.438,1589.455 A1125.000,1125.000 0.000 0,0 2624.691,1526.373 Z" style="stroke-linecap:round;fill:rgb(0,0,0);" />
<text x="2727.4" y="1563.3" font-size="18.2px" font-family="CMUBright-Roman" style="text-anchor:middle;fill:rgb(0,0,0);" transform="rotate(-87.0,2727.4,1563.3)" >JFF12.4</text>
<path d="M2567.622,1625.727 A1075.000,1075.000 40.000 0,1 2558.883,1685.450 L2608.133,1694.075 A1125.000,1125.000 0.000 0,0 2617.279,1631.575 Z" style="stroke-linecap:round;fill:rgb(0,0,0);" />
<text x="2716.0" y="1677.9" font-size="18.2px" font-family="CMUBright-Roman" style="text-anchor:middle;fill:rgb(0,0,0);" transform="rotate(-81.7,2716.0,1677.9)" >JFF12.13</text>
<path d="M2551.158,1725.148 A1075.000,1075.000 40.000 0,1 2536.865,1783.790 L2585.091,1796.990 A1125.000,1125.000 0.000 0,0 2600.049,1735.620 Z" style="stroke-linecap:round;fill:rgb(0,0,0);" />
<text x="2694.0" y="1791.0" font-size="18.2px" font-family="CMUBright-Roman" style="text-anchor:middle;fill:rgb(0,0,0);" transform="rotate(-76.3,2694.0,1791.0)" >JFF12.18</text>
<path d="M2525.456,1822.591 A1075.000,1075.000 40.000 0,1 2505.734,1879.637 L2552.512,1897.294 A1125.000,1125.000 0.000 0,0 2573.152,1837.595 Z" style="stroke-linecap:round;fill:rgb(0,0,0);" />
<text x="2661.5" y="1901.6" font-size="18.2px" font-family="CMUBright-Roman" style="text-anchor:middle;fill:rgb(0,0,0);" transform="rotate(-70.9,2661.5,1901.6)" >JFF12.19</text>
<path d="M2490.742,1917.199 A1075.000,1075.000 40.000 0,1 2465.765,1972.147 L2510.684,1994.107 A1125.000,1125.000 0.000 0,0 2536.823,1936.603 Z" style="stroke-linecap:round;fill:rgb(0,0,0);" />
<text x="2618.8" y="2008.6" font-size="18.2px" font-family="CMUBright-Roman" style="text-anchor:middle;fill:rgb(0,0,0);" transform="rotate(-65.6,2618.8,2008.6)" >JFF12.25</text>
<path d="M2447.322,2008.140 A1075.000,1075.000 40.000 0,1 2417.309,2060.508 L2459.974,2086.578 A1125.000,1125.000 0.000 0,0 2491.383,2031.775 Z" style="stroke-linecap:round;fill:rgb(0,0,0);" />
<text x="2566.3" y="2111.1" font-size="18.2px" font-family="CMUBright-Roman" style="text-anchor:middle;fill:rgb(0,0,0);" transform="rotate(-60.2,2566.3,2111.1)" >JFF12.28</text>
<path d="M2395.576,2094.616 A1075.000,1075.000 40.000 0,1 2360.791,2143.943 L2400.828,2173.894 A1125.000,1125.000 0.000 0,0 2437.231,2122.273 Z" style="stroke-linecap:round;fill:rgb(0,0,0);" />
<text x="2504.4" y="2208.3" font-size="18.2px" font-family="CMUBright-Roman" style="text-anchor:middle;fill:rgb(0,0,0);" transform="rotate(-54.8,2504.4,2208.3)" >JFF12.29</text>
<path d="M2335.960,2175.866 A1075.000,1075.000 40.000 0,1 2296.709,2221.720 L2333.766,2255.288 A1125.000,1125.000 0.000 0,0 2374.842,2207.302 Z" style="stroke-linecap:round;fill:rgb(0,0,0);" />
<text x="2433.6" y="2299.2" font-size="18.2px" font-family="CMUBright-Roman" style="text-anchor:middle;fill:rgb(0,0,0);" transform="rotate(-49.4,2433.6,2299.2)" >JFF12.31</text>
<path d="M2268.998,2251.177 A1075.000,1075.000 40.000 0,1 2225.626,2293.153 L2259.376,2330.044 A1125.000,1125.000 0.000 0,0 2304.765,2286.116 Z" style="stroke-linecap:round;fill:rgb(0,0,0);" />
<text x="2354.7" y="2383.1" font-size="18.2px" font-family="CMUBright-Roman" style="text-anchor:middle;fill:rgb(0,0,0);" transform="rotate(-44.1,2354.7,2383.1)" >JFF12.32</text>
<path d="M2195.278,2319.887 A1075.000,1075.000 40.000 0,1 2148.165,2357.617 L2178.312,2397.506 A1125.000,1125.000 0.000 0,0 2227.616,2358.021 Z" style="stroke-linecap:round;fill:rgb(0,0,0);" />
<text x="2268.3" y="2459.3" font-size="18.2px" font-family="CMUBright-Roman" style="text-anchor:middle;fill:rgb(0,0,0);" transform="rotate(-38.7,2268.3,2459.3)" >JFF12.36</text>
<path d="M2115.447,2381.391 A1075.000,1075.000 40.000 0,1 2065.009,2414.544 L2091.288,2457.081 A1125.000,1125.000 0.000 0,0 2144.073,2422.386 Z" style="stroke-linecap:round;fill:rgb(0,0,0);" />
<text x="2175.0" y="2527.0" font-size="18.2px" font-family="CMUBright-Roman" style="text-anchor:middle;fill:rgb(0,0,0);" transform="rotate(-33.3,2175.0,2527.0)" >JFF12.39</text>
<path d="M2030.208,2435.149 A1075.000,1075.000 40.000 0,1 1976.887,2463.433 L1999.067,2508.244 A1125.000,1125.000 0.000 0,0 2054.869,2478.645 Z" style="stroke-linecap:round;fill:rgb(0,0,0);" />
<text x="2075.9" y="2585.7" font-size="18.2px" font-family="CMUBright-Roman" style="text-anchor:middle;fill:rgb(0,0,0);" transform="rotate(-27.9,2075.9,2585.7)" >JFF12.43</text>
<path d="M1940.310,2480.690 A1075.000,1075.000 40.000 0,1 1884.574,2503.857 L1902.461,2550.548 A1125.000,1125.000 0.000 0,0 1960.789,2526.303 Z" style="stroke-linecap:round;fill:rgb(0,0,0);" />
<text x="1971.7" y="2634.9" font-size="18.2px" font-family="CMUBright-Roman" style="text-anchor:middle;fill:rgb(0,0,0);" transform="rotate(-22.6,1971.7,2634.9)" >JFF12.45</text>
<path d="M1846.542,2517.612 A1075.000,1075.000 40.000 0,1 1788.881,2535.458 L1802.318,2583.618 A1125.000,1125.000 0.000 0,0 1862.660,2564.943 Z" style="stroke-linecap:round;fill:rgb(0,0,0);" />
<text x="1863.4" y="2674.1" font-size="18.2px" font-family="CMUBright-Roman" style="text-anchor:middle;fill:rgb(0,0,0);" transform="rotate(-17.2,1863.4,2674.1)" >JFF12.46</text>
<path d="M1749.728,2545.591 A1075.000,1075.000 40.000 0,1 1690.650,2557.959 L1699.518,2607.167 A1125.000,1125.000 0.000 0,0 1761.344,2594.223 Z" style="stroke-linecap:round;fill:rgb(0,0,0);" />
<text x="1751.8" y="2702.9" font-size="18.2px" font-family="CMUBright-Roman" style="text-anchor:middle;fill:rgb(0,0,0);" transform="rotate(-11.8,1751.8,2702.9)" >JFF12.50</text>
<path d="M1650.720,2564.382 A1075.000,1075.000 40.000 0,1 1590.744,2571.163 L1594.964,2620.985 A1125.000,1125.000 0.000 0,0 1657.730,2613.888 Z" style="stroke-linecap:round;fill:rgb(0,0,0);" />
<text x="1638.1" y="2721.2" font-size="18.2px" font-family="CMUBright-Roman" style="text-anchor:middle;fill:rgb(0,0,0);" transform="rotate(-6.5,1638.1,2721.2)" >JFF12.52</text>
<path d="M1550.388,2573.818 A1075.000,1075.000 40.000 0,1 1490.040,2574.954 L1489.576,2624.952 A1125.000,1125.000 0.000 0,0 1552.731,2623.764 Z" style="stroke-linecap:round;fill:rgb(0,0,0);" />
<text x="1523.1" y="2729.8" font-size="18.2px" font-family="CMUBright-Roman" style="text-anchor:middle;fill:rgb(0,0,0);" transform="rotate(-1.1,1523.1,2729.8)" >SS10.1</text>
<path d="M1449.612,2573.818 A1075.000,1075.000 40.000 0,1 1389.423,2569.298 L1384.280,2619.033 A1125.000,1125.000 0.000 0,0 1447.269,2623.764 Z" style="stroke-linecap:round;fill:rgb(0,0,0);" />
<text x="1407.9" y="2726.5" font-size="18.2px" font-family="CMUBright-Roman" style="text-anchor:middle;fill:rgb(0,0,0);" transform="rotate(4.3,1407.9,2726.5)" >SS10.2</text>
<path d="M1349.280,2564.382 A1075.000,1075.000 40.000 0,1 1289.778,2554.245 L1280.001,2603.279 A1125.000,1125.000 0.000 0,0 1342.270,2613.888 Z" style="stroke-linecap:round;fill:rgb(0,0,0);" />
<text x="1293.4" y="2712.5" font-size="18.2px" font-family="CMUBright-Roman" style="text-anchor:middle;fill:rgb(0,0,0);" transform="rotate(9.7,1293.4,2712.5)" >SS10.3</text>
<path d="M1250.272,2545.591 A1075.000,1075.000 40.000 0,1 1191.981,2529.927 L1177.655,2577.830 A1125.000,1125.000 0.000 0,0 1238.656,2594.223 Z" style="stroke-linecap:round;fill:rgb(0,0,0);" />
<text x="1180.8" y="2687.9" font-size="18.2px" font-family="CMUBright-Roman" style="text-anchor:middle;fill:rgb(0,0,0);" transform="rotate(15.0,1180.8,2687.9)" >SS10.4</text>
<path d="M1153.458,2517.612 A1075.000,1075.000 40.000 0,1 1096.891,2496.558 L1078.141,2542.910 A1125.000,1125.000 0.000 0,0 1137.340,2564.943 Z" style="stroke-linecap:round;fill:rgb(0,0,0);" />
<text x="1071.0" y="2652.7" font-size="18.2px" font-family="CMUBright-Roman" style="text-anchor:middle;fill:rgb(0,0,0);" transform="rotate(20.4,1071.0,2652.7)" >SS10.5</text>
<path d="M1059.690,2480.690 A1075.000,1075.000 40.000 0,1 1005.343,2454.431 L982.335,2498.823 A1125.000,1125.000 0.000 0,0 1039.211,2526.303 Z" style="stroke-linecap:round;fill:rgb(0,0,0);" />
<text x="964.9" y="2607.5" font-size="18.2px" font-family="CMUBright-Roman" style="text-anchor:middle;fill:rgb(0,0,0);" transform="rotate(25.8,964.9,2607.5)" >SS10.6</text>
<path d="M969.792,2435.149 A1075.000,1075.000 40.000 0,1 918.142,2403.917 L891.079,2445.960 A1125.000,1125.000 0.000 0,0 945.131,2478.645 Z" style="stroke-linecap:round;fill:rgb(0,0,0);" />
<text x="863.5" y="2552.5" font-size="18.2px" font-family="CMUBright-Roman" style="text-anchor:middle;fill:rgb(0,0,0);" transform="rotate(31.2,863.5,2552.5)" >SS10.7</text>
<path d="M884.553,2381.391 A1075.000,1075.000 40.000 0,1 836.054,2345.459 L805.173,2384.783 A1125.000,1125.000 0.000 0,0 855.927,2422.386 Z" style="stroke-linecap:round;fill:rgb(0,0,0);" />
<text x="767.8" y="2488.3" font-size="18.2px" font-family="CMUBright-Roman" style="text-anchor:middle;fill:rgb(0,0,0);" transform="rotate(36.5,767.8,2488.3)" >SS10.8</text>
<path d="M804.722,2319.887 A1075.000,1075.000 40.000 0,1 759.802,2279.571 L725.374,2315.831 A1125.000,1125.000 0.000 0,0 772.384,2358.021 Z" style="stroke-linecap:round;fill:rgb(0,0,0);" />
<text x="678.5" y="2415.4" font-size="18.2px" font-family="CMUBright-Roman" style="text-anchor:middle;fill:rgb(0,0,0);" transform="rotate(41.9,678.5,2415.4)" >SS11.1</text>
<path d="M731.002,2251.177 A1075.000,1075.000 40.000 0,1 690.054,2206.833 L652.382,2239.709 A1125.000,1125.000 0.000 0,0 695.235,2286.116 Z" style="stroke-linecap:round;fill:rgb(0,0,0);" />
<text x="596.3" y="2334.4" font-size="18.2px" font-family="CMUBright-Roman" style="text-anchor:middle;fill:rgb(0,0,0);" transform="rotate(47.3,596.3,2334.4)" >SS11.3</text>
<path d="M664.040,2175.866 A1075.000,1075.000 40.000 0,1 627.424,2127.882 L586.839,2157.086 A1125.000,1125.000 0.000 0,0 625.158,2207.302 Z" style="stroke-linecap:round;fill:rgb(0,0,0);" />
<text x="522.2" y="2246.2" font-size="18.2px" font-family="CMUBright-Roman" style="text-anchor:middle;fill:rgb(0,0,0);" transform="rotate(52.7,522.2,2246.2)" >SS11.4</text>
<path d="M604.424,2094.616 A1075.000,1075.000 40.000 0,1 572.462,2043.414 L529.321,2068.689 A1125.000,1125.000 0.000 0,0 562.769,2122.273 Z" style="stroke-linecap:round;fill:rgb(0,0,0);" />
<text x="456.6" y="2151.3" font-size="18.2px" font-family="CMUBright-Roman" style="text-anchor:middle;fill:rgb(0,0,0);" transform="rotate(58.0,456.6,2151.3)" >SS11.5</text>
<path d="M552.678,2008.140 A1075.000,1075.000 40.000 0,1 525.652,1954.170 L480.333,1975.294 A1125.000,1125.000 0.000 0,0 508.617,2031.775 Z" style="stroke-linecap:round;fill:rgb(0,0,0);" />
<text x="400.2" y="2050.7" font-size="18.2px" font-family="CMUBright-Roman" style="text-anchor:middle;fill:rgb(0,0,0);" transform="rotate(63.4,400.2,2050.7)" >SS11.6</text>
<path d="M509.258,1917.199 A1075.000,1075.000 40.000 0,1 487.404,1860.935 L440.306,1877.723 A1125.000,1125.000 0.000 0,0 463.177,1936.603 Z" style="stroke-linecap:round;fill:rgb(0,0,0);" />
<text x="353.5" y="1945.3" font-size="18.2px" font-family="CMUBright-Roman" style="text-anchor:middle;fill:rgb(0,0,0);" transform="rotate(68.8,353.5,1945.3)" >SS11.7</text>
<path d="M474.544,1822.591 A1075.000,1075.000 40.000 0,1 458.055,1764.528 L409.592,1776.832 A1125.000,1125.000 0.000 0,0 426.848,1837.595 Z" style="stroke-linecap:round;fill:rgb(0,0,0);" />
<text x="316.8" y="1836.0" font-size="18.2px" font-family="CMUBright-Roman" style="text-anchor:middle;fill:rgb(0,0,0);" transform="rotate(74.1,316.8,1836.0)" >SS11.8</text>
<path d="M448.842,1725.148 A1075.000,1075.000 40.000 0,1 437.862,1665.797 L388.461,1673.508 A1125.000,1125.000 0.000 0,0 399.951,1735.620 Z" style="stroke-linecap:round;fill:rgb(0,0,0);" />
<text x="290.5" y="1723.7" font-size="18.2px" font-family="CMUBright-Roman" style="text-anchor:middle;fill:rgb(0,0,0);" transform="rotate(79.5,290.5,1723.7)" >SS11.9</text>
<path d="M432.378,1625.727 A1075.000,1075.000 40.000 0,1 427.004,1565.608 L377.097,1568.659 A1125.000,1125.000 0.000 0,0 382.721,1631.575 Z" style="stroke-linecap:round;fill:rgb(0,0,0);" />
<text x="274.9" y="1609.5" font-size="18.2px" font-family="CMUBright-Roman" style="text-anchor:middle;fill:rgb(0,0,0);" transform="rotate(84.9,274.9,1609.5)" >SS11.10</text>
<path d="M425.295,1525.201 A1075.000,1075.000 40.000 0,1 425.575,1464.843 L375.602,1463.207 A1125.000,1125.000 0.000 0,0 375.309,1526.373 Z" style="stroke-linecap:round;fill:rgb(0,0,0);" />
<text x="285.0" y="1494.4" font-size="18.2px" font-family="CMUBright-Roman" style="text-anchor:middle;fill:rgb(0,0,0);" transform="rotate(-89.7,285.0,1494.4)" >SS11.11</text>
<path d="M427.658,1424.453 A1075.000,1075.000 40.000 0,1 433.588,1364.386 L383.988,1358.079 A1125.000,1125.000 0.000 0,0 377.781,1420.939 Z" style="stroke-linecap:round;fill:rgb(0,0,0);" />
<text x="290.9" y="1380.6" font-size="18.2px" font-family="CMUBright-Roman" style="text-anchor:middle;fill:rgb(0,0,0);" transform="rotate(-84.4,290.9,1380.6)" >SS11.12</text>
<path d="M439.444,1324.369 A1075.000,1075.000 40.000 0,1 450.973,1265.122 L402.181,1254.197 A1125.000,1125.000 0.000 0,0 390.116,1316.200 Z" style="stroke-linecap:round;fill:rgb(0,0,0);" />
<text x="307.4" y="1267.9" font-size="18.2px" font-family="CMUBright-Roman" style="text-anchor:middle;fill:rgb(0,0,0);" transform="rotate(-79.0,307.4,1267.9)" >SS11.14</text>
<path d="M460.550,1225.829 A1075.000,1075.000 40.000 0,1 477.577,1167.922 L430.022,1152.476 A1125.000,1125.000 0.000 0,0 412.204,1213.077 Z" style="stroke-linecap:round;fill:rgb(0,0,0);" />
<text x="334.3" y="1157.3" font-size="18.2px" font-family="CMUBright-Roman" style="text-anchor:middle;fill:rgb(0,0,0);" transform="rotate(-73.6,334.3,1157.3)" >SS11.15</text>
<path d="M490.792,1129.698 A1075.000,1075.000 40.000 0,1 513.166,1073.640 L467.267,1053.809 A1125.000,1125.000 0.000 0,0 443.852,1112.475 Z" style="stroke-linecap:round;fill:rgb(0,0,0);" />
<text x="371.6" y="1049.6" font-size="18.2px" font-family="CMUBright-Roman" style="text-anchor:middle;fill:rgb(0,0,0);" transform="rotate(-68.2,371.6,1049.6)" >SS11.16</text>
<path d="M529.902,1036.821 A1075.000,1075.000 40.000 0,1 557.427,983.104 L513.586,959.063 A1125.000,1125.000 0.000 0,0 484.781,1015.278 Z" style="stroke-linecap:round;fill:rgb(0,0,0);" />
<text x="418.7" y="945.9" font-size="18.2px" font-family="CMUBright-Roman" style="text-anchor:middle;fill:rgb(0,0,0);" transform="rotate(-62.9,418.7,945.9)" >SS11.17</text>
<path d="M577.537,948.015 A1075.000,1075.000 40.000 0,1 609.972,897.112 L568.575,869.070 A1125.000,1125.000 0.000 0,0 534.632,922.342 Z" style="stroke-linecap:round;fill:rgb(0,0,0);" />
<text x="475.3" y="847.1" font-size="18.2px" font-family="CMUBright-Roman" style="text-anchor:middle;fill:rgb(0,0,0);" transform="rotate(-57.5,475.3,847.1)" >SS11.18</text>
<path d="M633.279,864.060 A1075.000,1075.000 40.000 0,1 670.338,816.417 L631.749,784.623 A1125.000,1125.000 0.000 0,0 592.966,834.481 Z" style="stroke-linecap:round;fill:rgb(0,0,0);" />
<text x="541.0" y="754.0" font-size="18.2px" font-family="CMUBright-Roman" style="text-anchor:middle;fill:rgb(0,0,0);" transform="rotate(-52.1,541.0,754.0)" >SS11.19</text>
<path d="M696.638,785.693 A1075.000,1075.000 40.000 0,1 737.995,741.730 L702.553,706.462 A1125.000,1125.000 0.000 0,0 659.272,752.470 Z" style="stroke-linecap:round;fill:rgb(0,0,0);" />
<text x="615.0" y="667.5" font-size="18.2px" font-family="CMUBright-Roman" style="text-anchor:middle;fill:rgb(0,0,0);" transform="rotate(-46.7,615.0,667.5)" >SS11.20</text>
<path d="M767.057,713.604 A1075.000,1075.000 40.000 0,1 812.349,673.707 L780.365,635.274 A1125.000,1125.000 0.000 0,0 732.966,677.027 Z" style="stroke-linecap:round;fill:rgb(0,0,0);" />
<text x="696.9" y="588.3" font-size="18.2px" font-family="CMUBright-Roman" style="text-anchor:middle;fill:rgb(0,0,0);" transform="rotate(-41.4,696.9,588.3)" >SS11.21</text>
<path d="M843.916,648.425 A1075.000,1075.000 40.000 0,1 892.746,612.945 L864.501,571.686 A1125.000,1125.000 0.000 0,0 813.401,608.817 Z" style="stroke-linecap:round;fill:rgb(0,0,0);" />
<text x="785.8" y="517.1" font-size="18.2px" font-family="CMUBright-Roman" style="text-anchor:middle;fill:rgb(0,0,0);" transform="rotate(-36.0,785.8,517.1)" >TB11.1</text>
<path d="M926.542,590.731 A1075.000,1075.000 40.000 0,1 978.479,559.978 L954.222,516.256 A1125.000,1125.000 0.000 0,0 899.870,548.439 Z" style="stroke-linecap:round;fill:rgb(0,0,0);" />
<text x="881.0" y="454.5" font-size="18.2px" font-family="CMUBright-Roman" style="text-anchor:middle;fill:rgb(0,0,0);" transform="rotate(-30.6,881.0,454.5)" >TB11.2</text>
<path d="M1014.207,541.026 A1075.000,1075.000 40.000 0,1 1068.796,515.273 L1048.740,469.471 A1125.000,1125.000 0.000 0,0 991.612,496.423 Z" style="stroke-linecap:round;fill:rgb(0,0,0);" />
<text x="981.6" y="401.1" font-size="18.2px" font-family="CMUBright-Roman" style="text-anchor:middle;fill:rgb(0,0,0);" transform="rotate(-25.3,981.6,401.1)" >TB11.3</text>
<path d="M1106.141,499.750 A1075.000,1075.000 40.000 0,1 1162.902,479.221 L1147.223,431.743 A1125.000,1125.000 0.000 0,0 1087.822,453.227 Z" style="stroke-linecap:round;fill:rgb(0,0,0);" />
<text x="1086.8" y="357.4" font-size="18.2px" font-family="CMUBright-Roman" style="text-anchor:middle;fill:rgb(0,0,0);" transform="rotate(-19.9,1086.8,357.4)" >TB11.6</text>
<path d="M1201.537,467.263 A1075.000,1075.000 40.000 0,1 1259.970,452.140 L1248.806,403.402 A1125.000,1125.000 0.000 0,0 1187.655,419.229 Z" style="stroke-linecap:round;fill:rgb(0,0,0);" />
<text x="1195.6" y="323.8" font-size="18.2px" font-family="CMUBright-Roman" style="text-anchor:middle;fill:rgb(0,0,0);" transform="rotate(-14.5,1195.6,323.8)" >TB12.1</text>
<path d="M1299.555,443.853 A1075.000,1075.000 40.000 0,1 1359.148,434.267 L1352.597,384.699 A1125.000,1125.000 0.000 0,0 1290.232,394.730 Z" style="stroke-linecap:round;fill:rgb(0,0,0);" />
<text x="1307.1" y="300.4" font-size="18.2px" font-family="CMUBright-Roman" style="text-anchor:middle;fill:rgb(0,0,0);" transform="rotate(-9.1,1307.1,300.4)" >TB12.2</text>
<path d="M1399.335,429.724 A1075.000,1075.000 40.000 0,1 1459.564,425.761 L1457.683,375.796 A1125.000,1125.000 0.000 0,0 1394.653,379.943 Z" style="stroke-linecap:round;fill:rgb(0,0,0);" />
<text x="1420.2" y="287.6" font-size="18.2px" font-family="CMUBright-Roman" style="text-anchor:middle;fill:rgb(0,0,0);" transform="rotate(-3.8,1420.2,287.6)" >TB12.3</text>
</g>
<g id="track_0">
<path d="M 1599.757,440.436 A 1064.250,1064.250 0.00 0,1 1659.0,447.7 L 1659.0,447.7 1649.1,521.4 1641.8,592.2 1636.8,660.2 1633.7,725.5 1632.3,788.4 1632.1,848.9 1632.9,907.1 1634.5,963.3 1636.5,1017.6 1638.8,1070.2 1641.2,1121.1 1643.4,1170.6 1645.3,1218.7 1646.7,1265.8 1647.5,1311.8 1647.6,1357.1 1646.9,1401.6 1645.3,1445.7 1642.8,1489.5 1639.3,1533.0 1634.9,1576.6 1629.4,1620.4 1623.1,1664.5 1615.8,1709.2 1607.7,1754.5 1598.8,1800.7 1589.4,1848.0 1579.3,1896.5 1568.9,1946.4 1558.3,1997.9 1547.7,2051.2 1537.3,2106.4 1527.2,2163.9 1517.8,2223.6 1509.3,2285.9 1501.9,2350.9 1496.1,2418.8 1492.0,2489.9 1490.1,2564.2  A 1064.250,1064.250 0.00 0,0 1549.8,2563.1 L 1549.8,2563.1 1547.5,2488.7 1547.6,2417.6 1549.6,2349.4 1553.3,2284.1 1558.3,2221.5 1564.4,2161.3 1571.2,2103.4 1578.5,2047.7 1586.2,1993.9 1593.9,1941.8 1601.4,1891.4 1608.7,1842.4 1615.5,1794.7 1621.8,1748.1 1627.3,1702.4 1632.1,1657.4 1636.0,1613.0 1638.9,1569.0 1640.9,1525.2 1642.0,1481.5 1642.0,1437.7 1641.1,1393.6 1639.3,1349.0 1636.7,1303.9 1633.3,1257.9 1629.3,1211.0 1624.7,1163.1 1619.7,1113.8 1614.5,1063.1 1609.3,1010.7 1604.2,956.6 1599.5,900.6 1595.4,842.5 1592.2,782.1 1590.1,719.3 1589.5,653.8 1590.7,585.7 1594.0,514.6 1599.8,440.4  Z" style="stroke-width: 2.0;  stroke: rgb(82,82,82); fill: rgb(107,174,214); opacity: 0.333;" />
<path d="M 1599.757,440.436 A 1064.250,1064.250 0.00 0,1 1659.0,447.7 L 1659.0,447.7 1649.0,521.5 1641.7,592.4 1636.7,660.6 1633.5,726.3 1631.9,789.5 1631.5,850.4 1632.0,909.0 1633.2,965.7 1634.8,1020.4 1636.6,1073.3 1638.2,1124.7 1639.6,1174.5 1640.6,1223.0 1641.0,1270.3 1640.6,1316.5 1639.3,1361.9 1637.1,1406.6 1633.8,1450.7 1629.4,1494.4 1623.9,1537.8 1617.2,1581.3 1609.3,1624.8 1600.3,1668.6 1590.2,1712.8 1579.0,1757.7 1566.8,1803.4 1553.7,1850.1 1539.9,1898.0 1525.4,1947.3 1510.5,1998.1 1495.3,2050.7 1479.9,2105.2 1464.7,2161.9 1449.9,2220.9 1435.6,2282.5 1422.3,2346.9 1410.1,2414.2 1399.4,2484.7 1390.5,2558.6  A 1064.250,1064.250 0.00 0,0 1450.0,2563.1 L 1450.0,2563.1 1454.7,2488.8 1461.4,2417.8 1469.8,2349.9 1479.6,2284.9 1490.3,2222.6 1501.9,2162.8 1513.9,2105.4 1526.1,2050.1 1538.4,1996.7 1550.4,1945.1 1562.1,1895.1 1573.3,1846.5 1583.7,1799.2 1593.3,1752.9 1601.9,1707.4 1609.6,1662.7 1616.2,1618.4 1621.6,1574.6 1625.8,1530.8 1628.9,1487.1 1630.8,1443.2 1631.6,1399.0 1631.3,1354.3 1630.1,1308.9 1627.9,1262.7 1624.9,1215.5 1621.2,1167.2 1617.0,1117.5 1612.4,1066.4 1607.7,1013.6 1603.1,959.1 1598.7,902.6 1594.9,844.0 1591.9,783.2 1590.0,720.0 1589.4,654.3 1590.7,585.9 1594.0,514.6 1599.8,440.4  Z" style="stroke-width: 2.0;  stroke: rgb(82,82,82); fill: rgb(0,255,255); opacity: 0.333;" />
<path d="M 1599.757,440.436 A 1064.250,1064.250 0.00 0,1 1659.0,447.7 L 1659.0,447.7 1646.7,520.8 1632.9,590.0 1617.8,655.4 1601.5,717.4 1584.4,776.3 1566.5,832.3 1548.2,885.6 1529.5,936.6 1510.5,985.4 1491.5,1032.2 1472.5,1077.4 1453.6,1121.2 1434.9,1163.6 1416.5,1205.1 1398.3,1245.6 1380.4,1285.5 1362.8,1324.9 1345.5,1363.9 1328.5,1402.8 1311.7,1441.7 1295.0,1480.8 1278.4,1520.2 1261.8,1559.9 1245.0,1600.3 1228.0,1641.3 1210.5,1683.2 1192.4,1725.9 1173.5,1769.6 1153.6,1814.4 1132.5,1860.4 1109.9,1907.6 1085.6,1956.2 1059.4,2006.1 1030.8,2057.5 999.7,2110.3 965.7,2164.6 928.4,2220.5 887.6,2278.0 842.7,2337.0  A 1064.250,1064.250 0.00 0,0 890.6,2372.5 L 890.6,2372.5 932.1,2311.1 969.7,2251.4 1003.8,2193.5 1034.7,2137.4 1062.8,2082.9 1088.4,2030.0 1111.8,1978.7 1133.4,1928.8 1153.2,1880.4 1171.7,1833.3 1189.1,1787.5 1205.5,1742.8 1221.2,1699.1 1236.3,1656.3 1251.1,1614.4 1265.5,1573.2 1279.9,1532.5 1294.3,1492.3 1308.7,1452.4 1323.3,1412.6 1338.2,1372.8 1353.2,1332.8 1368.6,1292.5 1384.2,1251.7 1400.1,1210.2 1416.2,1167.8 1432.5,1124.4 1448.9,1079.7 1465.3,1033.5 1481.7,985.6 1497.8,935.8 1513.7,883.9 1529.0,829.6 1543.7,772.7 1557.5,713.0 1570.3,650.1 1581.7,584.0 1591.6,514.1 1599.8,440.4  Z" style="stroke-width: 2.0;  stroke: rgb(82,82,82); fill: rgb(255,204,204); opacity: 0.333;" />
<path d="M 1599.757,440.436 A 1064.250,1064.250 0.00 0,1 1659.0,447.7 L 1659.0,447.7 1646.8,520.8 1633.0,589.8 1617.9,655.0 1601.7,716.6 1584.7,775.1 1566.8,830.6 1548.5,883.4 1529.7,933.7 1510.6,981.8 1491.4,1028.0 1472.1,1072.4 1452.8,1115.3 1433.6,1156.8 1414.5,1197.3 1395.5,1236.8 1376.8,1275.6 1358.1,1313.8 1339.6,1351.7 1321.2,1389.3 1302.8,1426.9 1284.4,1464.5 1265.9,1502.4 1247.2,1540.6 1228.1,1579.2 1208.6,1618.5 1188.4,1658.4 1167.4,1699.1 1145.4,1740.6 1122.2,1783.1 1097.6,1826.7 1071.4,1871.3 1043.2,1917.0 1012.8,1963.9 979.9,2012.0 944.3,2061.4 905.6,2112.1 863.4,2164.0 817.4,2217.2 767.2,2271.8  A 1064.250,1064.250 0.00 0,0 811.6,2311.6 L 811.6,2311.6 858.6,2254.4 901.6,2198.6 940.8,2144.4 976.6,2091.7 1009.4,2040.4 1039.5,1990.5 1067.2,1941.9 1092.8,1894.7 1116.6,1848.7 1138.7,1803.9 1159.5,1760.1 1179.1,1717.4 1197.8,1675.6 1215.7,1634.6 1233.0,1594.3 1249.9,1554.7 1266.4,1515.5 1282.8,1476.7 1299.0,1438.0 1315.3,1399.5 1331.5,1360.9 1347.9,1322.1 1364.4,1282.8 1381.0,1243.1 1397.7,1202.5 1414.5,1161.1 1431.3,1118.5 1448.2,1074.6 1465.0,1029.2 1481.6,982.0 1497.9,932.9 1513.9,881.6 1529.2,827.9 1543.9,771.5 1557.7,712.2 1570.4,649.7 1581.8,583.7 1591.7,514.1 1599.8,440.4  Z" style="stroke-width: 2.0;  stroke: rgb(82,82,82); fill: rgb(0,0,204); opacity: 0.333;" />
<path d="M 1500.100,435.750 A 1064.250,1064.250 0.00 0,1 1559.7,437.4 L 1559.7,437.4 1556.2,510.7 1554.0,578.7 1553.1,641.9 1553.5,700.3 1555.0,754.4 1557.6,804.4 1561.3,850.4 1566.1,892.8 1571.8,931.6 1578.6,967.2 1586.3,999.6 1594.9,1029.0 1604.6,1055.7 1615.2,1079.6 1626.8,1101.0 1639.4,1120.0 1653.1,1136.6 1667.9,1150.9 1683.8,1163.0 1700.9,1172.9 1719.3,1180.7 1739.1,1186.4 1760.3,1190.0 1783.0,1191.6 1807.4,1191.0 1833.4,1188.3 1861.3,1183.4 1891.2,1176.2 1923.1,1166.8 1957.3,1154.9 1993.9,1140.6 2033.0,1123.6 2074.7,1103.9 2119.4,1081.4 2167.1,1055.8 2218.0,1027.0 2272.3,994.8 2330.3,959.1 2392.0,919.6  A 1064.250,1064.250 0.00 0,0 2358.1,870.5 L 2358.1,870.5 2298.6,913.4 2242.8,952.4 2190.4,987.5 2141.1,1019.1 2095.0,1047.3 2051.7,1072.4 2011.0,1094.4 1973.0,1113.5 1937.3,1129.8 1903.8,1143.6 1872.4,1154.8 1843.0,1163.6 1815.4,1170.1 1789.6,1174.2 1765.3,1176.2 1742.5,1175.9 1721.2,1173.5 1701.1,1168.9 1682.3,1162.1 1664.6,1153.2 1648.0,1142.0 1632.5,1128.6 1617.9,1112.8 1604.2,1094.6 1591.4,1073.8 1579.5,1050.5 1568.4,1024.5 1558.1,995.5 1548.6,963.6 1539.9,928.5 1532.0,890.0 1524.9,848.0 1518.6,802.3 1513.1,752.5 1508.6,698.6 1505.0,640.2 1502.3,577.2 1500.7,509.1 1500.1,435.8  Z" style="stroke-width: 2.0;  stroke: rgb(82,82,82); fill: rgb(0,255,0); opacity: 0.333;" />
<path d="M 1599.757,440.436 A 1064.250,1064.250 0.00 0,1 1659.0,447.7 L 1659.0,447.7 1647.0,520.4 1633.8,588.4 1619.6,652.0 1604.4,711.5 1588.4,767.2 1571.7,819.3 1554.3,868.1 1536.2,913.9 1517.6,956.9 1498.5,997.4 1478.9,1035.6 1458.8,1071.6 1438.2,1105.7 1417.2,1138.1 1395.6,1168.9 1373.5,1198.2 1350.7,1226.3 1327.3,1253.3 1303.2,1279.3 1278.3,1304.3 1252.5,1328.6 1225.6,1352.1 1197.6,1374.9 1168.3,1397.2 1137.7,1419.0 1105.4,1440.2 1071.4,1460.9 1035.5,1481.2 997.4,1501.0 957.0,1520.3 914.1,1539.1 868.4,1557.4 819.6,1575.0 767.6,1592.0 712.0,1608.3 652.6,1623.8 589.1,1638.3 521.2,1651.8 448.5,1664.1  A 1064.250,1064.250 0.00 0,0 459.3,1722.8 L 459.3,1722.8 531.2,1706.4 598.3,1689.1 660.9,1671.0 719.3,1652.3 773.9,1632.9 824.9,1613.0 872.6,1592.7 917.2,1571.9 959.0,1550.7 998.2,1529.2 1035.1,1507.3 1069.9,1485.0 1102.7,1462.4 1133.7,1439.4 1163.1,1416.0 1191.1,1392.1 1217.8,1367.7 1243.2,1342.7 1267.7,1317.0 1291.2,1290.6 1313.8,1263.4 1335.6,1235.1 1356.8,1205.8 1377.2,1175.2 1397.0,1143.3 1416.2,1109.8 1434.9,1074.6 1452.9,1037.5 1470.4,998.3 1487.2,956.8 1503.3,912.8 1518.8,866.0 1533.4,816.3 1547.2,763.3 1560.1,706.9 1571.9,646.7 1582.5,582.4 1591.9,513.7 1599.8,440.4  Z" style="stroke-width: 2.0;  stroke: rgb(82,82,82); fill: rgb(204,255,0); opacity: 0.333;" />
<path d="M 1599.757,440.436 A 1064.250,1064.250 0.00 0,1 1659.0,447.7 L 1659.0,447.7 1647.1,520.3 1634.3,588.0 1620.6,651.0 1606.2,709.6 1591.0,764.2 1575.1,814.9 1558.7,862.2 1541.6,906.1 1524.0,947.0 1505.9,985.1 1487.2,1020.5 1468.0,1053.5 1448.2,1084.2 1427.8,1112.9 1406.8,1139.6 1385.1,1164.6 1362.7,1187.9 1339.5,1209.6 1315.5,1229.8 1290.5,1248.8 1264.4,1266.4 1237.2,1282.8 1208.7,1297.9 1178.8,1312.0 1147.3,1324.9 1114.2,1336.7 1079.2,1347.3 1042.2,1356.8 1003.0,1365.1 961.4,1372.2 917.3,1378.0 870.4,1382.4 820.4,1385.3 767.3,1386.7 710.6,1386.4 650.3,1384.3 585.9,1380.3 517.4,1374.1 444.3,1365.7  A 1064.250,1064.250 0.00 0,0 438.4,1425.1 L 438.4,1425.1 511.9,1429.4 580.7,1431.7 645.1,1432.1 705.5,1430.8 762.1,1427.9 815.1,1423.6 864.8,1417.9 911.4,1410.8 955.1,1402.6 996.2,1393.2 1034.9,1382.7 1071.3,1371.2 1105.6,1358.6 1138.1,1344.9 1168.7,1330.3 1197.8,1314.6 1225.4,1297.8 1251.7,1279.9 1276.7,1260.9 1300.6,1240.6 1323.5,1219.0 1345.5,1196.0 1366.5,1171.5 1386.8,1145.4 1406.2,1117.6 1425.0,1087.8 1443.0,1056.0 1460.4,1022.0 1477.0,985.6 1493.0,946.5 1508.3,904.7 1522.9,859.9 1536.6,811.8 1549.6,760.2 1561.7,704.9 1572.9,645.5 1583.0,581.9 1592.0,513.6 1599.8,440.4  Z" style="stroke-width: 2.0;  stroke: rgb(82,82,82); fill: rgb(116,196,118); opacity: 0.333;" />
<path d="M 1500.100,435.750 A 1064.250,1064.250 0.00 0,1 1559.7,437.4 L 1559.7,437.4 1556.2,510.7 1554.2,578.9 1553.5,642.1 1554.2,700.9 1556.1,755.2 1559.2,805.6 1563.4,852.0 1568.7,894.9 1575.0,934.3 1582.4,970.6 1590.7,1003.8 1600.1,1034.1 1610.5,1061.7 1621.9,1086.7 1634.4,1109.2 1647.8,1129.4 1662.4,1147.4 1678.2,1163.2 1695.1,1177.0 1713.3,1188.7 1732.8,1198.4 1753.7,1206.1 1776.1,1212.0 1800.1,1215.9 1825.8,1217.9 1853.2,1217.9 1882.7,1215.9 1914.1,1211.9 1947.8,1205.8 1983.8,1197.5 2022.4,1187.0 2063.6,1174.0 2107.6,1158.6 2154.7,1140.6 2205.0,1119.8 2258.7,1096.1 2316.0,1069.3 2377.2,1039.2 2442.5,1005.7  A 1064.250,1064.250 0.00 0,0 2413.3,953.6 L 2413.3,953.6 2350.0,990.8 2290.6,1024.2 2234.9,1054.2 2182.6,1080.9 2133.5,1104.4 2087.5,1125.1 2044.4,1143.0 2004.0,1158.2 1966.1,1170.9 1930.6,1181.2 1897.3,1189.2 1866.1,1194.9 1836.9,1198.6 1809.4,1200.1 1783.7,1199.5 1759.5,1197.0 1736.8,1192.4 1715.5,1185.8 1695.5,1177.2 1676.7,1166.5 1659.0,1153.8 1642.4,1138.9 1626.9,1121.7 1612.2,1102.3 1598.6,1080.5 1585.8,1056.2 1573.9,1029.2 1562.8,999.4 1552.6,966.8 1543.2,931.0 1534.6,892.0 1527.0,849.5 1520.2,803.3 1514.3,753.3 1509.3,699.1 1505.4,640.5 1502.5,577.3 1500.7,509.1 1500.1,435.8  Z" style="stroke-width: 2.0;  stroke: rgb(82,82,82); fill: rgb(255,153,0); opacity: 0.333;" />
<path d="M 1599.757,440.436 A 1064.250,1064.250 0.00 0,1 1659.0,447.7 L 1659.0,447.7 1647.1,520.3 1634.5,587.8 1621.0,650.6 1606.8,709.0 1591.9,763.3 1576.5,813.6 1560.4,860.4 1543.8,903.7 1526.6,943.9 1508.9,981.2 1490.7,1015.8 1471.9,1047.8 1452.6,1077.5 1432.6,1104.9 1412.0,1130.4 1390.8,1153.8 1368.8,1175.5 1346.0,1195.5 1322.3,1213.9 1297.6,1230.8 1271.9,1246.3 1245.0,1260.3 1216.8,1272.9 1187.2,1284.3 1156.1,1294.2 1123.3,1302.9 1088.6,1310.2 1052.0,1316.1 1013.1,1320.6 972.0,1323.6 928.3,1325.1 881.8,1324.9 832.5,1323.0 779.9,1319.2 724.0,1313.4 664.4,1305.5 601.0,1295.3 533.4,1282.7 461.5,1267.5  A 1064.250,1064.250 0.00 0,0 450.1,1326.0 L 450.1,1326.0 522.8,1337.2 590.9,1346.0 654.8,1352.6 714.7,1357.2 770.9,1359.8 823.6,1360.6 873.0,1359.8 919.4,1357.4 962.9,1353.5 1003.9,1348.2 1042.4,1341.5 1078.6,1333.5 1112.8,1324.3 1145.1,1313.8 1175.6,1302.1 1204.5,1289.2 1232.0,1274.9 1258.0,1259.4 1282.9,1242.6 1306.5,1224.3 1329.2,1204.6 1350.8,1183.4 1371.6,1160.5 1391.5,1135.9 1410.6,1109.3 1429.0,1080.8 1446.6,1050.1 1463.6,1017.1 1479.8,981.5 1495.4,943.3 1510.3,902.2 1524.5,858.0 1537.9,810.4 1550.5,759.3 1562.3,704.3 1573.2,645.2 1583.1,581.7 1592.0,513.6 1599.8,440.4  Z" style="stroke-width: 2.0;  stroke: rgb(82,82,82); fill: rgb(53,128,0); opacity: 0.333;" />
<path d="M 1599.757,440.436 A 1064.250,1064.250 0.00 0,1 1659.0,447.7 L 1659.0,447.7 1647.2,520.2 1634.8,587.6 1621.8,650.1 1608.2,708.0 1594.0,761.6 1579.3,811.2 1564.2,857.0 1548.5,899.3 1532.4,938.2 1515.7,974.1 1498.6,1007.0 1481.0,1037.2 1462.8,1064.8 1444.0,1089.9 1424.6,1112.8 1404.6,1133.5 1383.8,1152.2 1362.2,1168.9 1339.8,1183.7 1316.4,1196.7 1292.0,1207.9 1266.4,1217.3 1239.6,1225.1 1211.4,1231.1 1181.7,1235.5 1150.4,1238.0 1117.4,1238.9 1082.4,1237.9 1045.5,1235.0 1006.2,1230.1 964.6,1223.2 920.5,1214.1 873.6,1202.7 823.7,1189.0 770.8,1172.6 714.4,1153.5 654.5,1131.5 590.8,1106.3 523.0,1077.9  A 1064.250,1064.250 0.00 0,0 500.9,1133.3 L 500.9,1133.3 570.1,1157.9 635.2,1179.4 696.2,1198.1 753.6,1214.0 807.4,1227.3 857.9,1238.3 905.4,1247.0 950.0,1253.6 991.9,1258.2 1031.3,1260.9 1068.4,1261.7 1103.4,1260.7 1136.3,1258.0 1167.4,1253.7 1196.8,1247.7 1224.6,1240.1 1250.9,1230.9 1275.9,1220.0 1299.7,1207.4 1322.3,1193.2 1343.9,1177.1 1364.5,1159.2 1384.2,1139.5 1403.1,1117.6 1421.1,1093.7 1438.4,1067.5 1455.1,1039.0 1471.0,1007.8 1486.2,974.0 1500.8,937.3 1514.8,897.5 1528.0,854.4 1540.6,807.8 1552.5,757.5 1563.6,703.2 1574.0,644.6 1583.5,581.5 1592.1,513.5 1599.8,440.4  Z" style="stroke-width: 2.0;  stroke: rgb(82,82,82); fill: rgb(0,255,0); opacity: 0.333;" />
<path d="M 1599.757,440.436 A 1064.250,1064.250 0.00 0,1 1659.0,447.7 L 1659.0,447.7 1647.3,520.2 1635.0,587.5 1622.2,649.8 1608.9,707.5 1595.1,760.8 1580.9,810.1 1566.2,855.5 1551.1,897.3 1535.5,935.6 1519.5,970.8 1503.0,1002.9 1486.1,1032.2 1468.6,1058.9 1450.6,1083.0 1432.0,1104.7 1412.7,1124.1 1392.7,1141.3 1372.0,1156.5 1350.4,1169.6 1327.9,1180.7 1304.5,1189.9 1279.8,1197.2 1254.0,1202.6 1226.9,1206.2 1198.4,1207.8 1168.3,1207.5 1136.5,1205.3 1102.9,1201.0 1067.4,1194.6 1029.7,1186.0 989.7,1175.1 947.4,1161.8 902.4,1146.0 854.6,1127.4 803.8,1106.0 749.8,1081.6 692.5,1054.0 631.6,1023.0 566.9,988.3  A 1064.250,1064.250 0.00 0,0 539.6,1041.4 L 539.6,1041.4 606.2,1072.4 668.8,1099.9 727.6,1124.3 782.8,1145.7 834.7,1164.2 883.5,1180.0 929.3,1193.3 972.3,1204.2 1012.8,1212.8 1050.9,1219.3 1086.8,1223.7 1120.6,1226.1 1152.4,1226.6 1182.5,1225.2 1210.9,1221.9 1237.8,1216.9 1263.2,1210.0 1287.4,1201.3 1310.3,1190.8 1332.2,1178.5 1353.0,1164.2 1372.8,1147.9 1391.8,1129.6 1409.9,1109.1 1427.3,1086.4 1443.9,1061.3 1459.9,1033.8 1475.2,1003.5 1489.8,970.5 1503.8,934.5 1517.2,895.3 1530.0,852.8 1542.1,806.6 1553.6,756.7 1564.4,702.6 1574.4,644.3 1583.7,581.3 1592.2,513.5 1599.8,440.4  Z" style="stroke-width: 2.0;  stroke: rgb(82,82,82); fill: rgb(255,0,204); opacity: 0.333;" />
<path d="M 1599.757,440.436 A 1064.250,1064.250 0.00 0,1 1659.0,447.7 L 1659.0,447.7 1647.4,520.1 1635.5,587.3 1623.1,649.3 1610.5,706.7 1597.5,759.5 1584.2,808.2 1570.6,852.8 1556.6,893.7 1542.3,931.0 1527.7,964.9 1512.7,995.7 1497.3,1023.4 1481.5,1048.3 1465.2,1070.5 1448.5,1090.0 1431.1,1107.0 1413.2,1121.6 1394.5,1133.9 1375.1,1143.9 1355.0,1151.6 1333.9,1157.1 1311.8,1160.5 1288.7,1161.6 1264.4,1160.5 1238.9,1157.2 1212.0,1151.6 1183.6,1143.6 1153.6,1133.3 1121.9,1120.4 1088.3,1104.9 1052.7,1086.7 1015.1,1065.6 975.1,1041.5 932.7,1014.2 887.8,983.6 840.0,949.4 789.4,911.4 735.6,869.4 678.6,823.3  A 1064.250,1064.250 0.00 0,0 642.0,870.3 L 642.0,870.3 701.5,913.3 757.5,952.1 810.2,987.2 859.8,1018.7 906.4,1046.8 950.2,1071.6 991.5,1093.4 1030.3,1112.4 1066.8,1128.6 1101.2,1142.2 1133.6,1153.3 1164.1,1161.9 1192.9,1168.3 1220.1,1172.4 1245.8,1174.2 1270.1,1174.0 1293.1,1171.5 1314.9,1167.0 1335.7,1160.3 1355.4,1151.4 1374.2,1140.4 1392.1,1127.1 1409.2,1111.5 1425.6,1093.5 1441.2,1073.1 1456.2,1050.1 1470.6,1024.3 1484.4,995.8 1497.7,964.2 1510.4,929.5 1522.6,891.4 1534.2,849.8 1545.3,804.5 1555.9,755.2 1565.9,701.7 1575.3,643.8 1584.1,581.1 1592.3,513.4 1599.8,440.4  Z" style="stroke-width: 2.0;  stroke: rgb(82,82,82); fill: rgb(255,255,0); opacity: 0.333;" />
<path d="M 1599.757,440.436 A 1064.250,1064.250 0.00 0,1 1659.0,447.7 L 1659.0,447.7 1647.5,520.1 1635.7,587.2 1623.6,649.2 1611.3,706.3 1598.7,759.0 1585.9,807.3 1572.9,851.6 1559.6,892.1 1546.0,928.9 1532.1,962.4 1518.0,992.5 1503.5,1019.6 1488.6,1043.7 1473.3,1065.0 1457.6,1083.5 1441.3,1099.5 1424.5,1112.9 1407.1,1123.9 1389.1,1132.5 1370.3,1138.7 1350.6,1142.6 1330.1,1144.1 1308.6,1143.3 1286.1,1140.2 1262.4,1134.6 1237.4,1126.6 1211.1,1116.1 1183.4,1103.0 1154.0,1087.2 1123.0,1068.6 1090.1,1047.1 1055.3,1022.5 1018.5,994.7 979.4,963.5 937.9,928.7 894.0,890.1 847.4,847.5 798.0,800.6 745.6,749.3  A 1064.250,1064.250 0.00 0,0 704.7,792.8 L 704.7,792.8 759.9,841.1 811.9,885.1 860.8,925.0 906.8,961.1 950.1,993.5 990.9,1022.5 1029.3,1048.2 1065.4,1070.8 1099.4,1090.4 1131.4,1107.3 1161.6,1121.4 1190.1,1132.9 1216.9,1141.9 1242.3,1148.5 1266.3,1152.7 1288.9,1154.6 1310.4,1154.2 1330.8,1151.5 1350.2,1146.5 1368.6,1139.3 1386.2,1129.7 1403.0,1117.8 1419.0,1103.4 1434.3,1086.6 1449.0,1067.1 1463.0,1045.0 1476.5,1020.1 1489.5,992.3 1502.0,961.4 1513.9,927.3 1525.4,889.7 1536.4,848.6 1547.0,803.6 1557.1,754.6 1566.6,701.3 1575.7,643.6 1584.3,581.0 1592.3,513.4 1599.8,440.4  Z" style="stroke-width: 2.0;  stroke: rgb(82,82,82); fill: rgb(153,204,255); opacity: 0.333;" />
<path d="M 1599.757,440.436 A 1064.250,1064.250 0.00 0,1 1659.0,447.7 L 1659.0,447.7 1647.5,520.1 1635.9,587.1 1624.1,649.0 1612.1,706.0 1600.0,758.5 1587.7,806.6 1575.3,850.6 1562.6,890.7 1549.8,927.2 1536.7,960.1 1523.4,989.7 1509.9,1016.1 1496.0,1039.5 1481.8,1060.0 1467.2,1077.7 1452.1,1092.7 1436.6,1105.1 1420.6,1114.9 1403.9,1122.2 1386.6,1127.0 1368.6,1129.4 1349.8,1129.3 1330.1,1126.8 1309.5,1121.7 1287.8,1114.1 1265.1,1104.0 1241.1,1091.1 1215.8,1075.5 1189.1,1057.1 1160.9,1035.7 1131.0,1011.1 1099.4,983.3 1066.0,952.1 1030.6,917.3 993.0,878.7 953.3,836.1 911.2,789.3 866.5,738.0 819.2,682.0  A 1064.250,1064.250 0.00 0,0 774.5,721.4 L 774.5,721.4 824.8,774.7 872.3,823.4 916.9,867.8 959.0,908.1 998.7,944.6 1036.0,977.3 1071.1,1006.6 1104.2,1032.6 1135.4,1055.4 1164.7,1075.2 1192.4,1092.1 1218.6,1106.3 1243.2,1117.7 1266.6,1126.6 1288.6,1133.0 1309.5,1136.9 1329.3,1138.3 1348.1,1137.3 1365.9,1134.0 1382.9,1128.2 1399.1,1120.0 1414.6,1109.3 1429.4,1096.0 1443.5,1080.2 1457.1,1061.7 1470.2,1040.5 1482.7,1016.3 1494.8,989.2 1506.4,958.9 1517.6,925.3 1528.4,888.2 1538.8,847.4 1548.7,802.8 1558.3,754.0 1567.5,701.0 1576.2,643.4 1584.5,580.9 1592.4,513.4 1599.8,440.4  Z" style="stroke-width: 2.0;  stroke: rgb(82,82,82); fill: rgb(255,153,0); opacity: 0.333;" />
<path d="M 1599.757,440.436 A 1064.250,1064.250 0.00 0,1 1659.0,447.7 L 1659.0,447.7 1647.6,520.1 1636.1,587.0 1624.6,648.8 1613.0,705.7 1601.3,758.0 1589.5,805.9 1577.7,849.7 1565.8,889.5 1553.7,925.6 1541.5,958.1 1529.1,987.2 1516.5,1013.1 1503.7,1035.9 1490.6,1055.7 1477.2,1072.6 1463.4,1086.7 1449.3,1098.2 1434.7,1106.9 1419.6,1113.1 1404.0,1116.7 1387.7,1117.7 1370.7,1116.2 1353.0,1112.0 1334.5,1105.3 1315.1,1095.9 1294.7,1083.8 1273.2,1068.8 1250.6,1051.0 1226.8,1030.2 1201.6,1006.2 1175.1,979.0 1147.0,948.4 1117.3,914.1 1085.8,876.1 1052.6,834.1 1017.3,787.9 980.1,737.3 940.6,682.0 898.8,621.8  A 1064.250,1064.250 0.00 0,0 850.6,656.9 L 850.6,656.9 895.6,714.7 938.1,767.6 978.2,816.1 1016.0,860.2 1051.5,900.3 1085.0,936.5 1116.6,969.0 1146.4,998.0 1174.4,1023.7 1200.9,1046.2 1225.8,1065.7 1249.4,1082.2 1271.7,1095.9 1292.7,1106.9 1312.6,1115.2 1331.5,1120.9 1349.4,1124.0 1366.4,1124.6 1382.6,1122.7 1398.1,1118.2 1412.8,1111.2 1426.9,1101.6 1440.3,1089.4 1453.3,1074.6 1465.7,1056.9 1477.7,1036.4 1489.2,1013.0 1500.3,986.4 1511.0,956.6 1521.4,923.5 1531.5,886.8 1541.1,846.4 1550.5,802.0 1559.6,753.5 1568.3,700.7 1576.7,643.2 1584.7,580.9 1592.4,513.4 1599.8,440.4  Z" style="stroke-width: 2.0;  stroke: rgb(82,82,82); fill: rgb(0,255,255); opacity: 0.333;" />
<path d="M 1599.757,440.436 A 1064.250,1064.250 0.00 0,1 1659.0,447.7 L 1659.0,447.7 1647.6,520.1 1636.3,587.0 1625.1,648.7 1613.8,705.5 1602.6,757.7 1591.4,805.4 1580.2,848.9 1569.0,888.5 1557.7,924.3 1546.4,956.4 1534.9,985.1 1523.4,1010.5 1511.7,1032.8 1499.8,1052.0 1487.6,1068.2 1475.2,1081.6 1462.5,1092.2 1449.5,1100.1 1436.0,1105.2 1422.1,1107.7 1407.7,1107.6 1392.7,1104.8 1377.1,1099.3 1360.9,1091.1 1343.8,1080.1 1326.0,1066.2 1307.2,1049.5 1287.5,1029.7 1266.8,1006.8 1245.0,980.6 1221.9,951.0 1197.6,917.9 1171.9,881.0 1144.7,840.2 1116.0,795.2 1085.6,745.9 1053.5,692.0 1019.6,633.3 983.7,569.4  A 1064.250,1064.250 0.00 0,0 932.4,599.8 L 932.4,599.8 971.8,661.5 1009.0,718.3 1044.0,770.3 1077.1,817.9 1108.3,861.1 1137.7,900.4 1165.4,935.8 1191.6,967.5 1216.2,995.7 1239.5,1020.6 1261.5,1042.4 1282.3,1061.0 1301.9,1076.7 1320.5,1089.5 1338.2,1099.5 1354.9,1106.8 1370.8,1111.4 1385.9,1113.4 1400.3,1112.7 1414.0,1109.4 1427.2,1103.5 1439.8,1094.9 1451.8,1083.6 1463.5,1069.6 1474.7,1052.7 1485.5,1032.9 1495.9,1010.0 1506.0,984.0 1515.8,954.7 1525.4,921.9 1534.6,885.6 1543.6,845.5 1552.4,801.4 1560.9,753.1 1569.1,700.4 1577.2,643.0 1585.0,580.8 1592.5,513.3 1599.8,440.4  Z" style="stroke-width: 2.0;  stroke: rgb(82,82,82); fill: rgb(204,204,153); opacity: 0.333;" />
<path d="M 1500.100,435.750 A 1064.250,1064.250 0.00 0,1 1559.7,437.4 L 1559.7,437.4 1556.3,510.7 1554.4,579.0 1553.9,642.5 1554.9,701.4 1557.1,756.1 1560.6,806.8 1565.3,853.8 1571.1,897.2 1578.0,937.2 1585.9,974.2 1594.9,1008.2 1604.9,1039.4 1616.0,1068.0 1628.1,1094.1 1641.3,1117.9 1655.5,1139.4 1670.9,1158.9 1687.4,1176.3 1705.2,1191.7 1724.2,1205.3 1744.6,1217.0 1766.5,1227.0 1789.9,1235.1 1814.9,1241.5 1841.7,1246.2 1870.3,1249.1 1901.0,1250.2 1933.7,1249.5 1968.8,1246.9 2006.3,1242.3 2046.5,1235.7 2089.4,1227.0 2135.3,1216.0 2184.3,1202.7 2236.7,1187.0 2292.8,1168.6 2352.6,1147.4 2416.5,1123.3 2484.6,1096.1  A 1064.250,1064.250 0.00 0,0 2460.4,1041.5 L 2460.4,1041.5 2393.9,1072.6 2331.5,1100.2 2272.9,1124.7 2218.0,1146.2 2166.6,1164.9 2118.3,1180.9 2073.1,1194.4 2030.8,1205.5 1991.1,1214.3 1953.9,1221.0 1919.0,1225.6 1886.3,1228.1 1855.7,1228.7 1826.9,1227.5 1799.9,1224.3 1774.6,1219.3 1750.8,1212.5 1728.4,1203.8 1707.4,1193.2 1687.6,1180.7 1669.0,1166.3 1651.5,1149.8 1635.1,1131.3 1619.6,1110.6 1605.2,1087.6 1591.6,1062.2 1579.0,1034.2 1567.2,1003.6 1556.3,970.2 1546.3,933.8 1537.2,894.1 1529.0,851.1 1521.7,804.5 1515.4,754.1 1510.1,699.6 1505.8,640.8 1502.7,577.4 1500.8,509.1 1500.1,435.8  Z" style="stroke-width: 2.0;  stroke: rgb(82,82,82); fill: rgb(102,153,255); opacity: 0.333;" />
<path d="M 1599.757,440.436 A 1064.250,1064.250 0.00 0,1 1659.0,447.7 L 1659.0,447.7 1647.7,520.1 1636.6,587.0 1625.6,648.6 1614.7,705.4 1604.0,757.4 1593.3,805.0 1582.8,848.3 1572.3,887.7 1561.8,923.2 1551.4,955.0 1540.9,983.4 1530.4,1008.4 1519.9,1030.2 1509.2,1048.9 1498.4,1064.6 1487.4,1077.3 1476.3,1087.2 1464.8,1094.4 1453.1,1098.7 1441.0,1100.3 1428.6,1099.1 1415.7,1095.3 1402.3,1088.6 1388.4,1079.1 1373.9,1066.8 1358.8,1051.5 1342.9,1033.2 1326.3,1011.8 1308.8,987.1 1290.5,959.1 1271.1,927.5 1250.8,892.2 1229.3,853.1 1206.7,809.9 1182.8,762.4 1157.6,710.5 1130.9,653.8 1102.8,592.1 1073.1,525.1  A 1064.250,1064.250 0.00 0,0 1019.2,550.6 L 1019.2,550.6 1052.6,615.8 1084.1,675.8 1113.9,730.9 1142.0,781.4 1168.5,827.4 1193.5,869.3 1217.1,907.1 1239.4,941.2 1260.5,971.6 1280.4,998.6 1299.2,1022.3 1317.0,1042.7 1333.9,1060.1 1349.8,1074.5 1365.0,1086.0 1379.4,1094.7 1393.2,1100.6 1406.2,1103.8 1418.7,1104.2 1430.7,1101.9 1442.2,1097.0 1453.2,1089.2 1463.8,1078.7 1474.0,1065.4 1483.9,1049.1 1493.5,1029.8 1502.8,1007.5 1511.9,981.9 1520.8,953.0 1529.4,920.6 1537.8,884.6 1546.1,844.7 1554.2,800.8 1562.2,752.7 1570.0,700.2 1577.7,642.9 1585.2,580.7 1592.5,513.3 1599.8,440.4  Z" style="stroke-width: 2.0;  stroke: rgb(82,82,82); fill: rgb(0,0,204); opacity: 0.333;" />
<path d="M 1599.757,440.436 A 1064.250,1064.250 0.00 0,1 1659.0,447.7 L 1659.0,447.7 1647.7,520.1 1636.8,586.9 1626.1,648.6 1615.6,705.2 1605.3,757.2 1595.2,804.7 1585.4,847.9 1575.6,887.1 1566.0,922.4 1556.5,954.0 1547.0,982.1 1537.6,1006.8 1528.3,1028.2 1518.9,1046.5 1509.5,1061.7 1500.0,1074.0 1490.4,1083.3 1480.6,1089.8 1470.7,1093.5 1460.5,1094.4 1450.1,1092.4 1439.4,1087.7 1428.4,1080.1 1417.0,1069.6 1405.1,1056.1 1392.8,1039.7 1379.9,1020.1 1366.5,997.4 1352.5,971.3 1337.8,941.7 1322.4,908.5 1306.2,871.5 1289.1,830.6 1271.2,785.5 1252.4,736.0 1232.5,681.9 1211.6,622.9 1189.5,558.9 1166.3,489.4  A 1064.250,1064.250 0.00 0,0 1110.2,509.7 L 1110.2,509.7 1137.3,577.8 1162.9,640.5 1187.1,698.2 1209.9,751.1 1231.5,799.4 1252.0,843.5 1271.3,883.4 1289.5,919.4 1306.8,951.7 1323.1,980.4 1338.6,1005.6 1353.2,1027.6 1367.2,1046.4 1380.4,1062.2 1393.0,1074.9 1405.0,1084.7 1416.4,1091.7 1427.4,1095.9 1437.9,1097.2 1447.9,1095.8 1457.7,1091.6 1467.0,1084.5 1476.1,1074.7 1484.9,1061.9 1493.4,1046.2 1501.8,1027.4 1509.9,1005.5 1517.9,980.3 1525.8,951.7 1533.5,919.6 1541.1,883.8 1548.7,844.1 1556.1,800.4 1563.5,752.4 1570.9,700.0 1578.2,642.8 1585.4,580.7 1592.6,513.3 1599.8,440.4  Z" style="stroke-width: 2.0;  stroke: rgb(82,82,82); fill: rgb(0,255,0); opacity: 0.333;" />
<path d="M 1599.757,440.436 A 1064.250,1064.250 0.00 0,1 1659.0,447.7 L 1659.0,447.7 1647.8,520.1 1637.0,586.9 1626.6,648.5 1616.5,705.1 1606.7,757.0 1597.2,804.5 1588.0,847.6 1579.0,886.6 1570.2,921.8 1561.6,953.3 1553.2,981.2 1545.0,1005.6 1536.8,1026.8 1528.7,1044.8 1520.7,1059.7 1512.7,1071.6 1504.7,1080.5 1496.7,1086.6 1488.6,1089.7 1480.5,1090.0 1472.2,1087.5 1463.7,1082.1 1455.1,1073.8 1446.3,1062.5 1437.1,1048.3 1427.7,1030.9 1418.0,1010.4 1407.9,986.6 1397.4,959.5 1386.5,928.7 1375.1,894.3 1363.2,856.0 1350.8,813.7 1337.8,767.2 1324.1,716.1 1309.8,660.4 1294.7,599.8 1278.9,533.9 1262.4,462.6  A 1064.250,1064.250 0.00 0,0 1204.6,477.6 L 1204.6,477.6 1225.2,547.8 1244.6,612.7 1263.0,672.4 1280.5,727.2 1296.9,777.4 1312.6,823.2 1327.4,864.7 1341.4,902.3 1354.7,936.0 1367.3,966.0 1379.3,992.6 1390.7,1015.8 1401.6,1035.7 1411.9,1052.5 1421.8,1066.2 1431.3,1076.9 1440.4,1084.8 1449.1,1089.7 1457.5,1091.8 1465.7,1091.0 1473.6,1087.4 1481.2,1080.9 1488.7,1071.6 1496.0,1059.2 1503.2,1043.9 1510.2,1025.5 1517.2,1003.9 1524.1,979.0 1530.9,950.7 1537.7,918.8 1544.5,883.2 1551.3,843.7 1558.1,800.1 1564.9,752.2 1571.8,699.9 1578.7,642.8 1585.6,580.7 1592.7,513.3 1599.8,440.4  Z" style="stroke-width: 2.0;  stroke: rgb(82,82,82); fill: rgb(204,204,153); opacity: 0.333;" />
<path d="M 1599.757,440.436 A 1064.250,1064.250 0.00 0,1 1659.0,447.7 L 1659.0,447.7 1647.9,520.1 1637.2,586.9 1627.1,648.5 1617.4,705.1 1608.1,757.0 1599.2,804.4 1590.6,847.4 1582.4,886.4 1574.5,921.5 1566.8,952.9 1559.5,980.7 1552.3,1005.0 1545.4,1026.0 1538.7,1043.8 1532.1,1058.5 1525.7,1070.1 1519.3,1078.8 1513.1,1084.5 1506.9,1087.4 1500.8,1087.3 1494.6,1084.4 1488.5,1078.5 1482.3,1069.7 1476.1,1058.0 1469.8,1043.2 1463.4,1025.2 1456.8,1004.1 1450.2,979.6 1443.3,951.7 1436.3,920.2 1429.0,885.0 1421.5,845.9 1413.8,802.6 1405.7,755.1 1397.4,703.1 1388.7,646.3 1379.7,584.5 1370.3,517.5 1360.6,444.9  A 1064.250,1064.250 0.00 0,0 1301.7,454.4 L 1301.7,454.4 1315.5,526.3 1328.6,592.7 1341.1,653.9 1352.9,710.1 1364.1,761.6 1374.8,808.6 1385.0,851.3 1394.7,890.0 1403.9,924.7 1412.7,955.8 1421.1,983.3 1429.1,1007.3 1436.8,1028.0 1444.2,1045.6 1451.4,1060.0 1458.2,1071.4 1464.9,1079.8 1471.3,1085.3 1477.6,1087.9 1483.8,1087.6 1489.8,1084.5 1495.7,1078.4 1501.5,1069.4 1507.3,1057.4 1513.1,1042.4 1518.8,1024.2 1524.5,1002.8 1530.3,978.1 1536.1,950.0 1541.9,918.3 1547.9,882.8 1553.9,843.4 1560.0,799.9 1566.3,752.1 1572.7,699.8 1579.2,642.7 1585.9,580.6 1592.7,513.3 1599.8,440.4  Z" style="stroke-width: 2.0;  stroke: rgb(82,82,82); fill: rgb(255,153,0); opacity: 0.333;" />
<path d="M 1500.100,435.750 A 1064.250,1064.250 0.00 0,1 1559.7,437.4 L 1559.7,437.4 1556.4,510.8 1554.7,579.3 1554.7,643.1 1556.2,702.6 1559.1,758.0 1563.3,809.5 1568.8,857.5 1575.5,902.1 1583.3,943.5 1592.2,982.0 1602.3,1017.7 1613.4,1050.8 1625.5,1081.6 1638.7,1110.1 1653.0,1136.4 1668.4,1160.8 1684.9,1183.3 1702.6,1204.1 1721.5,1223.2 1741.8,1240.7 1763.4,1256.6 1786.5,1271.1 1811.2,1284.2 1837.5,1295.9 1865.7,1306.2 1895.8,1315.1 1928.0,1322.7 1962.4,1328.9 1999.2,1333.6 2038.5,1336.9 2080.7,1338.6 2125.7,1338.7 2174.0,1337.2 2225.6,1333.9 2280.8,1328.7 2339.9,1321.6 2403.0,1312.3 2470.5,1300.7 2542.7,1286.8  A 1064.250,1064.250 0.00 0,0 2529.1,1228.7 L 2529.1,1228.7 2457.8,1246.7 2391.1,1262.0 2328.6,1274.8 2270.0,1285.3 2215.2,1293.5 2163.8,1299.7 2115.7,1303.9 2070.7,1306.3 2028.6,1306.9 1989.1,1305.9 1952.0,1303.2 1917.3,1299.0 1884.8,1293.2 1854.3,1286.0 1825.6,1277.3 1798.6,1267.1 1773.2,1255.4 1749.3,1242.2 1726.9,1227.5 1705.7,1211.2 1685.7,1193.2 1666.9,1173.5 1649.1,1151.9 1632.4,1128.4 1616.6,1102.9 1601.9,1075.2 1588.0,1045.2 1575.1,1012.7 1563.1,977.6 1552.0,939.7 1541.8,898.8 1532.7,854.6 1524.5,807.1 1517.4,755.8 1511.4,700.7 1506.6,641.4 1503.0,577.7 1500.9,509.2 1500.1,435.8  Z" style="stroke-width: 2.0;  stroke: rgb(82,82,82); fill: rgb(204,255,0); opacity: 0.333;" />
<path d="M 1500.100,435.750 A 1064.250,1064.250 0.00 0,1 1559.7,437.4 L 1559.7,437.4 1556.4,510.9 1554.9,579.5 1555.0,643.5 1556.8,703.2 1559.9,759.0 1564.5,811.0 1570.3,859.5 1577.4,904.7 1585.6,946.8 1595.0,986.1 1605.4,1022.7 1616.9,1056.9 1629.5,1088.8 1643.1,1118.5 1657.8,1146.2 1673.5,1172.0 1690.4,1196.2 1708.4,1218.6 1727.7,1239.6 1748.3,1259.1 1770.2,1277.3 1793.6,1294.1 1818.5,1309.7 1845.2,1324.1 1873.6,1337.4 1904.0,1349.4 1936.4,1360.3 1971.2,1370.0 2008.3,1378.5 2048.0,1385.8 2090.5,1391.9 2136.0,1396.6 2184.8,1399.9 2236.9,1401.8 2292.8,1402.1 2352.5,1400.7 2416.5,1397.5 2484.9,1392.5 2558.1,1385.3  A 1064.250,1064.250 0.00 0,0 2550.0,1326.2 L 2550.0,1326.2 2477.3,1337.4 2409.3,1346.3 2345.6,1353.1 2286.0,1357.8 2230.2,1360.6 2178.1,1361.7 2129.2,1361.1 2083.5,1359.0 2040.7,1355.3 2000.7,1350.2 1963.1,1343.8 1927.9,1336.1 1894.9,1327.0 1863.9,1316.7 1834.8,1305.1 1807.4,1292.2 1781.6,1278.0 1757.3,1262.5 1734.4,1245.6 1712.8,1227.3 1692.3,1207.4 1673.1,1186.0 1654.9,1162.8 1637.7,1137.9 1621.5,1111.1 1606.2,1082.2 1591.9,1051.0 1578.5,1017.6 1566.0,981.6 1554.5,942.9 1543.9,901.3 1534.3,856.5 1525.8,808.5 1518.3,756.8 1512.0,701.3 1507.0,641.7 1503.2,577.8 1500.9,509.3 1500.1,435.8  Z" style="stroke-width: 2.0;  stroke: rgb(82,82,82); fill: rgb(255,153,0); opacity: 0.333;" />
<path d="M 1500.100,435.750 A 1064.250,1064.250 0.00 0,1 1559.7,437.4 L 1559.7,437.4 1556.4,510.9 1555.0,579.6 1555.4,643.9 1557.3,703.9 1560.8,760.0 1565.6,812.5 1571.8,861.5 1579.2,907.4 1587.7,950.3 1597.4,990.4 1608.2,1027.9 1620.0,1063.1 1632.9,1096.1 1646.8,1127.1 1661.7,1156.2 1677.7,1183.5 1694.8,1209.3 1713.1,1233.5 1732.5,1256.4 1753.2,1277.9 1775.2,1298.3 1798.7,1317.5 1823.7,1335.7 1850.3,1352.8 1878.7,1369.0 1909.1,1384.2 1941.5,1398.4 1976.2,1411.7 2013.3,1424.0 2052.9,1435.4 2095.4,1445.8 2140.9,1455.1 2189.6,1463.3 2241.9,1470.3 2297.8,1476.1 2357.7,1480.6 2421.9,1483.6 2490.6,1485.1 2564.1,1484.9  A 1064.250,1064.250 0.00 0,0 2561.6,1425.3 L 2561.6,1425.3 2488.2,1429.6 2419.5,1432.0 2355.3,1432.6 2295.2,1431.5 2239.0,1428.8 2186.5,1424.7 2137.4,1419.2 2091.4,1412.5 2048.4,1404.5 2008.2,1395.4 1970.5,1385.1 1935.1,1373.8 1902.0,1361.4 1870.8,1348.0 1841.5,1333.4 1813.9,1317.8 1788.0,1301.1 1763.5,1283.2 1740.3,1264.1 1718.5,1243.7 1697.8,1222.0 1678.2,1198.8 1659.7,1174.1 1642.2,1147.7 1625.7,1119.5 1610.1,1089.3 1595.4,1057.1 1581.6,1022.6 1568.7,985.7 1556.8,946.2 1545.8,903.9 1535.9,858.5 1527.0,809.9 1519.2,757.8 1512.6,702.0 1507.3,642.1 1503.4,578.0 1500.9,509.3 1500.1,435.8  Z" style="stroke-width: 2.0;  stroke: rgb(82,82,82); fill: rgb(116,196,118); opacity: 0.333;" />
<path d="M 1500.100,435.750 A 1064.250,1064.250 0.00 0,1 1559.7,437.4 L 1559.7,437.4 1556.7,511.2 1555.8,581.0 1557.1,646.8 1560.1,709.2 1564.7,768.2 1570.7,824.1 1578.1,877.3 1586.5,927.8 1596.0,976.0 1606.3,1022.1 1617.4,1066.2 1629.2,1108.6 1641.6,1149.5 1654.6,1189.0 1668.1,1227.4 1682.2,1264.8 1696.8,1301.3 1711.9,1337.2 1727.6,1372.6 1743.9,1407.6 1760.9,1442.4 1778.7,1477.1 1797.3,1511.7 1816.9,1546.5 1837.6,1581.6 1859.5,1617.0 1882.8,1652.7 1907.7,1689.0 1934.4,1725.9 1963.0,1763.4 1993.8,1801.6 2027.1,1840.6 2063.1,1880.4 2102.1,1921.0 2144.3,1962.5 2190.1,2004.9 2239.8,2048.2 2293.7,2092.4 2352.2,2137.5  A 1064.250,1064.250 0.00 0,0 2386.6,2088.8 L 2386.6,2088.8 2325.6,2047.0 2269.3,2005.9 2217.3,1965.4 2169.2,1925.7 2124.7,1886.6 2083.5,1848.3 2045.4,1810.6 2010.0,1773.5 1977.0,1737.1 1946.3,1701.2 1917.6,1665.9 1890.8,1631.1 1865.5,1596.6 1841.6,1562.5 1819.0,1528.7 1797.5,1495.1 1777.0,1461.5 1757.3,1427.9 1738.4,1394.1 1720.1,1360.0 1702.5,1325.6 1685.3,1290.6 1668.7,1254.9 1652.6,1218.4 1636.9,1180.8 1621.7,1142.1 1607.0,1102.0 1592.9,1060.3 1579.3,1016.9 1566.5,971.5 1554.3,923.9 1543.1,873.9 1532.8,821.2 1523.6,765.7 1515.7,707.0 1509.2,645.0 1504.3,579.3 1501.2,509.6 1500.1,435.8  Z" style="stroke-width: 2.0;  stroke: rgb(82,82,82); fill: rgb(253,141,60); opacity: 0.333;" />
<path d="M 1500.100,435.750 A 1064.250,1064.250 0.00 0,1 1559.7,437.4 L 1559.7,437.4 1556.7,511.3 1555.9,581.2 1557.2,647.3 1560.3,710.0 1565.0,769.4 1571.1,825.9 1578.4,879.6 1586.9,930.8 1596.2,979.7 1606.4,1026.6 1617.2,1071.6 1628.7,1115.0 1640.7,1156.8 1653.2,1197.5 1666.1,1237.0 1679.4,1275.6 1693.1,1313.5 1707.2,1350.8 1721.8,1387.7 1736.8,1424.2 1752.3,1460.7 1768.5,1497.2 1785.3,1533.8 1802.9,1570.6 1821.5,1607.8 1841.2,1645.5 1862.0,1683.7 1884.3,1722.6 1908.2,1762.3 1933.8,1802.8 1961.6,1844.2 1991.5,1886.6 2024.0,1930.0 2059.3,1974.5 2097.7,2020.1 2139.5,2066.9 2185.1,2114.8 2234.7,2164.1 2288.7,2214.5  A 1064.250,1064.250 0.00 0,0 2327.5,2169.2 L 2327.5,2169.2 2270.8,2121.8 2218.5,2075.5 2170.3,2030.1 2125.9,1985.8 2085.0,1942.4 2047.3,1899.9 2012.4,1858.4 1980.1,1817.8 1950.1,1778.0 1922.2,1739.0 1896.2,1700.8 1871.8,1663.2 1848.8,1626.1 1827.0,1589.6 1806.4,1553.5 1786.7,1517.7 1767.9,1482.1 1749.7,1446.6 1732.1,1411.1 1715.1,1375.4 1698.5,1339.4 1682.3,1303.0 1666.5,1265.9 1651.1,1228.1 1636.0,1189.4 1621.3,1149.5 1606.9,1108.3 1593.0,1065.7 1579.7,1021.4 1566.9,975.2 1554.8,926.8 1543.5,876.2 1533.2,823.0 1523.9,766.9 1515.9,707.8 1509.3,645.4 1504.4,579.5 1501.2,509.7 1500.1,435.8  Z" style="stroke-width: 2.0;  stroke: rgb(82,82,82); fill: rgb(204,204,153); opacity: 0.333;" />
<path d="M 1500.100,435.750 A 1064.250,1064.250 0.00 0,1 1559.7,437.4 L 1559.7,437.4 1556.7,511.4 1556.0,581.4 1557.3,647.8 1560.5,710.8 1565.2,770.7 1571.3,827.6 1578.7,881.9 1587.0,933.8 1596.2,983.4 1606.2,1031.1 1616.7,1076.9 1627.8,1121.2 1639.3,1164.0 1651.2,1205.7 1663.4,1246.3 1675.8,1286.1 1688.5,1325.2 1701.5,1363.8 1714.8,1402.0 1728.3,1440.1 1742.2,1478.1 1756.6,1516.2 1771.5,1554.5 1787.0,1593.2 1803.3,1632.3 1820.4,1672.1 1838.6,1712.6 1858.0,1753.9 1878.8,1796.0 1901.3,1839.2 1925.5,1883.5 1951.9,1929.0 1980.6,1975.7 2011.8,2023.7 2046.0,2073.0 2083.5,2123.8 2124.4,2176.1 2169.3,2229.9 2218.4,2285.2  A 1064.250,1064.250 0.00 0,0 2261.2,2243.7 L 2261.2,2243.7 2209.1,2191.2 2161.3,2140.0 2117.5,2090.1 2077.3,2041.5 2040.4,1994.2 2006.5,1948.0 1975.2,1903.0 1946.4,1859.1 1919.7,1816.2 1894.8,1774.4 1871.7,1733.4 1850.0,1693.3 1829.6,1653.9 1810.2,1615.1 1791.8,1576.9 1774.1,1539.2 1757.1,1501.8 1740.6,1464.5 1724.6,1427.4 1708.9,1390.1 1693.6,1352.7 1678.4,1314.9 1663.6,1276.5 1648.9,1237.5 1634.5,1197.7 1620.3,1156.7 1606.4,1114.6 1592.9,1071.0 1579.7,1025.9 1567.1,978.9 1555.1,929.8 1543.9,878.5 1533.6,824.7 1524.2,768.1 1516.2,708.6 1509.5,645.9 1504.4,579.7 1501.2,509.7 1500.1,435.8  Z" style="stroke-width: 2.0;  stroke: rgb(82,82,82); fill: rgb(0,0,204); opacity: 0.333;" />
<path d="M 1500.100,435.750 A 1064.250,1064.250 0.00 0,1 1559.7,437.4 L 1559.7,437.4 1556.7,511.5 1556.1,581.8 1557.5,648.7 1560.7,712.4 1565.5,773.1 1571.6,831.1 1578.7,886.5 1586.8,939.6 1595.6,990.6 1605.0,1039.7 1614.8,1087.1 1624.9,1133.1 1635.2,1177.7 1645.6,1221.2 1656.1,1263.7 1666.6,1305.6 1677.0,1346.8 1687.3,1387.6 1697.7,1428.2 1708.0,1468.8 1718.3,1509.4 1728.6,1550.2 1739.1,1591.4 1749.9,1633.2 1761.0,1675.6 1772.6,1718.8 1784.8,1762.9 1797.8,1808.1 1811.8,1854.5 1827.0,1902.1 1843.6,1951.1 1861.8,2001.6 1882.0,2053.8 1904.3,2107.6 1929.1,2163.2 1956.6,2220.8 1987.3,2280.2 2021.4,2341.8 2059.4,2405.4  A 1064.250,1064.250 0.00 0,0 2109.2,2372.6 L 2109.2,2372.6 2067.8,2311.2 2030.2,2251.7 1996.3,2194.0 1965.5,2138.2 1937.7,2084.0 1912.4,2031.5 1889.4,1980.6 1868.3,1931.2 1849.0,1883.1 1831.2,1836.4 1814.6,1790.9 1799.1,1746.6 1784.4,1703.2 1770.4,1660.7 1757.0,1619.0 1743.9,1577.9 1731.1,1537.3 1718.4,1497.1 1705.9,1457.2 1693.3,1417.3 1680.8,1377.3 1668.1,1337.1 1655.4,1296.5 1642.6,1255.4 1629.8,1213.4 1616.9,1170.6 1604.1,1126.6 1591.5,1081.4 1579.0,1034.6 1566.9,986.1 1555.3,935.6 1544.2,883.1 1534.0,828.1 1524.6,770.6 1516.5,710.2 1509.7,646.8 1504.6,580.1 1501.3,509.8 1500.1,435.8  Z" style="stroke-width: 2.0;  stroke: rgb(82,82,82); fill: rgb(153,0,204); opacity: 0.333;" />
<path d="M 1500.100,435.750 A 1064.250,1064.250 0.00 0,1 1559.7,437.4 L 1559.7,437.4 1556.8,511.6 1556.1,582.2 1557.6,649.7 1560.8,714.0 1565.5,775.6 1571.4,834.5 1578.3,891.0 1586.0,945.2 1594.2,997.5 1602.8,1047.9 1611.7,1096.7 1620.6,1144.1 1629.5,1190.2 1638.2,1235.2 1646.6,1279.4 1654.8,1322.8 1662.6,1365.7 1670.0,1408.3 1677.0,1450.7 1683.6,1493.0 1689.9,1535.5 1695.8,1578.3 1701.4,1621.6 1706.9,1665.4 1712.3,1710.1 1717.7,1755.6 1723.3,1802.2 1729.3,1850.1 1735.7,1899.2 1742.9,1949.9 1751.0,2002.2 1760.2,2056.2 1770.8,2112.1 1783.2,2170.0 1797.4,2230.1 1814.0,2292.3 1833.2,2357.0 1855.3,2424.1 1880.7,2493.8  A 1064.250,1064.250 0.00 0,0 1935.8,2470.9 L 1935.8,2470.9 1906.5,2402.7 1880.7,2337.0 1857.9,2273.5 1837.9,2212.2 1820.3,2153.1 1804.7,2096.0 1791.0,2040.8 1778.7,1987.3 1767.7,1935.6 1757.7,1885.4 1748.5,1836.7 1739.9,1789.3 1731.7,1743.0 1723.7,1697.8 1715.9,1653.6 1707.9,1610.1 1699.9,1567.2 1691.6,1524.8 1683.0,1482.7 1674.0,1440.8 1664.6,1398.9 1654.8,1356.8 1644.6,1314.4 1634.1,1271.5 1623.1,1227.9 1611.9,1183.4 1600.5,1137.9 1588.9,1091.1 1577.3,1042.9 1565.9,993.0 1554.8,941.3 1544.1,887.5 1534.0,831.5 1524.8,773.0 1516.7,711.9 1509.9,647.8 1504.6,580.5 1501.3,509.9 1500.1,435.8  Z" style="stroke-width: 2.0;  stroke: rgb(82,82,82); fill: rgb(255,204,204); opacity: 0.333;" />
<path d="M 1500.100,435.750 A 1064.250,1064.250 0.00 0,1 1559.7,437.4 L 1559.7,437.4 1556.8,511.7 1556.2,582.7 1557.6,650.6 1560.7,715.6 1565.3,777.9 1570.9,837.8 1577.4,895.2 1584.6,950.6 1592.1,1003.9 1599.8,1055.5 1607.5,1105.5 1615.1,1154.0 1622.3,1201.3 1629.1,1247.6 1635.4,1292.9 1641.0,1337.5 1646.0,1381.6 1650.2,1425.3 1653.6,1468.8 1656.3,1512.3 1658.2,1555.8 1659.3,1599.7 1659.8,1644.1 1659.6,1689.0 1658.9,1734.8 1657.8,1781.5 1656.4,1829.4 1654.8,1878.5 1653.2,1929.0 1651.8,1981.2 1650.9,2035.0 1650.5,2090.8 1651.1,2148.7 1652.7,2208.7 1655.8,2271.1 1660.6,2336.1 1667.5,2403.6 1676.8,2474.0 1688.7,2547.4  A 1064.250,1064.250 0.00 0,0 1747.1,2535.2 L 1747.1,2535.2 1731.0,2462.6 1717.9,2392.8 1707.2,2325.7 1698.8,2261.2 1692.2,2199.1 1687.2,2139.2 1683.4,2081.5 1680.6,2025.7 1678.6,1971.9 1677.0,1919.8 1675.7,1869.2 1674.6,1820.1 1673.3,1772.2 1671.8,1725.5 1670.0,1679.8 1667.6,1634.9 1664.7,1590.6 1661.1,1546.9 1656.7,1503.5 1651.7,1460.2 1645.8,1417.0 1639.1,1373.6 1631.7,1329.9 1623.6,1285.7 1614.8,1240.7 1605.4,1195.0 1595.5,1148.1 1585.2,1100.1 1574.7,1050.6 1564.1,999.5 1553.6,946.7 1543.4,891.8 1533.7,834.8 1524.7,775.4 1516.7,713.5 1509.9,648.7 1504.7,581.0 1501.3,510.1 1500.1,435.8  Z" style="stroke-width: 2.0;  stroke: rgb(82,82,82); fill: rgb(204,255,0); opacity: 0.333;" />
<path d="M 1500.100,435.750 A 1064.250,1064.250 0.00 0,1 1559.7,437.4 L 1559.7,437.4 1556.8,511.8 1556.1,583.1 1557.5,651.5 1560.5,717.2 1564.8,780.3 1570.1,840.9 1576.1,899.3 1582.6,955.6 1589.3,1009.9 1596.0,1062.4 1602.5,1113.4 1608.5,1162.8 1614.0,1211.0 1618.8,1258.1 1622.8,1304.2 1625.8,1349.5 1627.7,1394.1 1628.6,1438.4 1628.3,1482.3 1626.9,1526.1 1624.3,1569.9 1620.5,1614.0 1615.7,1658.4 1609.7,1703.4 1602.7,1749.2 1594.9,1795.8 1586.3,1843.5 1577.0,1892.5 1567.2,1942.9 1557.1,1994.9 1546.9,2048.7 1536.7,2104.4 1526.9,2162.3 1517.6,2222.4 1509.2,2285.1 1501.9,2350.4 1496.1,2418.6 1492.0,2489.8 1490.1,2564.2  A 1064.250,1064.250 0.00 0,0 1549.8,2563.1 L 1549.8,2563.1 1547.5,2488.7 1547.6,2417.4 1549.5,2349.0 1553.2,2283.4 1558.0,2220.3 1563.9,2159.7 1570.5,2101.4 1577.5,2045.2 1584.7,1990.9 1591.9,1938.4 1598.9,1887.6 1605.4,1838.2 1611.3,1790.0 1616.6,1743.0 1620.9,1697.0 1624.3,1651.7 1626.7,1607.0 1628.0,1562.8 1628.2,1518.9 1627.1,1475.1 1624.9,1431.2 1621.6,1387.2 1617.1,1342.7 1611.6,1297.6 1605.1,1251.8 1597.7,1205.1 1589.5,1157.3 1580.7,1108.2 1571.3,1057.7 1561.7,1005.6 1552.0,951.8 1542.4,896.0 1533.1,838.0 1524.4,777.8 1516.5,715.0 1509.9,649.6 1504.7,581.4 1501.3,510.2 1500.1,435.8  Z" style="stroke-width: 2.0;  stroke: rgb(82,82,82); fill: rgb(204,255,255); opacity: 0.333;" />
<path d="M 1500.100,435.750 A 1064.250,1064.250 0.00 0,1 1559.7,437.4 L 1559.7,437.4 1554.3,511.7 1547.0,582.6 1538.0,650.4 1527.6,715.3 1516.3,777.5 1504.2,837.2 1491.7,894.5 1478.9,949.7 1466.2,1003.0 1453.6,1054.4 1441.5,1104.3 1429.9,1152.8 1419.1,1200.1 1409.0,1246.3 1400.0,1291.6 1391.9,1336.3 1384.9,1380.5 1379.1,1424.3 1374.5,1468.0 1371.0,1511.7 1368.6,1555.5 1367.4,1599.8 1367.3,1644.5 1368.2,1689.9 1370.0,1736.1 1372.5,1783.3 1375.8,1831.7 1379.5,1881.4 1383.6,1932.6 1387.8,1985.4 1392.0,2040.0 1395.8,2096.5 1399.1,2155.1 1401.5,2215.9 1402.9,2279.1 1402.8,2344.9 1400.9,2413.2 1397.0,2484.5 1390.5,2558.6  A 1064.250,1064.250 0.00 0,0 1450.0,2563.1 L 1450.0,2563.1 1452.3,2488.7 1452.3,2417.4 1450.3,2349.0 1446.7,2283.3 1441.8,2220.3 1435.9,2159.7 1429.4,2101.4 1422.4,2045.2 1415.2,1990.9 1408.0,1938.4 1401.1,1887.6 1394.6,1838.1 1388.6,1790.0 1383.4,1743.0 1379.0,1697.0 1375.6,1651.7 1373.2,1607.0 1372.0,1562.8 1371.8,1518.9 1372.9,1475.1 1375.1,1431.2 1378.4,1387.1 1382.9,1342.6 1388.4,1297.6 1395.0,1251.8 1402.4,1205.1 1410.6,1157.3 1419.4,1108.2 1428.7,1057.7 1438.4,1005.6 1448.1,951.8 1457.8,896.0 1467.1,838.0 1475.8,777.8 1483.6,715.0 1490.3,649.6 1495.5,581.4 1498.9,510.2 1500.1,435.8  Z" style="stroke-width: 2.0;  stroke: rgb(82,82,82); fill: rgb(53,128,0); opacity: 0.333;" />
<path d="M 1500.100,435.750 A 1064.250,1064.250 0.00 0,1 1559.7,437.4 L 1559.7,437.4 1554.4,511.3 1547.2,581.3 1538.3,647.6 1527.9,710.6 1516.4,770.4 1503.9,827.3 1490.5,881.5 1476.5,933.4 1462.1,983.1 1447.3,1030.9 1432.2,1076.9 1417.0,1121.4 1401.8,1164.5 1386.5,1206.6 1371.4,1247.7 1356.3,1288.1 1341.3,1327.9 1326.4,1367.4 1311.6,1406.5 1296.9,1445.7 1282.1,1484.9 1267.2,1524.3 1252.1,1564.1 1236.7,1604.3 1221.0,1645.2 1204.6,1686.9 1187.5,1729.4 1169.5,1772.8 1150.4,1817.3 1130.0,1862.9 1108.0,1909.8 1084.2,1957.9 1058.4,2007.5 1030.2,2058.5 999.3,2111.0 965.5,2165.0 928.3,2220.7 887.5,2278.0 842.7,2337.0  A 1064.250,1064.250 0.00 0,0 890.6,2372.5 L 890.6,2372.5 932.1,2311.1 969.6,2251.6 1003.6,2194.0 1034.3,2138.1 1062.2,2083.9 1087.5,2031.4 1110.5,1980.5 1131.6,1931.1 1150.9,1883.1 1168.7,1836.4 1185.3,1790.9 1200.9,1746.5 1215.5,1703.1 1229.5,1660.6 1243.0,1618.9 1256.1,1577.9 1268.9,1537.3 1281.6,1497.1 1294.1,1457.1 1306.7,1417.2 1319.3,1377.3 1331.9,1337.1 1344.6,1296.5 1357.4,1255.3 1370.3,1213.4 1383.1,1170.6 1395.9,1126.6 1408.6,1081.3 1421.1,1034.5 1433.2,986.0 1444.8,935.6 1455.9,883.0 1466.2,828.1 1475.5,770.6 1483.7,710.2 1490.4,646.8 1495.6,580.1 1498.9,509.8 1500.1,435.8  Z" style="stroke-width: 2.0;  stroke: rgb(82,82,82); fill: rgb(255,255,0); opacity: 0.333;" />
<path d="M 1500.100,435.750 A 1064.250,1064.250 0.00 0,1 1559.7,437.4 L 1559.7,437.4 1554.4,511.3 1547.2,581.1 1538.4,647.2 1528.1,709.8 1516.6,769.1 1504.1,825.6 1490.8,879.3 1476.7,930.5 1462.1,979.5 1447.0,1026.5 1431.6,1071.7 1416.0,1115.4 1400.3,1157.6 1384.4,1198.7 1368.4,1238.8 1352.4,1278.1 1336.4,1316.8 1320.3,1355.0 1304.1,1392.9 1287.7,1430.7 1271.2,1468.5 1254.4,1506.4 1237.3,1544.6 1219.6,1583.2 1201.4,1622.3 1182.3,1662.0 1162.4,1702.5 1141.3,1743.8 1118.9,1785.9 1095.0,1829.1 1069.3,1873.3 1041.7,1918.7 1011.7,1965.3 979.2,2013.0 943.8,2062.1 905.3,2112.5 863.3,2164.2 817.3,2217.3 767.2,2271.8  A 1064.250,1064.250 0.00 0,0 811.6,2311.6 L 811.6,2311.6 858.6,2254.4 901.5,2198.8 940.6,2144.8 976.2,2092.4 1008.8,2041.4 1038.6,1991.9 1065.8,1943.7 1090.9,1896.9 1114.1,1851.3 1135.5,1806.8 1155.5,1763.5 1174.2,1721.1 1191.9,1679.6 1208.7,1638.8 1224.7,1598.8 1240.2,1559.3 1255.2,1520.2 1269.8,1481.4 1284.2,1442.7 1298.4,1404.1 1312.4,1365.3 1326.4,1326.3 1340.2,1286.7 1354.0,1246.6 1367.7,1205.7 1381.2,1163.8 1394.6,1120.7 1407.8,1076.2 1420.6,1030.2 1433.0,982.5 1444.8,932.7 1456.0,880.8 1466.3,826.4 1475.7,769.4 1483.8,709.4 1490.5,646.4 1495.7,579.9 1498.9,509.8 1500.1,435.8  Z" style="stroke-width: 2.0;  stroke: rgb(82,82,82); fill: rgb(102,153,255); opacity: 0.333;" />
<path d="M 1500.100,435.750 A 1064.250,1064.250 0.00 0,1 1559.7,437.4 L 1559.7,437.4 1554.5,511.1 1547.6,580.3 1539.1,645.4 1529.3,706.7 1518.2,764.4 1506.1,818.8 1493.0,870.2 1479.0,918.8 1464.2,964.9 1448.8,1008.7 1432.8,1050.4 1416.2,1090.2 1399.1,1128.3 1381.4,1165.0 1363.3,1200.3 1344.6,1234.5 1325.4,1267.7 1305.6,1300.1 1285.2,1331.8 1264.1,1362.9 1242.3,1393.6 1219.5,1424.0 1195.8,1454.2 1171.0,1484.2 1144.9,1514.2 1117.4,1544.1 1088.3,1574.2 1057.5,1604.4 1024.8,1634.7 989.8,1665.3 952.5,1696.1 912.5,1727.1 869.7,1758.3 823.6,1789.8 774.1,1821.5 720.9,1853.4 663.6,1885.4 601.9,1917.5 535.4,1949.6  A 1064.250,1064.250 0.00 0,0 562.1,2003.0 L 562.1,2003.0 626.7,1967.2 686.5,1931.6 741.9,1896.5 793.3,1861.7 840.9,1827.3 885.1,1793.2 926.2,1759.6 964.3,1726.4 999.9,1693.6 1033.1,1661.1 1064.1,1629.0 1093.1,1597.1 1120.5,1565.5 1146.2,1534.0 1170.6,1502.7 1193.7,1471.3 1215.7,1439.9 1236.7,1408.3 1256.8,1376.4 1276.1,1344.1 1294.7,1311.3 1312.7,1277.9 1330.0,1243.6 1346.7,1208.4 1362.8,1172.1 1378.4,1134.6 1393.4,1095.5 1407.7,1054.8 1421.4,1012.3 1434.3,967.8 1446.5,920.9 1457.7,871.6 1467.9,819.5 1477.0,764.5 1484.8,706.3 1491.2,644.5 1496.0,579.1 1499.0,509.6 1500.1,435.8  Z" style="stroke-width: 2.0;  stroke: rgb(82,82,82); fill: rgb(255,204,204); opacity: 0.333;" />
<path d="M 1500.100,435.750 A 1064.250,1064.250 0.00 0,1 1559.7,437.4 L 1559.7,437.4 1554.6,510.9 1548.0,579.7 1539.9,644.2 1530.6,704.5 1520.1,761.0 1508.5,813.9 1496.0,863.6 1482.6,910.3 1468.3,954.1 1453.2,995.3 1437.4,1034.2 1420.9,1070.9 1403.7,1105.7 1385.7,1138.6 1367.1,1170.0 1347.7,1199.8 1327.5,1228.3 1306.5,1255.6 1284.6,1281.8 1261.7,1307.1 1237.7,1331.5 1212.6,1355.1 1186.2,1378.0 1158.5,1400.2 1129.1,1421.9 1098.1,1443.0 1065.2,1463.6 1030.3,1483.6 993.2,1503.2 953.6,1522.2 911.4,1540.8 866.3,1558.7 818.1,1576.1 766.6,1592.8 711.4,1608.8 652.3,1624.1 588.9,1638.4 521.1,1651.8 448.5,1664.1  A 1064.250,1064.250 0.00 0,0 459.3,1722.8 L 459.3,1722.8 531.2,1706.4 598.1,1689.3 660.5,1671.4 718.7,1652.9 772.9,1633.8 823.5,1614.2 870.6,1594.1 914.6,1573.7 955.7,1552.8 994.2,1531.6 1030.1,1510.0 1063.9,1488.0 1095.6,1465.6 1125.3,1442.8 1153.4,1419.5 1179.9,1395.8 1205.0,1371.4 1228.7,1346.5 1251.2,1320.8 1272.7,1294.3 1293.1,1266.8 1312.5,1238.4 1331.1,1208.8 1348.8,1177.9 1365.7,1145.6 1381.7,1111.7 1397.0,1076.0 1411.4,1038.5 1425.0,998.8 1437.8,956.7 1449.6,912.2 1460.4,864.8 1470.1,814.5 1478.7,761.0 1486.0,704.0 1491.9,643.3 1496.4,578.5 1499.1,509.4 1500.1,435.8  Z" style="stroke-width: 2.0;  stroke: rgb(82,82,82); fill: rgb(107,174,214); opacity: 0.333;" />
<path d="M 1500.100,435.750 A 1064.250,1064.250 0.00 0,1 1559.7,437.4 L 1559.7,437.4 1555.0,510.6 1549.4,578.6 1542.9,641.6 1535.7,699.8 1527.7,753.7 1519.0,803.3 1509.7,849.0 1499.6,891.0 1488.9,929.5 1477.5,964.7 1465.4,996.7 1452.7,1025.8 1439.3,1052.0 1425.2,1075.6 1410.3,1096.6 1394.6,1115.2 1378.1,1131.4 1360.7,1145.4 1342.3,1157.1 1323.0,1166.7 1302.5,1174.2 1280.8,1179.6 1257.9,1182.9 1233.7,1184.1 1207.9,1183.1 1180.6,1180.1 1151.6,1174.8 1120.8,1167.3 1088.0,1157.5 1053.1,1145.2 1016.0,1130.4 976.5,1112.9 934.5,1092.7 889.7,1069.5 842.1,1043.2 791.4,1013.6 737.4,980.5 680.0,943.8 618.9,903.1  A 1064.250,1064.250 0.00 0,0 586.8,953.4 L 586.8,953.4 650.1,990.6 709.5,1024.1 765.2,1054.0 817.5,1080.7 866.6,1104.3 912.5,1125.0 955.7,1142.9 996.1,1158.1 1033.9,1170.8 1069.4,1181.1 1102.7,1189.1 1133.9,1194.9 1163.2,1198.5 1190.6,1200.0 1216.4,1199.5 1240.5,1196.9 1263.2,1192.3 1284.5,1185.8 1304.6,1177.2 1323.4,1166.5 1341.0,1153.7 1357.6,1138.8 1373.2,1121.7 1387.8,1102.3 1401.5,1080.5 1414.3,1056.1 1426.2,1029.2 1437.3,999.4 1447.5,966.8 1456.9,931.0 1465.5,892.0 1473.2,849.5 1480.0,803.3 1485.9,753.3 1490.8,699.1 1494.8,640.5 1497.7,577.3 1499.5,509.1 1500.1,435.8  Z" style="stroke-width: 2.0;  stroke: rgb(82,82,82); fill: rgb(255,204,0); opacity: 0.333;" />
<path d="M 1500.100,435.750 A 1064.250,1064.250 0.00 0,1 1559.7,437.4 L 1559.7,437.4 1555.1,510.6 1549.6,578.5 1543.4,641.3 1536.5,699.4 1528.9,753.0 1520.7,802.3 1511.8,847.6 1502.4,889.2 1492.3,927.1 1481.6,961.7 1470.4,993.1 1458.5,1021.4 1445.9,1046.8 1432.7,1069.4 1418.7,1089.3 1404.1,1106.8 1388.6,1121.7 1372.3,1134.3 1355.1,1144.5 1337.0,1152.4 1317.8,1158.1 1297.5,1161.6 1276.1,1162.8 1253.3,1161.8 1229.2,1158.5 1203.6,1152.9 1176.4,1144.9 1147.6,1134.4 1116.9,1121.4 1084.2,1105.8 1049.5,1087.5 1012.6,1066.3 973.3,1042.0 931.4,1014.6 886.9,983.8 839.6,949.5 789.2,911.5 735.6,869.5 678.6,823.3  A 1064.250,1064.250 0.00 0,0 642.0,870.3 L 642.0,870.3 701.5,913.3 757.3,952.2 809.7,987.4 859.0,1019.0 905.1,1047.2 948.4,1072.3 989.0,1094.3 1027.1,1113.4 1062.8,1129.8 1096.3,1143.5 1127.6,1154.7 1157.1,1163.5 1184.6,1170.0 1210.5,1174.2 1234.8,1176.1 1257.5,1175.9 1278.9,1173.5 1298.9,1168.9 1317.8,1162.1 1335.4,1153.2 1352.0,1142.0 1367.6,1128.5 1382.2,1112.7 1395.9,1094.5 1408.6,1073.8 1420.6,1050.5 1431.7,1024.4 1442.0,995.5 1451.5,963.6 1460.2,928.5 1468.2,890.0 1475.3,848.0 1481.6,802.3 1487.0,752.5 1491.6,698.6 1495.2,640.2 1497.9,577.2 1499.5,509.1 1500.1,435.8  Z" style="stroke-width: 2.0;  stroke: rgb(82,82,82); fill: rgb(255,204,0); opacity: 0.333;" />
<path d="M 1500.100,435.750 A 1064.250,1064.250 0.00 0,1 1559.7,437.4 L 1559.7,437.4 1555.1,510.6 1549.8,578.4 1543.8,641.1 1537.3,699.0 1530.1,752.4 1522.4,801.4 1514.1,846.4 1505.3,887.5 1495.9,925.0 1486.0,959.0 1475.5,989.7 1464.5,1017.3 1452.9,1041.9 1440.6,1063.7 1427.8,1082.7 1414.2,1099.0 1399.9,1112.8 1384.8,1124.0 1369.0,1132.9 1352.2,1139.3 1334.5,1143.3 1315.7,1145.0 1295.9,1144.3 1274.9,1141.2 1252.6,1135.7 1229.0,1127.7 1203.9,1117.2 1177.3,1104.0 1149.0,1088.1 1118.9,1069.5 1086.8,1047.8 1052.8,1023.1 1016.6,995.2 978.1,963.9 937.1,928.9 893.5,890.2 847.2,847.6 797.9,800.7 745.6,749.3  A 1064.250,1064.250 0.00 0,0 704.7,792.8 L 704.7,792.8 759.9,841.1 811.7,885.2 860.3,925.2 906.0,961.4 948.8,993.9 989.1,1023.1 1026.8,1048.9 1062.2,1071.7 1095.3,1091.5 1126.4,1108.5 1155.6,1122.7 1182.9,1134.4 1208.6,1143.5 1232.6,1150.1 1255.2,1154.4 1276.3,1156.3 1296.1,1155.9 1314.8,1153.2 1332.2,1148.1 1348.6,1140.8 1364.0,1131.1 1378.4,1119.0 1391.9,1104.4 1404.5,1087.4 1416.3,1067.7 1427.3,1045.3 1437.5,1020.1 1447.0,991.9 1455.7,960.7 1463.7,926.1 1471.0,888.2 1477.5,846.6 1483.2,801.3 1488.2,751.8 1492.3,698.2 1495.7,640.0 1498.1,577.0 1499.6,509.1 1500.1,435.8  Z" style="stroke-width: 2.0;  stroke: rgb(82,82,82); fill: rgb(255,255,0); opacity: 0.333;" />
<path d="M 1500.100,435.750 A 1064.250,1064.250 0.00 0,1 1559.7,437.4 L 1559.7,437.4 1556.0,510.6 1553.2,578.3 1551.3,640.9 1550.3,698.7 1550.2,751.8 1550.9,800.6 1552.3,845.2 1554.6,885.9 1557.5,922.8 1561.2,956.1 1565.7,986.0 1570.8,1012.6 1576.7,1036.1 1583.3,1056.6 1590.7,1074.1 1598.8,1088.9 1607.7,1100.8 1617.4,1110.1 1628.0,1116.8 1639.5,1120.8 1651.9,1122.2 1665.3,1121.1 1679.8,1117.3 1695.3,1110.9 1712.1,1101.7 1730.0,1089.9 1749.3,1075.2 1769.9,1057.7 1792.1,1037.1 1815.8,1013.4 1841.2,986.4 1868.3,956.1 1897.3,922.2 1928.3,884.5 1961.4,843.0 1996.7,797.3 2034.4,747.2 2074.6,692.6 2117.4,633.1  A 1064.250,1064.250 0.00 0,0 2067.8,599.9 L 2067.8,599.9 2028.4,661.6 1991.4,718.4 1956.6,770.5 1923.9,818.1 1893.2,861.5 1864.3,900.8 1837.3,936.3 1811.9,968.1 1788.0,996.4 1765.7,1021.4 1744.7,1043.2 1725.1,1061.9 1706.7,1077.7 1689.4,1090.5 1673.2,1100.5 1658.1,1107.8 1643.9,1112.4 1630.5,1114.3 1618.0,1113.6 1606.4,1110.2 1595.4,1104.2 1585.2,1095.4 1575.6,1084.0 1566.7,1069.7 1558.3,1052.6 1550.6,1032.5 1543.4,1009.4 1536.8,983.1 1530.7,953.5 1525.1,920.4 1520.1,883.8 1515.6,843.3 1511.6,798.8 1508.2,750.2 1505.4,697.1 1503.1,639.4 1501.5,576.8 1500.4,509.0 1500.1,435.8  Z" style="stroke-width: 2.0;  stroke: rgb(82,82,82); fill: rgb(204,255,0); opacity: 0.333;" />
<path d="M 1599.757,440.436 A 1064.250,1064.250 0.00 0,1 1659.0,447.7 L 1659.0,447.7 1648.3,520.1 1639.0,587.3 1631.1,649.3 1624.3,706.5 1618.8,759.2 1614.4,807.6 1611.1,851.8 1608.8,892.1 1607.6,928.7 1607.3,961.7 1608.1,991.3 1609.7,1017.7 1612.4,1040.9 1615.9,1061.2 1620.4,1078.5 1625.9,1093.0 1632.3,1104.8 1639.7,1113.9 1648.1,1120.3 1657.5,1124.1 1668.0,1125.3 1679.7,1124.0 1692.5,1120.0 1706.5,1113.3 1721.8,1104.0 1738.4,1091.9 1756.5,1077.0 1776.0,1059.2 1797.1,1038.4 1819.9,1014.5 1844.4,987.4 1870.8,956.8 1899.2,922.8 1929.6,885.0 1962.3,843.2 1997.2,797.4 2034.6,747.3 2074.6,692.6 2117.4,633.1  A 1064.250,1064.250 0.00 0,0 2067.8,599.9 L 2067.8,599.9 2028.5,661.7 1991.6,718.5 1957.1,770.7 1924.7,818.4 1894.5,861.8 1866.2,901.3 1839.8,936.9 1815.2,968.9 1792.2,997.4 1770.8,1022.5 1750.9,1044.5 1732.4,1063.3 1715.2,1079.2 1699.2,1092.2 1684.5,1102.4 1670.9,1109.8 1658.3,1114.5 1646.8,1116.5 1636.2,1115.9 1626.6,1112.6 1617.8,1106.7 1609.9,1098.0 1602.9,1086.6 1596.6,1072.4 1591.2,1055.4 1586.5,1035.4 1582.5,1012.3 1579.4,986.1 1577.0,956.5 1575.4,923.5 1574.6,886.9 1574.6,846.6 1575.4,802.2 1577.1,753.7 1579.7,700.8 1583.2,643.3 1587.7,580.9 1593.2,513.4 1599.8,440.4  Z" style="stroke-width: 2.0;  stroke: rgb(82,82,82); fill: rgb(204,255,255); opacity: 0.333;" />
<path d="M 1599.757,440.436 A 1064.250,1064.250 0.00 0,1 1659.0,447.7 L 1659.0,447.7 1648.5,520.2 1639.7,587.6 1632.4,650.0 1626.7,707.8 1622.4,761.2 1619.5,810.5 1617.9,855.8 1617.5,897.3 1618.4,935.4 1620.4,970.0 1623.7,1001.5 1628.1,1030.0 1633.6,1055.5 1640.2,1078.3 1648.0,1098.4 1657.0,1116.0 1667.1,1131.1 1678.5,1143.8 1691.1,1154.1 1705.0,1162.2 1720.2,1167.9 1736.9,1171.5 1755.0,1172.8 1774.7,1171.8 1796.1,1168.6 1819.1,1163.0 1844.0,1155.1 1870.9,1144.7 1899.8,1131.9 1930.9,1116.4 1964.3,1098.2 2000.2,1077.3 2038.7,1053.3 2080.0,1026.3 2124.2,996.0 2171.5,962.3 2222.0,924.9 2276.1,883.8 2333.8,838.6  A 1064.250,1064.250 0.00 0,0 2295.4,792.9 L 2295.4,792.9 2240.3,841.3 2188.7,885.4 2140.3,925.5 2094.9,961.8 2052.5,994.5 2012.8,1023.8 1975.8,1049.9 1941.1,1072.9 1908.7,1092.9 1878.6,1110.0 1850.4,1124.5 1824.2,1136.3 1799.7,1145.6 1777.0,1152.5 1755.9,1156.9 1736.3,1159.0 1718.1,1158.7 1701.3,1156.1 1685.7,1151.2 1671.4,1143.9 1658.2,1134.3 1646.2,1122.3 1635.2,1107.8 1625.3,1090.8 1616.4,1071.1 1608.5,1048.7 1601.5,1023.5 1595.6,995.4 1590.6,964.1 1586.6,929.6 1583.6,891.7 1581.6,850.2 1580.6,804.9 1580.8,755.5 1582.1,702.0 1584.6,643.9 1588.3,581.2 1593.3,513.4 1599.8,440.4  Z" style="stroke-width: 2.0;  stroke: rgb(82,82,82); fill: rgb(255,255,0); opacity: 0.333;" />
<path d="M 1599.757,440.436 A 1064.250,1064.250 0.00 0,1 1659.0,447.7 L 1659.0,447.7 1648.6,520.3 1640.0,587.8 1633.2,650.6 1628.1,708.9 1624.6,762.9 1622.5,812.8 1621.9,859.0 1622.7,901.6 1624.7,940.8 1628.1,976.9 1632.7,1009.9 1638.6,1040.0 1645.7,1067.4 1654.0,1092.3 1663.6,1114.7 1674.4,1134.7 1686.4,1152.5 1699.8,1168.1 1714.5,1181.7 1730.7,1193.1 1748.3,1202.6 1767.4,1210.2 1788.2,1215.8 1810.7,1219.4 1834.9,1221.1 1861.1,1220.8 1889.4,1218.6 1919.8,1214.3 1952.5,1207.9 1987.6,1199.3 2025.4,1188.4 2065.9,1175.2 2109.3,1159.5 2155.9,1141.2 2205.7,1120.2 2259.1,1096.3 2316.2,1069.4 2377.3,1039.2 2442.5,1005.7  A 1064.250,1064.250 0.00 0,0 2413.3,953.6 L 2413.3,953.6 2350.1,990.8 2290.8,1024.3 2235.3,1054.4 2183.3,1081.3 2134.7,1105.0 2089.3,1125.9 2046.8,1144.0 2007.1,1159.5 1970.0,1172.4 1935.4,1183.0 1903.1,1191.2 1873.0,1197.2 1844.9,1201.1 1818.8,1202.8 1794.5,1202.4 1771.8,1200.1 1750.8,1195.6 1731.2,1189.2 1713.1,1180.7 1696.4,1170.1 1680.9,1157.5 1666.7,1142.6 1653.6,1125.5 1641.7,1106.1 1630.9,1084.3 1621.2,1059.9 1612.6,1033.0 1605.1,1003.2 1598.6,970.5 1593.2,934.7 1588.9,895.7 1585.8,853.2 1583.8,807.1 1583.1,757.0 1583.6,702.9 1585.4,644.5 1588.7,581.4 1593.4,513.5 1599.8,440.4  Z" style="stroke-width: 2.0;  stroke: rgb(82,82,82); fill: rgb(102,153,255); opacity: 0.333;" />
<path d="M 1599.757,440.436 A 1064.250,1064.250 0.00 0,1 1659.0,447.7 L 1659.0,447.7 1648.7,520.4 1640.5,588.3 1634.4,651.6 1630.0,710.7 1627.4,765.7 1626.5,817.0 1627.1,864.7 1629.2,909.1 1632.8,950.3 1637.7,988.6 1643.9,1024.2 1651.5,1057.2 1660.3,1087.8 1670.4,1116.2 1681.8,1142.4 1694.4,1166.7 1708.4,1189.0 1723.8,1209.6 1740.5,1228.5 1758.7,1245.8 1778.4,1261.5 1799.8,1275.8 1822.8,1288.6 1847.7,1300.0 1874.5,1310.0 1903.3,1318.6 1934.3,1325.8 1967.7,1331.6 2003.5,1336.0 2042.1,1338.9 2083.5,1340.3 2127.9,1340.1 2175.6,1338.3 2226.7,1334.7 2281.5,1329.3 2340.3,1321.9 2403.2,1312.4 2470.6,1300.8 2542.7,1286.8  A 1064.250,1064.250 0.00 0,0 2529.1,1228.7 L 2529.1,1228.7 2457.9,1246.7 2391.3,1262.1 2329.0,1275.1 2270.7,1285.8 2216.3,1294.2 2165.4,1300.7 2117.9,1305.2 2073.6,1307.9 2032.2,1308.8 1993.6,1308.0 1957.5,1305.7 1923.9,1301.7 1892.5,1296.3 1863.2,1289.3 1835.9,1280.8 1810.5,1270.8 1786.7,1259.3 1764.6,1246.3 1744.0,1231.7 1724.9,1215.4 1707.1,1197.5 1690.7,1177.8 1675.5,1156.3 1661.5,1132.8 1648.6,1107.3 1637.0,1079.5 1626.4,1049.4 1617.1,1016.9 1608.8,981.7 1601.8,943.7 1595.9,902.7 1591.3,858.6 1588.0,811.0 1586.1,759.7 1585.6,704.6 1586.6,645.4 1589.2,581.8 1593.6,513.6 1599.8,440.4  Z" style="stroke-width: 2.0;  stroke: rgb(82,82,82); fill: rgb(255,153,0); opacity: 0.333;" />
<path d="M 1599.757,440.436 A 1064.250,1064.250 0.00 0,1 1659.0,447.7 L 1659.0,447.7 1648.7,520.4 1640.7,588.5 1634.7,652.0 1630.6,711.4 1628.3,766.8 1627.7,818.5 1628.6,866.7 1631.1,911.8 1635.0,953.7 1640.3,992.9 1647.0,1029.4 1654.9,1063.4 1664.1,1095.2 1674.6,1124.8 1686.4,1152.4 1699.4,1178.1 1713.7,1202.0 1729.4,1224.4 1746.5,1245.1 1765.0,1264.4 1785.0,1282.4 1806.7,1299.0 1830.0,1314.3 1855.2,1328.4 1882.2,1341.3 1911.4,1353.0 1942.7,1363.5 1976.4,1372.9 2012.6,1381.1 2051.4,1388.0 2093.2,1393.7 2138.1,1398.1 2186.3,1401.0 2238.0,1402.6 2293.4,1402.6 2352.9,1401.0 2416.6,1397.7 2484.9,1392.5 2558.1,1385.3  A 1064.250,1064.250 0.00 0,0 2550.0,1326.2 L 2550.0,1326.2 2477.4,1337.5 2409.5,1346.5 2346.0,1353.4 2286.7,1358.3 2231.3,1361.4 2179.6,1362.8 2131.4,1362.5 2086.3,1360.6 2044.3,1357.3 2005.1,1352.5 1968.5,1346.4 1934.3,1339.0 1902.5,1330.2 1872.7,1320.1 1845.0,1308.8 1819.1,1296.1 1794.9,1282.1 1772.4,1266.7 1751.4,1250.0 1731.8,1231.7 1713.6,1211.9 1696.7,1190.5 1681.0,1167.4 1666.6,1142.5 1653.3,1115.6 1641.2,1086.6 1630.2,1055.4 1620.4,1021.9 1611.7,985.8 1604.2,947.0 1597.9,905.3 1592.9,860.5 1589.3,812.4 1587.0,760.7 1586.2,705.3 1587.0,645.8 1589.4,582.0 1593.6,513.7 1599.8,440.4  Z" style="stroke-width: 2.0;  stroke: rgb(82,82,82); fill: rgb(255,153,0); opacity: 0.333;" />
<path d="M 1599.757,440.436 A 1064.250,1064.250 0.00 0,1 1659.0,447.7 L 1659.0,447.7 1648.8,520.5 1641.0,588.8 1635.3,652.8 1631.6,712.8 1629.8,769.0 1629.7,821.7 1631.2,871.1 1634.3,917.4 1638.8,960.9 1644.7,1001.7 1651.9,1040.2 1660.4,1076.3 1670.1,1110.3 1681.1,1142.5 1693.2,1172.8 1706.6,1201.6 1721.2,1228.8 1737.1,1254.6 1754.3,1279.2 1772.9,1302.6 1792.9,1325.0 1814.4,1346.3 1837.6,1366.7 1862.6,1386.3 1889.3,1405.0 1918.1,1423.0 1949.1,1440.2 1982.4,1456.7 2018.1,1472.4 2056.6,1487.5 2097.9,1501.8 2142.3,1515.3 2190.1,1528.0 2241.4,1539.9 2296.5,1551.0 2355.8,1561.0 2419.4,1570.0 2487.6,1577.9 2560.9,1584.6  A 1064.250,1064.250 0.00 0,0 2564.0,1525.0 L 2564.0,1525.0 2490.5,1522.5 2421.8,1518.4 2357.8,1513.0 2298.1,1506.2 2242.4,1498.3 2190.5,1489.3 2142.2,1479.3 2097.0,1468.3 2055.0,1456.3 2015.8,1443.4 1979.2,1429.7 1945.0,1415.1 1913.2,1399.7 1883.4,1383.3 1855.6,1366.1 1829.6,1348.0 1805.3,1328.9 1782.6,1308.8 1761.4,1287.6 1741.5,1265.3 1723.0,1241.7 1705.7,1216.8 1689.6,1190.4 1674.6,1162.5 1660.8,1132.9 1648.0,1101.4 1636.4,1068.0 1625.9,1032.4 1616.6,994.4 1608.4,954.0 1601.5,910.8 1595.8,864.7 1591.5,815.5 1588.6,762.9 1587.3,706.6 1587.6,646.6 1589.7,582.3 1593.7,513.7 1599.8,440.4  Z" style="stroke-width: 2.0;  stroke: rgb(82,82,82); fill: rgb(0,255,255); opacity: 0.333;" />
<path d="M 1599.757,440.436 A 1064.250,1064.250 0.00 0,1 1659.0,447.7 L 1659.0,447.7 1649.0,520.9 1641.7,590.2 1636.7,655.9 1633.9,718.3 1632.9,777.5 1633.7,833.7 1636.0,887.3 1639.7,938.5 1644.6,987.3 1650.6,1034.1 1657.5,1079.1 1665.2,1122.4 1673.8,1164.3 1683.0,1204.9 1692.9,1244.3 1703.4,1282.9 1714.5,1320.6 1726.2,1357.8 1738.5,1394.5 1751.5,1430.9 1765.2,1467.1 1779.6,1503.2 1794.9,1539.5 1811.1,1576.0 1828.4,1612.8 1847.0,1650.1 1866.8,1687.9 1888.2,1726.4 1911.3,1765.6 1936.3,1805.6 1963.4,1846.6 1992.9,1888.5 2025.0,1931.5 2060.0,1975.6 2098.1,2020.8 2139.8,2067.3 2185.2,2115.0 2234.7,2164.1 2288.7,2214.5  A 1064.250,1064.250 0.00 0,0 2327.5,2169.2 L 2327.5,2169.2 2270.8,2121.9 2218.6,2075.7 2170.5,2030.6 2126.4,1986.5 2085.8,1943.4 2048.4,1901.4 2013.9,1860.3 1982.1,1820.1 1952.7,1780.7 1925.5,1742.1 1900.3,1704.3 1876.8,1667.1 1854.8,1630.4 1834.3,1594.3 1814.9,1558.5 1796.7,1522.9 1779.4,1487.6 1762.9,1452.3 1747.2,1416.9 1732.3,1381.3 1717.9,1345.3 1704.1,1308.9 1690.9,1271.8 1678.3,1233.9 1666.2,1195.1 1654.7,1155.1 1643.8,1113.8 1633.7,1070.9 1624.2,1026.4 1615.7,980.0 1608.0,931.5 1601.5,880.7 1596.2,827.3 1592.2,771.1 1589.8,712.0 1589.2,649.6 1590.5,583.7 1593.9,514.1 1599.8,440.4  Z" style="stroke-width: 2.0;  stroke: rgb(82,82,82); fill: rgb(0,0,204); opacity: 0.333;" />
<path d="M 1599.757,440.436 A 1064.250,1064.250 0.00 0,1 1659.0,447.7 L 1659.0,447.7 1649.0,520.9 1641.7,590.4 1636.8,656.4 1634.0,719.1 1633.1,778.7 1633.9,835.5 1636.2,889.7 1639.8,941.5 1644.5,991.0 1650.2,1038.6 1656.8,1084.5 1664.2,1128.7 1672.2,1171.5 1680.8,1213.1 1690.0,1253.7 1699.6,1293.4 1709.7,1332.4 1720.3,1370.8 1731.3,1408.9 1742.8,1446.8 1754.9,1484.5 1767.5,1522.3 1780.9,1560.3 1795.0,1598.7 1810.0,1637.4 1826.0,1676.8 1843.2,1716.8 1861.8,1757.7 1881.8,1799.4 1903.6,1842.1 1927.3,1885.9 1953.2,1930.9 1981.5,1977.2 2012.4,2024.8 2046.4,2073.8 2083.7,2124.3 2124.5,2176.3 2169.3,2229.9 2218.4,2285.2  A 1064.250,1064.250 0.00 0,0 2261.2,2243.7 L 2261.2,2243.7 2209.1,2191.3 2161.4,2140.2 2117.7,2090.6 2077.7,2042.3 2041.0,1995.2 2007.4,1949.4 1976.6,1904.8 1948.2,1861.4 1922.1,1819.0 1898.0,1777.5 1875.6,1737.0 1854.8,1697.3 1835.4,1658.2 1817.2,1619.9 1800.1,1582.0 1783.8,1544.5 1768.4,1507.3 1753.6,1470.3 1739.5,1433.2 1725.8,1396.1 1712.7,1358.7 1700.0,1320.9 1687.7,1282.5 1675.9,1243.4 1664.5,1203.4 1653.5,1162.4 1643.1,1120.1 1633.3,1076.3 1624.1,1031.0 1615.8,983.7 1608.3,934.5 1601.8,883.0 1596.5,829.0 1592.5,772.4 1590.0,712.8 1589.3,650.1 1590.5,583.9 1593.9,514.1 1599.8,440.4  Z" style="stroke-width: 2.0;  stroke: rgb(82,82,82); fill: rgb(255,255,0); opacity: 0.333;" />
<path d="M 1599.757,440.436 A 1064.250,1064.250 0.00 0,1 1659.0,447.7 L 1659.0,447.7 1649.0,521.1 1641.8,590.9 1636.9,657.4 1634.2,720.7 1633.3,781.2 1634.0,839.0 1636.1,894.3 1639.4,947.3 1643.6,998.3 1648.7,1047.4 1654.5,1094.8 1660.9,1140.7 1667.7,1185.3 1674.8,1228.8 1682.3,1271.3 1689.9,1313.0 1697.7,1354.2 1705.6,1394.9 1713.7,1435.3 1721.9,1475.6 1730.4,1516.0 1739.1,1556.5 1748.0,1597.4 1757.4,1638.8 1767.3,1680.8 1777.8,1723.6 1789.1,1767.3 1801.2,1812.0 1814.5,1857.9 1829.1,1905.0 1845.1,1953.6 1863.0,2003.6 1882.7,2055.3 1904.8,2108.7 1929.4,2164.0 1956.8,2221.2 1987.3,2280.4 2021.4,2341.8 2059.4,2405.4  A 1064.250,1064.250 0.00 0,0 2109.2,2372.6 L 2109.2,2372.6 2067.8,2311.3 2030.3,2251.9 1996.5,2194.5 1965.9,2138.9 1938.3,2085.1 1913.3,2033.0 1890.6,1982.5 1870.0,1933.5 1851.3,1885.9 1834.1,1839.7 1818.2,1794.6 1803.6,1750.7 1789.9,1707.7 1777.0,1665.6 1764.8,1624.2 1753.1,1583.4 1741.8,1543.0 1730.9,1503.0 1720.2,1463.2 1709.7,1423.4 1699.4,1383.5 1689.2,1343.3 1679.1,1302.7 1669.1,1261.4 1659.4,1219.4 1649.8,1176.4 1640.5,1132.2 1631.6,1086.8 1623.2,1039.8 1615.3,991.0 1608.2,940.4 1601.9,887.6 1596.7,832.5 1592.8,774.9 1590.3,714.4 1589.5,651.0 1590.6,584.4 1594.0,514.2 1599.8,440.4  Z" style="stroke-width: 2.0;  stroke: rgb(82,82,82); fill: rgb(255,204,0); opacity: 0.333;" />
<path d="M 1599.757,440.436 A 1064.250,1064.250 0.00 0,1 1659.0,447.7 L 1659.0,447.7 1649.1,521.3 1641.8,591.8 1636.9,659.3 1634.0,724.0 1632.8,786.1 1633.0,845.7 1634.4,903.1 1636.7,958.4 1639.6,1011.7 1642.9,1063.3 1646.6,1113.2 1650.3,1161.8 1654.0,1209.1 1657.4,1255.3 1660.6,1300.6 1663.4,1345.1 1665.7,1389.1 1667.4,1432.7 1668.6,1476.0 1669.2,1519.2 1669.3,1562.6 1668.7,1606.1 1667.7,1650.2 1666.2,1694.8 1664.3,1740.1 1662.1,1786.4 1659.8,1833.8 1657.5,1882.5 1655.3,1932.5 1653.4,1984.2 1652.0,2037.6 1651.3,2092.9 1651.5,2150.3 1653.0,2209.9 1656.0,2271.9 1660.7,2336.5 1667.5,2403.9 1676.8,2474.1 1688.7,2547.4  A 1064.250,1064.250 0.00 0,0 1747.1,2535.2 L 1747.1,2535.2 1731.1,2462.7 1717.9,2393.1 1707.3,2326.2 1699.0,2262.0 1692.6,2200.2 1687.7,2140.7 1684.3,2083.5 1681.8,2028.2 1680.2,1974.8 1679.3,1923.1 1678.7,1873.0 1678.3,1824.3 1677.9,1776.9 1677.5,1730.6 1676.8,1685.2 1675.8,1640.5 1674.4,1596.5 1672.5,1553.0 1670.0,1509.7 1667.0,1466.6 1663.4,1423.4 1659.2,1380.0 1654.4,1336.2 1649.2,1291.9 1643.5,1246.9 1637.4,1200.9 1631.1,1153.9 1624.7,1105.6 1618.2,1055.9 1612.0,1004.6 1606.1,951.5 1600.7,896.5 1596.2,839.3 1592.6,779.7 1590.3,717.7 1589.6,652.9 1590.7,585.2 1594.0,514.5 1599.8,440.4  Z" style="stroke-width: 2.0;  stroke: rgb(82,82,82); fill: rgb(255,0,204); opacity: 0.333;" />
</g>
<defs>
<pattern id="hline-sparse" width="10" height="10" patternTransform="rotate(0 0 0)" patternUnits="userSpaceOnUse"><line x1="0" y1="0" x2="10" y2="0" style="stroke:black;stroke-width:2" /></pattern>
<pattern id="vline" width="10" height="10" patternTransform="rotate(0 0 0)" patternUnits="userSpaceOnUse"><line x1="0" y1="0" x2="0" y2="10" style="stroke:black;stroke-width:5" /></pattern>
<pattern id="checker" width="10" height="10" patternTransform="rotate(45 0 0)" patternUnits="userSpaceOnUse"><line x1="0" y1="0" x2="10" y2="0" style="stroke:black;stroke-width:2" /><line x1="0" y1="0" x2="0" y2="10" style="stroke:black;stroke-width:2" /></pattern>
<pattern id="hline" width="10" height="10" patternTransform="rotate(0 0 0)" patternUnits="userSpaceOnUse"><line x1="0" y1="0" x2="10" y2="0" style="stroke:black;stroke-width:5" /></pattern>
<pattern id="checker" width="10" height="10" patternTransform="rotate(45 0 0)" patternUnits="userSpaceOnUse"><line x1="0" y1="0" x2="10" y2="0" style="stroke:black;stroke-width:5" /><line x1="0" y1="0" x2="0" y2="10" style="stroke:black;stroke-width:4" /></pattern>
<pattern id="vline-sparse" width="10" height="10" patternTransform="rotate(0 0 0)" patternUnits="userSpaceOnUse"><line x1="0" y1="0" x2="0" y2="10" style="stroke:black;stroke-width:2" /></pattern>
</defs>
</svg>
